<?xml version="1.0" standalone="no"?>
<!DOCTYPE svg PUBLIC "-//W3C//DTD SVG 1.1//EN" "http://www.w3.org/Graphics/SVG/1.1/DTD/svg11.dtd" >
<svg xmlns="http://www.w3.org/2000/svg" xmlns:xlink="http://www.w3.org/1999/xlink" version="1.1">
<metadata>
Created by FontForge 20170812 at Sat Nov 16 16:34:11 2019
 By www-data
Copyright (c) 2003 by Bitstream, Inc. All Rights Reserved.
DejaVu changes are in public domain
Changes by Saber Rastikerdar are in public domain.
Non-Arabic(Latin) glyphs and data in extended version are imported from Roboto font under the Apache License, Version 2.0.
</metadata>
<defs>
<font id="Shabnam-Bold" horiz-adv-x="0" >
  <font-face 
    font-family="Shabnam"
    font-weight="700"
    font-stretch="normal"
    units-per-em="2048"
    panose-1="2 11 6 3 3 8 4 2 2 4"
    ascent="1638"
    descent="-410"
    x-height="1082"
    cap-height="1456"
    bbox="-1040 -935 3058 2351"
    underline-thickness="100"
    underline-position="-600"
    unicode-range="U+0002-FFFD"
  />
<missing-glyph horiz-adv-x="908" 
d="M808 0h-708v1456h708v-1456zM754 84v1287l-274 -643zM154 1359v-1263l268 632zM194 54h515l-258 606zM451 796l258 606h-515z" />
    <glyph glyph-name="uni0622" unicode="&#x627;&#x653;" horiz-adv-x="527" 
d="M199 1137.52h166h40v-34.0186v-1065.63v-34.0186h-40h-166h-40v34.0186v1065.63v34.0186h40zM181 1511h388l2 -188h-370q-57 0 -90 -32.5t-60 -94.5l-151 75q30 111 100 175.5t181 64.5z" />
    <glyph glyph-name="uni0623" unicode="&#x627;&#x654;" horiz-adv-x="459" 
d="M164 1137.52h166h40v-34.0186v-1065.63v-34.0186h-40h-166h-40v34.0186v1065.63v34.0186h40zM112 1342q-31 30 -45 68t-14 90q0 99 65.5 158.5t165.5 59.5q25 0 49.5 -5t47 -14.5t44.5 -22.5l5 -3v-6l1 -119v-18l-15 9q-20 13 -39.5 20.5t-39 11.5t-39.5 4
q-110 0 -110 -88q0 -20 8 -35.5t26 -29t48 -24.5q10 -4 16 -4q2 0 6 1q25 5 71 14t62 13l12 2v-12v-116v-8l-8 -2l-397 -95l-12 -3v12v113v8l8 2z" />
    <glyph glyph-name="uni0624" unicode="&#x648;&#x654;" horiz-adv-x="880" 
d="M306 1021q-31 30 -45 68t-14 90q0 99 65.5 158.5t165.5 59.5q25 0 49.5 -5t47 -14.5t44.5 -22.5l5 -3v-6l1 -119v-18l-15 9q-20 13 -39.5 20.5t-39 11.5t-39.5 4q-110 0 -110 -88q0 -20 8 -35.5t26 -29t48 -24.5q10 -4 16 -4q2 0 6 1q25 5 71 14t62 13l12 2v-12v-116v-8
l-8 -2l-397 -95l-12 -3v12v113v8l8 2zM820 388v-348q0 -236 -163 -371.5t-455 -135.5h-74h-40v40v176v40h40h68q342 0 371 211h-119q-188 0 -288 97.5t-100 281.5q0 90 24.5 166.5t72 135t122 91.5t168.5 33q175 0 274 -114.5t99 -302.5zM307 383q0 -66 31.5 -94.5
t108.5 -28.5h124v129q0 164 -128 164q-136 0 -136 -170z" />
    <glyph glyph-name="uni0625" unicode="&#x627;&#x655;" horiz-adv-x="459" 
d="M106 -435q-31 30 -45 68t-14 90q0 99 65.5 158.5t165.5 59.5q25 0 49.5 -5t47 -14.5t44.5 -22.5l5 -3v-6l1 -119v-18l-15 9q-20 13 -39.5 20.5t-39 11.5t-39.5 4q-110 0 -110 -88q0 -20 8 -35.5t26 -29t48 -24.5q10 -4 16 -4q2 0 6 1q25 5 71 14t62 13l12 2v-12v-116v-8
l-8 -2l-397 -95l-12 -3v12v113v8l8 2zM150 1334h166h40v-40v-1253v-40h-40h-166h-40v40v1253v40h40z" />
    <glyph glyph-name="uni0626" unicode="&#x64a;&#x654;" horiz-adv-x="1442" 
d="M403 909q-31 30 -45 68t-14 90q0 99 65.5 158.5t165.5 59.5q25 0 49.5 -5t47 -14.5t44.5 -22.5l5 -3v-6l1 -119v-18l-15 9q-20 13 -39.5 20.5t-39 11.5t-39.5 4q-110 0 -110 -88q0 -20 8 -35.5t26 -29t48 -24.5q10 -4 16 -4q2 0 6 1q25 5 71 14t62 13l12 2v-12v-116v-8
l-8 -2l-397 -95l-12 -3v12v113v8l8 2zM686 332q0 234 114.5 364t309.5 130h231h40v-40l1 -175v-40h-40h-237q-81 0 -122 -55.5t-44 -183.5v-23h120q152 0 237 -66t85 -194v-29q0 -232 -155.5 -349.5t-450.5 -117.5h-84q-308 0 -469.5 150.5t-161.5 441.5v410v40h40h172h40
v-40v-410q0 -170 91.5 -251.5t287.5 -81.5h84q354 0 354 190v12q0 22 -12.5 31.5t-57.5 9.5h-158q-99 0 -157 54t-58 151v72z" />
    <glyph glyph-name="uni06C0" unicode="&#x647;&#x654;" horiz-adv-x="924" 
d="M185 1211q32 -15 106 -15h52q205 0 205 78v6q0 31 -48 31h-92q-54 0 -83 28t-29 81v38q0 139 140 188q24 9 53 13.5t62 4.5h115h10v-10l1 -116v-10h-10h-5h-135q-101 0 -102 -67v-15v-5h5h71q176 0 176 -141v-16q0 -221 -339 -221h-48q-87 0 -139 18l-9 2l2 9l27 112
l3 12zM310 359q0 -54 35.5 -78t122.5 -24q86 0 118.5 24t32.5 82q0 31 -40.5 94t-122.5 140q-56 -66 -88.5 -113t-45 -75.5t-12.5 -49.5zM467 0q-181 0 -292.5 91t-111.5 267q0 87 50 177t170 236l-9 8l-27 26l24 29l109 130l27 31l30 -27q121 -106 197.5 -183t131.5 -151
t78 -140t23 -137q0 -175 -110 -266t-290 -91z" />
    <glyph glyph-name="uniFB01" unicode="fi" horiz-adv-x="1246" 
d="M181 0v870h-161v212h161v50q2 204 125.5 314.5t348.5 110.5q135 0 328 -59l-42 -239q-98 29 -152 37.5t-116 8.5q-202 0 -202 -179v-44h213v-212h-213v-870h-290zM1118 0h-290v1082h290v-1082z" />
    <glyph glyph-name="uniFB02" unicode="fl" horiz-adv-x="1255" 
d="M836 1312q-86 10 -160 10q-196 0 -196 -167v-73h215v-212h-215v-870h-290v870h-161v212h161v84q2 188 118 289.5t328 101.5q151 0 490 -32v-1525h-290v1312z" />
    <glyph glyph-name="uniFB03" unicode="ffi" horiz-adv-x="1901" 
d="M190 0v870h-161v212h161v92q0 182 104.5 282.5t292.5 100.5q60 0 147 -20l-3 -224q-36 9 -88 9q-163 0 -163 -153v-87h356v50q2 204 125.5 314.5t348.5 110.5q134 0 329 -59l-42 -239q-98 29 -152.5 37.5t-116.5 8.5q-202 0 -202 -179v-44h213v-212h-213v-870h-290v870
h-356v-870h-290zM1773 0h-290v1082h290v-1082z" />
    <glyph glyph-name="uniFB04" unicode="ffl" horiz-adv-x="1901" 
d="M190 0v870h-161v212h161v92q0 182 104.5 282.5t292.5 100.5q60 0 147 -20l-3 -224q-36 9 -88 9q-163 0 -163 -153v-87h356v81q1 191 118.5 292.5t328.5 101.5q144 0 490 -32v-1525h-290v1312q-86 10 -161 10q-196 0 -196 -167v-73h215v-212h-215v-870h-290v870h-356v-870
h-290z" />
    <glyph glyph-name="uniFBA5.fina" unicode="&#xfeea;&#x654;" horiz-adv-x="1060" arabic-form="final" 
d="M325 1211q32 -15 106 -15h52q205 0 205 78v6q0 31 -48 31h-92q-54 0 -83 28t-29 81v38q0 139 140 188q24 9 53 13.5t62 4.5h115h10v-10l1 -116v-10h-10h-5h-135q-101 0 -102 -67v-15v-5h5h71q176 0 176 -141v-16q0 -221 -339 -221h-48q-87 0 -139 18l-9 2l2 9l27 112
l3 12zM1019 0q-121 0 -213 47.5t-139 139.5h-154q-224 0 -338.5 85t-114.5 225q0 159 121.5 255t355.5 139l28 4l-4 29l-4 38l38 7l158 25l41 6l5 -41l68 -572q13 -77 48 -102t115 -25h35q11 0 18 -42t7 -81v-11q0 -41 -6.5 -83.5t-18.5 -42.5h-46zM619 440l-25 200l-17 -2
q-88 -13 -151.5 -35t-92.5 -46t-29 -47q0 -33 42.5 -51.5t151.5 -18.5h121z" />
    <glyph glyph-name="uniFDF2" unicode="&#x627;&#xfedf;&#xfee0;&#xfeea;" horiz-adv-x="2702" arabic-form="isolated" 
d="M1655 260h72q83 0 118.5 35t35.5 116v863v40h40h167h40v-40v-867q0 -197 -103.5 -302t-298.5 -105h-71q-12 0 -18.5 42.5t-6.5 83.5v11q0 39 7 81t18 42zM1069 260h33q84 0 123.5 50t39.5 167v607v40h40h166h40v-40v-608q0 -216 142 -216h25q11 0 18 -42t7 -81v-11
q0 -41 -6.5 -83.5t-18.5 -42.5h-35q-79 0 -139.5 30t-117.5 90q-115 -120 -282 -120h-35q-12 0 -18.5 42.5t-6.5 83.5v11q0 39 7 81t18 42zM1325 1565v362v10h10h88h10v-10v-362v-10h-10h-88h-10v10zM1430 1495q0 -8 0.5 -20.5t0.5 -21t0.5 -19.5t1.5 -20q7 -93 60 -93
q30 0 43.5 21t13.5 70q0 12 -2 29t-5.5 39t-9.5 48l-2 10l10 2l88 14l9 1l3 -8q9 -32 13.5 -63t4.5 -62q0 -211 -157 -213q-15 0 -30 3t-28.5 8.5t-26 14t-21.5 18.5q-19 -47 -60.5 -67.5t-91.5 -20.5q-74 0 -111 48.5t-37 139.5q0 27 3.5 53t9.5 50l3 8l9 -1l78 -13l10 -2
l-2 -10q-5 -21 -7 -41.5t-2 -39.5q0 -74 58 -74q19 0 32 3.5t21.5 14t13.5 21.5t7 34.5t2.5 43t0.5 56.5v39v10h10h77h10v-10zM1020 0q-121 0 -213 47.5t-139 139.5h-154q-224 0 -338.5 85t-114.5 225q0 159 121.5 255t355.5 139l28 4l-4 29l-4 38l38 7l158 25l41 6l5 -41
l68 -572q13 -77 48 -102t115 -25h35q11 0 18 -42t7 -81v-11q0 -41 -6.5 -83.5t-18.5 -42.5h-46zM620 440l-25 200l-17 -2q-88 -13 -151.5 -35t-92.5 -46t-29 -47q0 -33 42.5 -51.5t151.5 -18.5h121zM2363 1334h166h40v-40v-1253v-40h-40h-166h-40v40v1253v40h40z" />
    <glyph glyph-name="uniFE70" unicode="&#x20;&#x64b;" horiz-adv-x="791" arabic-form="isolated" 
d="M156 966v104v7l6 2l455 186l14 6v-15v-103v-7l-6 -2l-455 -187l-14 -6v15zM156 1178v104v7l6 2l455 186l14 6v-15v-103v-7l-6 -2l-455 -187l-14 -6v15z" />
    <glyph glyph-name="uniFE71" unicode="&#x640;&#x64b;" horiz-adv-x="755" arabic-form="medial" 
d="M761 260q12 0 18.5 -42t6.5 -81v-11q0 -41 -6.5 -83.5t-18.5 -42.5h-260q-12 0 -18.5 42.5t-6.5 83.5v11q0 39 6.5 81t18.5 42h260zM503 260q12 0 18.5 -42t6.5 -81v-11q0 -41 -6.5 -83.5t-18.5 -42.5h-260q-12 0 -18.5 42.5t-6.5 83.5v11q0 39 6.5 81t18.5 42h260z
M255 260q12 0 18.5 -42t6.5 -81v-11q0 -41 -6.5 -83.5t-18.5 -42.5h-260q-12 0 -18.5 42.5t-6.5 83.5v11q0 39 6.5 81t18.5 42h260zM150 953v104v7l6 2l455 186l14 6v-15v-103v-7l-6 -2l-455 -187l-14 -6v15zM150 1165v104v7l6 2l455 186l14 6v-15v-103v-7l-6 -2l-455 -187
l-14 -6v15z" />
    <glyph glyph-name="uniFE72" unicode="&#x20;&#x64c;" horiz-adv-x="791" arabic-form="isolated" 
d="M309 1297q0 76 49 124t124 48q76 0 124 -47.5t48 -125.5q0 -18 -3 -37.5t-8 -38t-12 -37.5q16 -2 29 -2h10v-10v-76v-11l-10 1q-35 2 -70 8q-97 -224 -288 -224q-52 0 -92 18.5t-66.5 55t-40.5 90.5t-15 125v8l8 2l79 14l12 2v-12q4 -205 116 -205q101 0 185 144
q-85 31 -132 74t-47 112zM533 1203q23 56 23 92q0 32 -20.5 53t-49.5 21q-34 0 -55.5 -20.5t-21.5 -55.5q0 -56 124 -90z" />
    <glyph glyph-name="uniFE74" unicode="&#x20;&#x64d;" horiz-adv-x="791" arabic-form="isolated" 
d="M164 -440v104v7l6 2l456 186l14 6v-15v-104v-7l-6 -2l-456 -186l-14 -6v15zM164 -228v104v7l6 2l456 186l14 6v-15v-104v-7l-6 -2l-456 -186l-14 -6v15z" />
    <glyph glyph-name="uniFE76" unicode="&#x20;&#x64e;" horiz-adv-x="791" arabic-form="isolated" 
d="M146 1153v104v7l6 2l456 186l14 6v-15v-104v-7l-6 -2l-456 -186l-14 -6v15z" />
    <glyph glyph-name="uniFE77" unicode="&#x640;&#x64e;" horiz-adv-x="755" arabic-form="medial" 
d="M761 260q12 0 18.5 -42t6.5 -81v-11q0 -41 -6.5 -83.5t-18.5 -42.5h-260q-12 0 -18.5 42.5t-6.5 83.5v11q0 39 6.5 81t18.5 42h260zM503 260q12 0 18.5 -42t6.5 -81v-11q0 -41 -6.5 -83.5t-18.5 -42.5h-260q-12 0 -18.5 42.5t-6.5 83.5v11q0 39 6.5 81t18.5 42h260z
M255 260q12 0 18.5 -42t6.5 -81v-11q0 -41 -6.5 -83.5t-18.5 -42.5h-260q-12 0 -18.5 42.5t-6.5 83.5v11q0 39 6.5 81t18.5 42h260zM155 1209v104v7l6 2l456 186l14 6v-15v-104v-7l-6 -2l-456 -186l-14 -6v15z" />
    <glyph glyph-name="uniFE78" unicode="&#x20;&#x64f;" horiz-adv-x="791" arabic-form="isolated" 
d="M595 1092q-20 0 -38.5 1.5t-36.5 3.5q-102 -136 -347 -149l-11 -1v11v78v9l9 1q173 16 246 78q-27 7 -52 18t-47.5 27t-39 35.5t-26.5 44.5t-10 52q0 77 49 124.5t124 47.5t124 -48t49 -125q0 -53 -22 -111q17 -2 29 -2h10v-10v-75v-10h-10zM466 1207q23 56 23 92
q0 32 -20 52.5t-50 20.5q-35 0 -56 -20t-21 -55q0 -56 124 -90z" />
    <glyph glyph-name="uniFE79" unicode="&#x640;&#x64f;" horiz-adv-x="755" arabic-form="medial" 
d="M761 260q12 0 18.5 -42t6.5 -81v-11q0 -41 -6.5 -83.5t-18.5 -42.5h-260q-12 0 -18.5 42.5t-6.5 83.5v11q0 39 6.5 81t18.5 42h260zM503 260q12 0 18.5 -42t6.5 -81v-11q0 -41 -6.5 -83.5t-18.5 -42.5h-260q-12 0 -18.5 42.5t-6.5 83.5v11q0 39 6.5 81t18.5 42h260z
M255 260q12 0 18.5 -42t6.5 -81v-11q0 -41 -6.5 -83.5t-18.5 -42.5h-260q-12 0 -18.5 42.5t-6.5 83.5v11q0 39 6.5 81t18.5 42h260zM595 1071q-20 0 -38.5 1.5t-36.5 3.5q-102 -136 -347 -149l-11 -1v11v78v9l9 1q173 16 246 78q-27 7 -52 18t-47.5 27t-39 35.5t-26.5 44.5
t-10 52q0 77 49 124.5t124 47.5t124 -48t49 -125q0 -53 -22 -111q17 -2 29 -2h10v-10v-75v-10h-10zM466 1186q23 56 23 92q0 32 -20 52.5t-50 20.5q-35 0 -56 -20t-21 -55q0 -56 124 -90z" />
    <glyph glyph-name="uniFE7A" unicode="&#x20;&#x650;" horiz-adv-x="791" arabic-form="isolated" 
d="M166 -334v104v7l6 2l455 186l14 6v-15v-103v-7l-6 -2l-455 -187l-14 -6v15z" />
    <glyph glyph-name="uniFE7B" unicode="&#x640;&#x650;" horiz-adv-x="791" arabic-form="medial" 
d="M761 260q12 0 18.5 -42t6.5 -81v-11q0 -41 -6.5 -83.5t-18.5 -42.5h-260q-12 0 -18.5 42.5t-6.5 83.5v11q0 39 6.5 81t18.5 42h260zM503 260q12 0 18.5 -42t6.5 -81v-11q0 -41 -6.5 -83.5t-18.5 -42.5h-260q-12 0 -18.5 42.5t-6.5 83.5v11q0 39 6.5 81t18.5 42h260z
M255 260q12 0 18.5 -42t6.5 -81v-11q0 -41 -6.5 -83.5t-18.5 -42.5h-260q-12 0 -18.5 42.5t-6.5 83.5v11q0 39 6.5 81t18.5 42h260zM172 -452v104v7l6 2l455 186l14 6v-15v-103v-7l-6 -2l-455 -187l-14 -6v15z" />
    <glyph glyph-name="uniFE7C" unicode="&#x20;&#x651;" horiz-adv-x="791" arabic-form="isolated" 
d="M436 1439q0 -8 0.5 -20.5t0.5 -21t0.5 -19.5t1.5 -20q7 -93 60 -93q30 0 43.5 21t13.5 70q0 12 -2 29t-5.5 39t-9.5 48l-2 10l10 2l88 14l9 1l3 -8q9 -32 13.5 -63t4.5 -62q0 -211 -157 -213q-15 0 -30 3t-28.5 8.5t-26 14t-21.5 18.5q-19 -47 -60.5 -67.5t-91.5 -20.5
q-74 0 -111 48.5t-37 139.5q0 27 3.5 53t9.5 50l3 8l9 -1l78 -13l10 -2l-2 -10q-5 -21 -7 -41.5t-2 -39.5q0 -74 58 -74q19 0 32 3.5t21.5 14t13.5 21.5t7 34.5t2.5 43t0.5 56.5v39v10h10h77h10v-10z" />
    <glyph glyph-name="uniFE7D" unicode="&#x640;&#x651;" horiz-adv-x="755" arabic-form="medial" 
d="M761 260q12 0 18.5 -42t6.5 -81v-11q0 -41 -6.5 -83.5t-18.5 -42.5h-260q-12 0 -18.5 42.5t-6.5 83.5v11q0 39 6.5 81t18.5 42h260zM503 260q12 0 18.5 -42t6.5 -81v-11q0 -41 -6.5 -83.5t-18.5 -42.5h-260q-12 0 -18.5 42.5t-6.5 83.5v11q0 39 6.5 81t18.5 42h260z
M255 260q12 0 18.5 -42t6.5 -81v-11q0 -41 -6.5 -83.5t-18.5 -42.5h-260q-12 0 -18.5 42.5t-6.5 83.5v11q0 39 6.5 81t18.5 42h260zM447 1448q0 -8 0.5 -20.5t0.5 -21t0.5 -19.5t1.5 -20q7 -93 60 -93q30 0 43.5 21t13.5 70q0 12 -2 29t-5.5 39t-9.5 48l-2 10l10 2l88 14
l9 1l3 -8q9 -32 13.5 -63t4.5 -62q0 -211 -157 -213q-15 0 -30 3t-28.5 8.5t-26 14t-21.5 18.5q-19 -47 -60.5 -67.5t-91.5 -20.5q-74 0 -111 48.5t-37 139.5q0 27 3.5 53t9.5 50l3 8l9 -1l78 -13l10 -2l-2 -10q-5 -21 -7 -41.5t-2 -39.5q0 -74 58 -74q19 0 32 3.5t21.5 14
t13.5 21.5t7 34.5t2.5 43t0.5 56.5v39v10h10h77h10v-10z" />
    <glyph glyph-name="uniFE7E" unicode="&#x20;&#x652;" horiz-adv-x="791" arabic-form="isolated" 
d="M210 1272q0 25 6.5 48.5t18.5 44t29 37t37 28.5t43.5 18.5t48.5 6.5q38 0 72 -14.5t58.5 -39t39 -58.5t14.5 -71q0 -38 -13.5 -71t-40 -59.5t-59 -40t-71.5 -13.5q-50 0 -92 24.5t-66.5 67t-24.5 92.5zM312 1271q-1 -17 6 -32.5t18 -27t27 -18t33 -6.5q35 0 59.5 24.5
t24.5 59.5t-24.5 59.5t-59.5 24.5t-60 -25t-24 -59z" />
    <glyph glyph-name="uniFE7F" unicode="&#x640;&#x652;" horiz-adv-x="755" arabic-form="medial" 
d="M761 260q12 0 18.5 -42t6.5 -81v-11q0 -41 -6.5 -83.5t-18.5 -42.5h-260q-12 0 -18.5 42.5t-6.5 83.5v11q0 39 6.5 81t18.5 42h260zM503 260q12 0 18.5 -42t6.5 -81v-11q0 -41 -6.5 -83.5t-18.5 -42.5h-260q-12 0 -18.5 42.5t-6.5 83.5v11q0 39 6.5 81t18.5 42h260z
M255 260q12 0 18.5 -42t6.5 -81v-11q0 -41 -6.5 -83.5t-18.5 -42.5h-260q-12 0 -18.5 42.5t-6.5 83.5v11q0 39 6.5 81t18.5 42h260zM200 1282q0 25 6.5 48.5t18.5 44t29 37t37 28.5t43.5 18.5t48.5 6.5q38 0 72 -14.5t58.5 -39t39 -58.5t14.5 -71q0 -38 -13.5 -71t-40 -59.5
t-59 -40t-71.5 -13.5q-50 0 -92 24.5t-66.5 67t-24.5 92.5zM302 1281q-1 -17 6 -32.5t18 -27t27 -18t33 -6.5q35 0 59.5 24.5t24.5 59.5t-24.5 59.5t-59.5 24.5t-60 -25t-24 -59z" />
    <glyph glyph-name="uniFEF5" unicode="&#xfedf;&#xfe82;" horiz-adv-x="1145" arabic-form="isolated" 
d="M176 1610h388l2 -188h-370q-57 0 -90 -32.5t-60 -94.5l-151 75q30 111 100 175.5t181 64.5zM159 1285h166h40v-40v-884v-40h-40h-166h-40v40v884v40h40zM1042 432q0 -209 -108.5 -320.5t-313.5 -111.5h-462h-40v40v180v40h40h469q88 0 128 44t40 146v844v40h40h167h40
v-40v-862z" />
    <glyph glyph-name="uniFEF6" unicode="&#xfee0;&#xfe82;" horiz-adv-x="1203" arabic-form="final" 
d="M1208 0h-25q-89 0 -152 30t-116 90q-114 -120 -278 -120h-479h-40v40v180v40h40h462q89 0 132 56t43 188v791v40h40h166h40v-40v-792q0 -143 28.5 -193t115.5 -50h23q11 0 18 -42t7 -81v-11q0 -41 -6.5 -83.5t-18.5 -42.5zM159 1285h166h40v-40v-884v-40h-40h-166h-40v40
v884v40h40zM176 1610h388l2 -188h-370q-57 0 -90 -32.5t-60 -94.5l-151 75q30 111 100 175.5t181 64.5z" />
    <glyph glyph-name="uniFEF7" unicode="&#xfedf;&#xfe84;" horiz-adv-x="1145" arabic-form="isolated" 
d="M132 1476q-31 30 -45 68t-14 90q0 99 65.5 158.5t165.5 59.5q25 0 49.5 -5t47 -14.5t44.5 -22.5l5 -3v-6l1 -119v-18l-15 9q-20 13 -39.5 20.5t-39 11.5t-39.5 4q-110 0 -110 -88q0 -20 8 -35.5t26 -29t48 -24.5q10 -4 16 -4q2 0 6 1q25 5 71 14t62 13l12 2v-12v-116v-8
l-8 -2l-397 -95l-12 -3v12v113v8l8 2zM159 1285h166h40v-40v-884v-40h-40h-166h-40v40v884v40h40zM1042 432q0 -209 -108.5 -320.5t-313.5 -111.5h-462h-40v40v180v40h40h469q88 0 128 44t40 146v844v40h40h167h40v-40v-862z" />
    <glyph glyph-name="uniFEF8" unicode="&#xfee0;&#xfe84;" horiz-adv-x="1203" arabic-form="final" 
d="M1208 0h-25q-89 0 -152 30t-116 90q-114 -120 -278 -120h-479h-40v40v180v40h40h462q89 0 132 56t43 188v791v40h40h166h40v-40v-792q0 -143 28.5 -193t115.5 -50h23q11 0 18 -42t7 -81v-11q0 -41 -6.5 -83.5t-18.5 -42.5zM159 1285h166h40v-40v-884v-40h-40h-166h-40v40
v884v40h40zM132 1476q-31 30 -45 68t-14 90q0 99 65.5 158.5t165.5 59.5q25 0 49.5 -5t47 -14.5t44.5 -22.5l5 -3v-6l1 -119v-18l-15 9q-20 13 -39.5 20.5t-39 11.5t-39.5 4q-110 0 -110 -88q0 -20 8 -35.5t26 -29t48 -24.5q10 -4 16 -4q2 0 6 1q25 5 71 14t62 13l12 2v-12
v-116v-8l-8 -2l-397 -95l-12 -3v12v113v8l8 2z" />
    <glyph glyph-name="uniFEF9" unicode="&#xfedf;&#xfe88;" horiz-adv-x="1145" arabic-form="isolated" 
d="M159 1285h166h40v-40v-884v-40h-40h-166h-40v40v884v40h40zM1042 432q0 -209 -108.5 -320.5t-313.5 -111.5h-462h-40v40v180v40h40h469q88 0 128 44t40 146v844v40h40h167h40v-40v-862zM85 -453q-31 30 -45 68t-14 90q0 99 65.5 158.5t165.5 59.5q25 0 49.5 -5t47 -14.5
t44.5 -22.5l5 -3v-6l1 -119v-18l-15 9q-20 13 -39.5 20.5t-39 11.5t-39.5 4q-110 0 -110 -88q0 -20 8 -35.5t26 -29t48 -24.5q10 -4 16 -4q2 0 6 1q25 5 71 14t62 13l12 2v-12v-116v-8l-8 -2l-397 -95l-12 -3v12v113v8l8 2z" />
    <glyph glyph-name="uniFEFA" unicode="&#xfee0;&#xfe88;" horiz-adv-x="1203" arabic-form="final" 
d="M85 -453q-31 30 -45 68t-14 90q0 99 65.5 158.5t165.5 59.5q25 0 49.5 -5t47 -14.5t44.5 -22.5l5 -3v-6l1 -119v-18l-15 9q-20 13 -39.5 20.5t-39 11.5t-39.5 4q-110 0 -110 -88q0 -20 8 -35.5t26 -29t48 -24.5q10 -4 16 -4q2 0 6 1q25 5 71 14t62 13l12 2v-12v-116v-8
l-8 -2l-397 -95l-12 -3v12v113v8l8 2zM1208 0h-25q-89 0 -152 30t-116 90q-114 -120 -278 -120h-479h-40v40v180v40h40h462q89 0 132 56t43 188v791v40h40h166h40v-40v-792q0 -143 28.5 -193t115.5 -50h23q11 0 18 -42t7 -81v-11q0 -41 -6.5 -83.5t-18.5 -42.5zM159 1285
h166h40v-40v-884v-40h-40h-166h-40v40v884v40h40z" />
    <glyph glyph-name="uniFEFB" unicode="&#xfedf;&#xfe8e;" horiz-adv-x="1145" arabic-form="isolated" 
d="M159 1285h166h40v-40v-884v-40h-40h-166h-40v40v884v40h40zM1042 432q0 -209 -108.5 -320.5t-313.5 -111.5h-462h-40v40v180v40h40h469q88 0 128 44t40 146v844v40h40h167h40v-40v-862z" />
    <glyph glyph-name="uniFEFC" unicode="&#xfee0;&#xfe8e;" horiz-adv-x="1203" arabic-form="final" 
d="M1208 0h-25q-89 0 -152 30t-116 90q-114 -120 -278 -120h-479h-40v40v180v40h40h462q89 0 132 56t43 188v791v40h40h166h40v-40v-792q0 -143 28.5 -193t115.5 -50h23q11 0 18 -42t7 -81v-11q0 -41 -6.5 -83.5t-18.5 -42.5zM159 1285h166h40v-40v-884v-40h-40h-166h-40v40
v884v40h40z" />
    <glyph glyph-name="uni0651064B" unicode="&#x64b;&#x651;" 
d="M324 1258v104v7l6 2l455 186l14 6v-15v-103v-7l-6 -2l-455 -187l-14 -6v15zM324 1470v104v7l6 2l455 186l14 6v-15v-103v-7l-6 -2l-455 -187l-14 -6v15zM625 1217q0 -8 0.5 -20.5t0.5 -21t0.5 -19.5t1.5 -20q7 -93 60 -93q30 0 43.5 21t13.5 70q0 12 -2 29t-5.5 39
t-9.5 48l-2 10l10 2l88 14l9 1l3 -8q9 -32 13.5 -63t4.5 -62q0 -211 -157 -213q-15 0 -30 3t-28.5 8.5t-26 14t-21.5 18.5q-19 -47 -60.5 -67.5t-91.5 -20.5q-74 0 -111 48.5t-37 139.5q0 27 3.5 53t9.5 50l3 8l9 -1l78 -13l10 -2l-2 -10q-5 -21 -7 -41.5t-2 -39.5
q0 -74 58 -74q19 0 32 3.5t21.5 14t13.5 21.5t7 34.5t2.5 43t0.5 56.5v39v10h10h77h10v-10z" />
    <glyph glyph-name="uni0651064C" unicode="&#x64c;&#x651;" 
d="M473 1701q0 76 49 124t124 48q76 0 124 -47.5t48 -125.5q0 -18 -3 -37.5t-8 -38t-12 -37.5q16 -2 29 -2h10v-10v-76v-11l-10 1q-35 2 -70 8q-97 -224 -288 -224q-52 0 -92 18.5t-66.5 55t-40.5 90.5t-15 125v8l8 2l79 14l12 2v-12q4 -205 116 -205q101 0 185 144
q-85 31 -132 74t-47 112zM697 1607q23 56 23 92q0 32 -20.5 53t-49.5 21q-34 0 -55.5 -20.5t-21.5 -55.5q0 -56 124 -90zM642 1211q0 -8 0.5 -20.5t0.5 -21t0.5 -19.5t1.5 -20q7 -93 60 -93q30 0 43.5 21t13.5 70q0 12 -2 29t-5.5 39t-9.5 48l-2 10l10 2l88 14l9 1l3 -8
q9 -32 13.5 -63t4.5 -62q0 -211 -157 -213q-15 0 -30 3t-28.5 8.5t-26 14t-21.5 18.5q-19 -47 -60.5 -67.5t-91.5 -20.5q-74 0 -111 48.5t-37 139.5q0 27 3.5 53t9.5 50l3 8l9 -1l78 -13l10 -2l-2 -10q-5 -21 -7 -41.5t-2 -39.5q0 -74 58 -74q19 0 32 3.5t21.5 14t13.5 21.5
t7 34.5t2.5 43t0.5 56.5v39v10h10h77h10v-10z" />
    <glyph glyph-name="uni064B0651" unicode="&#x64d;&#x651;" 
d="M543 1683q0 -8 0.5 -20.5t0.5 -21t0.5 -19.5t1.5 -20q7 -93 60 -93q30 0 43.5 21t13.5 70q0 12 -2 29t-5.5 39t-9.5 48l-2 10l10 2l88 14l9 1l3 -8q9 -32 13.5 -63t4.5 -62q0 -211 -157 -213q-15 0 -30 3t-28.5 8.5t-26 14t-21.5 18.5q-19 -47 -60.5 -67.5t-91.5 -20.5
q-74 0 -111 48.5t-37 139.5q0 27 3.5 53t9.5 50l3 8l9 -1l78 -13l10 -2l-2 -10q-5 -21 -7 -41.5t-2 -39.5q0 -74 58 -74q19 0 32 3.5t21.5 14t13.5 21.5t7 34.5t2.5 43t0.5 56.5v39v10h10h77h10v-10zM273 869v104v7l6 2l455 186l14 6v-15v-103v-7l-6 -2l-455 -187l-14 -6v15
zM273 1081v104v7l6 2l455 186l14 6v-15v-103v-7l-6 -2l-455 -187l-14 -6v15z" />
    <glyph glyph-name="uni0651064E" unicode="&#x64e;&#x651;" 
d="M308 1457v104v7l6 2l456 186l14 6v-15v-104v-7l-6 -2l-456 -186l-14 -6v15zM630 1425q0 -8 0.5 -20.5t0.5 -21t0.5 -19.5t1.5 -20q7 -93 60 -93q30 0 43.5 21t13.5 70q0 12 -2 29t-5.5 39t-9.5 48l-2 10l10 2l88 14l9 1l3 -8q9 -32 13.5 -63t4.5 -62q0 -211 -157 -213
q-15 0 -30 3t-28.5 8.5t-26 14t-21.5 18.5q-19 -47 -60.5 -67.5t-91.5 -20.5q-74 0 -111 48.5t-37 139.5q0 27 3.5 53t9.5 50l3 8l9 -1l78 -13l10 -2l-2 -10q-5 -21 -7 -41.5t-2 -39.5q0 -74 58 -74q19 0 32 3.5t21.5 14t13.5 21.5t7 34.5t2.5 43t0.5 56.5v39v10h10h77h10
v-10z" />
    <glyph glyph-name="uni0651064F" unicode="&#x64f;&#x651;" 
d="M759 1404q-20 0 -38.5 1.5t-36.5 3.5q-102 -136 -347 -149l-11 -1v11v78v9l9 1q173 16 246 78q-27 7 -52 18t-47.5 27t-39 35.5t-26.5 44.5t-10 52q0 77 49 124.5t124 47.5t124 -48t49 -125q0 -53 -22 -111q17 -2 29 -2h10v-10v-75v-10h-10zM630 1519q23 56 23 92
q0 32 -20 52.5t-50 20.5q-35 0 -56 -20t-21 -55q0 -56 124 -90zM627 1218q0 -8 0.5 -20.5t0.5 -21t0.5 -19.5t1.5 -20q7 -93 60 -93q30 0 43.5 21t13.5 70q0 12 -2 29t-5.5 39t-9.5 48l-2 10l10 2l88 14l9 1l3 -8q9 -32 13.5 -63t4.5 -62q0 -211 -157 -213q-15 0 -30 3
t-28.5 8.5t-26 14t-21.5 18.5q-19 -47 -60.5 -67.5t-91.5 -20.5q-74 0 -111 48.5t-37 139.5q0 27 3.5 53t9.5 50l3 8l9 -1l78 -13l10 -2l-2 -10q-5 -21 -7 -41.5t-2 -39.5q0 -74 58 -74q19 0 32 3.5t21.5 14t13.5 21.5t7 34.5t2.5 43t0.5 56.5v39v10h10h77h10v-10z" />
    <glyph glyph-name="uni064E0651" unicode="&#x650;&#x651;" 
d="M615 1630q0 -8 0.5 -20.5t0.5 -21t0.5 -19.5t1.5 -20q7 -93 60 -93q30 0 43.5 21t13.5 70q0 12 -2 29t-5.5 39t-9.5 48l-2 10l10 2l88 14l9 1l3 -8q9 -32 13.5 -63t4.5 -62q0 -211 -157 -213q-15 0 -30 3t-28.5 8.5t-26 14t-21.5 18.5q-19 -47 -60.5 -67.5t-91.5 -20.5
q-74 0 -111 48.5t-37 139.5q0 27 3.5 53t9.5 50l3 8l9 -1l78 -13l10 -2l-2 -10q-5 -21 -7 -41.5t-2 -39.5q0 -74 58 -74q19 0 32 3.5t21.5 14t13.5 21.5t7 34.5t2.5 43t0.5 56.5v39v10h10h77h10v-10zM344 999v104v7l6 2l456 186l14 6v-15v-104v-7l-6 -2l-456 -186l-14 -6v15
z" />
    <glyph glyph-name="uni0654064E" unicode="&#x64e;&#x654;" 
d="M314 1675v104v7l6 2l456 186l14 6v-15v-104v-7l-6 -2l-456 -186l-14 -6v15zM440 1324q-31 30 -45 68t-14 90q0 99 65.5 158.5t165.5 59.5q25 0 49.5 -5t47 -14.5t44.5 -22.5l5 -3v-6l1 -119v-18l-15 9q-20 13 -39.5 20.5t-39 11.5t-39.5 4q-110 0 -110 -88q0 -20 8 -35.5
t26 -29t48 -24.5q10 -4 16 -4q2 0 6 1q25 5 71 14t62 13l12 2v-12v-116v-8l-8 -2l-397 -95l-12 -3v12v113v8l8 2z" />
    <glyph glyph-name="uni0654064F" unicode="&#x64f;&#x654;" 
d="M697 1628q-20 0 -38.5 1.5t-36.5 3.5q-102 -136 -347 -149l-11 -1v11v78v9l9 1q173 16 246 78q-27 7 -52 18t-47.5 27t-39 35.5t-26.5 44.5t-10 52q0 77 49 124.5t124 47.5t124 -48t49 -125q0 -53 -22 -111q17 -2 29 -2h10v-10v-75v-10h-10zM568 1743q23 56 23 92
q0 32 -20 52.5t-50 20.5q-35 0 -56 -20t-21 -55q0 -56 124 -90zM433 1106q-31 30 -45 68t-14 90q0 99 65.5 158.5t165.5 59.5q25 0 49.5 -5t47 -14.5t44.5 -22.5l5 -3v-6l1 -119v-18l-15 9q-20 13 -39.5 20.5t-39 11.5t-39.5 4q-110 0 -110 -88q0 -20 8 -35.5t26 -29
t48 -24.5q10 -4 16 -4q2 0 6 1q25 5 71 14t62 13l12 2v-12v-116v-8l-8 -2l-397 -95l-12 -3v12v113v8l8 2z" />
    <glyph glyph-name="uni066E.fina" unicode="&#x66e;" horiz-adv-x="2016" 
d="M2022 0h-21q-193 0 -290 111q-55 -58 -138.5 -84.5t-215.5 -26.5h-825q-230 0 -351 123.5t-121 358.5v201v40h40h175h40v-40v-200q0 -117 52.5 -170t167.5 -53h824q130 0 176.5 33.5t46.5 121.5v258v40h40h171h40v-40v-258q0 -87 34.5 -121t132.5 -34h22q11 0 18 -42
t7 -81v-11q0 -41 -6.5 -83.5t-18.5 -42.5z" />
    <glyph glyph-name="uni066F.fina" unicode="&#x66f;" horiz-adv-x="1466" 
d="M1471 0h-100v-26q0 -95 -35.5 -169.5t-93.5 -121.5t-140.5 -77.5t-170 -42.5t-187.5 -12h-51q-309 0 -471 149.5t-162 440.5v341v40h40h174h40v-40v-340q0 -170 91.5 -251t287.5 -81h51q76 0 138 7.5t106 22t74 34.5t44.5 45t14.5 55v26h-122q-188 0 -288 97.5
t-100 281.5q0 90 24.5 166.5t72 135t122 91.5t168.5 33q175 0 274 -114t99 -303v-128h100q11 0 18 -42t7 -81v-11q0 -41 -6.5 -83.5t-18.5 -42.5zM858 383q0 -66 31.5 -94.5t108.5 -28.5h124v129q0 164 -128 164q-136 0 -136 -170z" />
    <glyph glyph-name="uni0695.fina" unicode="&#x695;" horiz-adv-x="883" 
d="M244 -910l-193 324l-9 15h18h124h6l3 -5l131 -225l132 225l3 5h6h124h18l-9 -15l-194 -324l-3 -5h-6h-142h-6zM888 0h-16q-110 0 -178 35q-22 -237 -179.5 -367.5t-427.5 -134.5l-72 -1l-41 -1v41v175v40h40h70q358 0 358 325v534v40h40h175h40v-40v-223
q0 -86 40.5 -124.5t134.5 -38.5h16q11 0 18 -42t7 -81v-11q0 -41 -6.5 -83.5t-18.5 -42.5z" />
    <glyph glyph-name="uni06A1.init" unicode="&#x6a1;" horiz-adv-x="898" 
d="M-5 260h370q59 0 101 5.5t66 14t38 22.5t18 26.5t6 30.5q-65 -5 -112 -5q-193 0 -294.5 74.5t-101.5 237.5q0 172 101.5 283t278.5 111t274.5 -99.5t97.5 -266.5v-319q0 -375 -475 -375h-368q-12 0 -18.5 42.5t-6.5 83.5v11q0 39 7 81t18 42zM468 809q-71 0 -104 -32
t-33 -100q0 -49 29 -64t130 -15q49 0 105 6v93q0 55 -30 83.5t-97 28.5z" />
    <glyph glyph-name="uni06A1.medi" unicode="&#x6a1;" horiz-adv-x="1022" 
d="M1027 0h-136q-89 0 -183 18.5t-173 57.5q-155 -76 -357 -76h-183q-12 0 -18.5 42.5t-6.5 83.5v11q0 39 7 81t18 42h212q-62 94 -62 211q0 166 114 280.5t279 114.5q164 0 278 -113.5t114 -280.5q0 -118 -61 -212h158q11 0 18 -42t7 -81v-11q0 -41 -6.5 -83.5t-18.5 -42.5
zM682 470q0 59 -41 100t-104 41q-65 0 -105.5 -39.5t-40.5 -101.5q0 -57 43.5 -99t102.5 -42t102 41.5t43 99.5z" />
    <glyph glyph-name="uni06A1.fina" unicode="&#x6a1;" horiz-adv-x="2044" 
d="M2050 0h-136q-57 0 -116 7.5t-123 25t-117 43.5q-54 -26 -113 -43.5t-119 -25t-125 -7.5h-667q-230 0 -351 123.5t-121 358.5v201v40h40h175h40v-40v-200q0 -117 52.5 -170t168.5 -53h692q-62 94 -62 211q0 166 114 280.5t279 114.5q164 0 278 -113.5t114 -280.5
q0 -118 -61 -212h158q11 0 18 -42t7 -81v-11q0 -41 -6.5 -83.5t-18.5 -42.5zM1705 470q0 59 -41 100t-104 41q-65 0 -105.5 -39.5t-40.5 -101.5q0 -57 43.5 -99t102.5 -42t102 41.5t43 99.5z" />
    <glyph glyph-name="uni06B5.init" unicode="&#x6b5;" horiz-adv-x="621" 
d="M295 1440l-193 324l-9 15h18h124h6l3 -5l131 -225l132 225l3 5h6h124h18l-9 -15l-194 -324l-3 -5h-6h-142h-6zM-5 260h122q83 0 118.5 35t35.5 116v883v40h40h167h40v-40v-882q0 -198 -103.5 -305t-298.5 -107h-121q-12 0 -18.5 42.5t-6.5 83.5v11q0 39 7 81t18 42z" />
    <glyph glyph-name="uni06B5.medi" unicode="&#x6b5;" horiz-adv-x="675" 
d="M295 1440l-193 324l-9 15h18h124h6l3 -5l131 -225l132 225l3 5h6h124h18l-9 -15l-194 -324l-3 -5h-6h-142h-6zM684 0h-25q-164 0 -268 109q-55 -56 -128 -82.5t-153 -26.5h-116q-12 0 -18.5 42.5t-6.5 83.5v11q0 39 7 81t18 42h114q89 0 126 34t37 113v887v40h40h166h40
v-40v-887q0 -83 31.5 -115t120.5 -32h15q11 0 18 -42t7 -81v-11q0 -41 -6.5 -83.5t-18.5 -42.5z" />
    <glyph glyph-name="uni06B5.fina" unicode="&#x6b5;" horiz-adv-x="1387" 
d="M518 999l-193 324l-9 15h18h124h6l3 -5l131 -225l132 225l3 5h6h124h18l-9 -15l-194 -324l-3 -5h-6h-142h-6zM1391 0h-30q-77 0 -134 27q-12 -151 -77.5 -256.5t-183 -161.5t-279.5 -56h-46q-285 0 -433 150t-148 438v341v40h40h174h40v-40v-340q0 -170 79 -249t248 -79
h53q151 0 221 74.5t70 237.5v1167v40h40h166h40v-40l-1 -871q0 -61 14.5 -97.5t40.5 -50.5t69 -14h37q11 0 18 -42t7 -81v-11q0 -41 -6.5 -83.5t-18.5 -42.5z" />
    <glyph glyph-name="uni06CA.fina" unicode="&#x6ca;" horiz-adv-x="916" 
d="M438 1030l168 169l169 -169q-6 -6 -12 -13q-13 -13 -70 -69.5t-87 -86.5zM76 1030l169 169l168 -169l-168 -169zM921 0h-102q-14 -220 -175.5 -343.5t-441.5 -123.5h-74h-40v40v176v40h40h68q342 0 371 211h-119q-188 0 -288 97.5t-100 281.5q0 90 24.5 166.5t72 135
t122 91.5t168.5 33q175 0 274 -114t99 -303v-128h101q11 0 18 -42t7 -81v-11q0 -41 -6.5 -83.5t-18.5 -42.5zM307 383q0 -66 31.5 -94.5t108.5 -28.5h124v129q0 164 -128 164q-136 0 -136 -170z" />
    <glyph glyph-name="uni06CE.init" unicode="&#x6ce;" horiz-adv-x="757" 
d="M469 826l-193 324l-9 15h18h124h6l3 -5l131 -225l132 225l3 5h6h124h18l-9 -15l-194 -324l-3 -5h-6h-142h-6zM281 -331l168 169l169 -169q-6 -6 -12 -13q-13 -13 -70 -69.5t-87 -86.5zM-81 -331l169 169l168 -169l-168 -169zM-5 260h283q94 0 128 30t34 123v294v40h40
h174h40v-40v-295q0 -200 -106.5 -306t-308.5 -106h-284q-12 0 -18.5 42.5t-6.5 83.5v11q0 39 7 81t18 42z" />
    <glyph glyph-name="uni06CE.medi" unicode="&#x6ce;" horiz-adv-x="877" 
d="M469 826l-193 324l-9 15h18h124h6l3 -5l131 -225l132 225l3 5h6h124h18l-9 -15l-194 -324l-3 -5h-6h-142h-6zM281 -331l168 169l169 -169q-6 -6 -12 -13q-13 -13 -70 -69.5t-87 -86.5zM-81 -331l169 169l168 -169l-168 -169zM882 0h-21q-194 0 -290 112
q-112 -112 -335 -112h-241q-12 0 -18.5 42.5t-6.5 83.5v11q0 39 7 81t18 42h246q114 0 157.5 36t43.5 119v258v40h40h171h40v-40v-258q0 -87 34.5 -121t132.5 -34h22q11 0 18 -42t7 -81v-11q0 -41 -6.5 -83.5t-18.5 -42.5z" />
    <glyph glyph-name="uni06CE.fina" unicode="&#x6ce;" horiz-adv-x="1495" 
d="M544 513l-193 324l-9 15h18h124h6l3 -5l131 -225l132 225l3 5h6h124h18l-9 -15l-194 -324l-3 -5h-6h-142h-6zM1386 0h-14v-39q0 -200 -153.5 -306t-435.5 -106h-96q-308 0 -467.5 150t-159.5 440v341v40h40l175 -1h40v-40v-339q0 -170 89.5 -250.5t282.5 -80.5h96
q76 0 134 7.5t105 25t72 49.5t25 77v32h-213q-46 0 -71 27t-42 91q-23 82 -15 112t59 30h549q11 0 18 -42t7 -81v-11q0 -41 -6.5 -83.5t-18.5 -42.5zM1509.6 260q6.85254 0 10.5635 -42t3.71094 -81v-11q0 -41 -3.71094 -83.5t-10.5635 -42.5h-148.455
q-6.85254 0 -10.5635 42.5q-3.71191 42.5 -3.71191 83.5v11q0 39 3.71191 81q3.71094 42 10.5635 42h148.455z" />
    <glyph glyph-name="uni06D5.fina" unicode="&#x6d5;" horiz-adv-x="1060" 
d="M1019 0q-121 0 -213 47.5t-139 139.5h-154q-224 0 -338.5 85t-114.5 225q0 159 121.5 255t355.5 139l28 4l-4 29l-4 38l38 7l158 25l41 6l5 -41l68 -572q13 -77 48 -102t115 -25h35q11 0 18 -42t7 -81v-11q0 -41 -6.5 -83.5t-18.5 -42.5h-46zM619 440l-25 200l-17 -2
q-88 -13 -151.5 -35t-92.5 -46t-29 -47q0 -33 42.5 -51.5t151.5 -18.5h121z" />
    <glyph glyph-name="uniFB56" unicode="&#x67e;" horiz-adv-x="1885" arabic-form="isolated" 
d="M535 260h825q110 0 160.5 52.5t50.5 170.5v197v40h40h174h40v-40v-194q0 -237 -119 -361.5t-349 -124.5h-819q-231 0 -354.5 123.5t-123.5 358.5v201v40h40h174h40v-40v-200q0 -117 52.5 -170t168.5 -53zM782 -541l161 161l160 -161l-160 -159zM964 -294l160 159
l161 -159l-161 -161zM600 -294l161 159l160 -159l-160 -161z" />
    <glyph glyph-name="uniFB57" unicode="&#x67e;" horiz-adv-x="2016" arabic-form="final" 
d="M782 -541l161 161l160 -161l-160 -159zM964 -294l160 159l161 -159l-161 -161zM600 -294l161 159l160 -159l-160 -161zM2022 0h-21q-193 0 -290 111q-55 -58 -138.5 -84.5t-215.5 -26.5h-825q-230 0 -351 123.5t-121 358.5v201v40h40h175h40v-40v-200q0 -117 52.5 -170
t167.5 -53h824q130 0 176.5 33.5t46.5 121.5v258v40h40h171h40v-40v-258q0 -87 34.5 -121t132.5 -34h22q11 0 18 -42t7 -81v-11q0 -41 -6.5 -83.5t-18.5 -42.5z" />
    <glyph glyph-name="uniFB58" unicode="&#x67e;" horiz-adv-x="757" arabic-form="initial" 
d="M111 -541l161 161l160 -161l-160 -159zM293 -294l160 159l161 -159l-161 -161zM-71 -294l161 159l160 -159l-160 -161zM-5 260h283q94 0 128 30t34 123v294v40h40h174h40v-40v-295q0 -200 -106.5 -306t-308.5 -106h-284q-12 0 -18.5 42.5t-6.5 83.5v11q0 39 7 81t18 42z
" />
    <glyph glyph-name="uniFB59" unicode="&#x67e;" horiz-adv-x="877" arabic-form="medial" 
d="M111 -541l161 161l160 -161l-160 -159zM293 -294l160 159l161 -159l-161 -161zM-71 -294l161 159l160 -159l-160 -161zM882 0h-21q-194 0 -290 112q-112 -112 -335 -112h-241q-12 0 -18.5 42.5t-6.5 83.5v11q0 39 7 81t18 42h246q114 0 157.5 36t43.5 119v258v40h40h171
h40v-40v-258q0 -87 34.5 -121t132.5 -34h22q11 0 18 -42t7 -81v-11q0 -41 -6.5 -83.5t-18.5 -42.5z" />
    <glyph glyph-name="uniFB6B" unicode="&#x6a4;" horiz-adv-x="2044" arabic-form="final" 
d="M1370 1349l161 159l160 -159l-160 -161zM1552 1102l160 161l161 -161l-161 -159zM1188 1102l161 161l160 -161l-160 -159zM2050 0h-136q-57 0 -116 7.5t-123 25t-117 43.5q-54 -26 -113 -43.5t-119 -25t-125 -7.5h-667q-230 0 -351 123.5t-121 358.5v201v40h40h175h40
v-40v-200q0 -117 52.5 -170t168.5 -53h692q-62 94 -62 211q0 166 114 280.5t279 114.5q164 0 278 -113.5t114 -280.5q0 -118 -61 -212h158q11 0 18 -42t7 -81v-11q0 -41 -6.5 -83.5t-18.5 -42.5zM1705 470q0 59 -41 100t-104 41q-65 0 -105.5 -39.5t-40.5 -101.5
q0 -57 43.5 -99t102.5 -42t102 41.5t43 99.5z" />
    <glyph glyph-name="uniFB6C" unicode="&#x6a4;" horiz-adv-x="918" arabic-form="initial" 
d="M305 1525l161 159l160 -159l-160 -161zM487 1278l160 161l161 -161l-161 -159zM123 1278l161 161l160 -161l-160 -159zM-5 260h370q59 0 101 5.5t66 14t38 22.5t18 26.5t6 30.5q-65 -5 -112 -5q-193 0 -294.5 74.5t-101.5 237.5q0 172 101.5 283t278.5 111t274.5 -99.5
t97.5 -266.5v-319q0 -375 -475 -375h-368q-12 0 -18.5 42.5t-6.5 83.5v11q0 39 7 81t18 42zM468 809q-71 0 -104 -32t-33 -100q0 -49 29 -64t130 -15q49 0 105 6v93q0 55 -30 83.5t-97 28.5z" />
    <glyph glyph-name="uniFB6D" unicode="&#x6a4;" horiz-adv-x="1022" arabic-form="medial" 
d="M364 1349l161 159l160 -159l-160 -161zM546 1102l160 161l161 -161l-161 -159zM182 1102l161 161l160 -161l-160 -159zM1027 0h-136q-89 0 -183 18.5t-173 57.5q-155 -76 -357 -76h-183q-12 0 -18.5 42.5t-6.5 83.5v11q0 39 7 81t18 42h212q-62 94 -62 211
q0 166 114 280.5t279 114.5q164 0 278 -113.5t114 -280.5q0 -118 -61 -212h158q11 0 18 -42t7 -81v-11q0 -41 -6.5 -83.5t-18.5 -42.5zM682 470q0 59 -41 100t-104 41q-65 0 -105.5 -39.5t-40.5 -101.5q0 -57 43.5 -99t102.5 -42t102 41.5t43 99.5z" />
    <glyph glyph-name="uniFB7A" unicode="&#x686;" horiz-adv-x="1314" arabic-form="isolated" 
d="M645.019 -231.103l140.708 140.708l139.834 -140.708l-139.834 -138.96zM804.079 -15.2344l139.834 138.961l140.708 -138.961l-140.708 -140.707zM485.957 -15.2344l140.708 138.961l139.834 -138.961l-139.834 -140.707zM810 521l-34 19q-123 67 -222 67
q-56 0 -101 -19t-104 -65l-71 -57l-30 -24l-25 28l-115 129l-27 31l31 26l61 53q97 81 186 121t189 40q151 0 306 -89l189 -109q88 -51 178 -70l32 -7v-32v-182v-35l-35 -5q-92 -12 -173.5 -26t-176 -37t-171.5 -50t-150.5 -65.5t-123.5 -83t-80.5 -104t-30.5 -127.5
q0 -146 116 -216.5t374 -70.5h392h40v-40v-176v-40h-40h-404q-161 0 -292 32t-230 96t-153.5 169t-54.5 243q0 260 191.5 429t558.5 247z" />
    <glyph glyph-name="uniFB7B" unicode="&#x686;" horiz-adv-x="1359" arabic-form="final" 
d="M578.019 -246.103l140.708 140.708l139.834 -140.708l-139.834 -138.96zM737.079 -30.2344l139.834 138.961l140.708 -138.961l-140.708 -140.707zM418.957 -30.2344l140.708 138.961l139.834 -138.961l-139.834 -140.707zM1364 0h-52q-105 0 -192 30t-149.5 95.5
t-79.5 158.5q-579 -133 -579 -436q0 -146 116 -216.5t374 -70.5h392h40v-40v-176v-40h-40h-404q-161 0 -292 32t-230 96t-153.5 169t-54.5 243q0 260 192.5 429.5t557.5 246.5l-34 19q-123 67 -222 67q-56 0 -101 -19t-104 -65l-71 -57l-30 -24l-25 28l-115 129l-27 31
l31 26l61 53q97 81 186 121t189 40q151 0 306 -89l189 -109q88 -51 178 -70l32 -7v-32v-182v-35l-35 -5q-52 -7 -99 -14q25 -67 194 -67h51q11 0 18 -42t7 -81v-11q0 -41 -6.5 -83.5t-18.5 -42.5z" />
    <glyph glyph-name="uniFB7C" unicode="&#x686;" horiz-adv-x="1302" arabic-form="initial" 
d="M402 -541l161 161l160 -161l-160 -159zM584 -294l160 159l161 -159l-161 -161zM220 -294l161 159l160 -159l-160 -161zM-5 260h325q198 0 368 88l221 104l-134 74q-120 67 -222 67q-56 0 -101 -19t-104 -65l-71 -57l-30 -24l-25 28l-115 129l-27 31l31 26l61 53
q97 81 186 121t189 40q151 0 306 -89l189 -109q88 -51 178 -70l32 -7v-32v-180v-25l-22 -11l-417 -210q-224 -123 -491 -123h-327q-12 0 -18.5 42.5t-6.5 83.5v11q0 39 7 81t18 42z" />
    <glyph glyph-name="uniFB7D" unicode="&#x686;" horiz-adv-x="1349" arabic-form="medial" 
d="M402 -541l161 161l160 -161l-160 -159zM584 -294l160 159l161 -159l-161 -161zM220 -294l161 159l160 -159l-160 -161zM1354 0h-118q-217 0 -336 169l-87 -46q-224 -123 -491 -123h-327q-12 0 -18.5 42.5t-6.5 83.5v11q0 39 7 81t18 42h325q201 0 368 88l221 104l-134 74
q-120 67 -222 67q-56 0 -101 -19t-104 -65l-71 -57l-30 -24l-25 28l-115 129l-27 31l31 26l61 53q97 81 186 121t189 40q151 0 306 -89l189 -109q88 -51 178 -70l32 -7v-32v-180v-25l-23 -11l-106 -51q45 -22 110 -22h121q11 0 18 -42t7 -81v-11q0 -41 -6.5 -83.5
t-18.5 -42.5z" />
    <glyph glyph-name="uniFB8A" unicode="&#x698;" horiz-adv-x="824" arabic-form="isolated" 
d="M311 1231l161 159l160 -159l-160 -161zM493 984l160 161l161 -161l-161 -159zM129 984l161 161l160 -161l-160 -159zM84 -214q358 0 358 325v534v40h40l174 1h40v-40v-535q0 -272 -159 -424.5t-451 -154.5l-71 -1l-41 -1v41v175v40h40h70z" />
    <glyph glyph-name="uniFB8B" unicode="&#x698;" horiz-adv-x="883" arabic-form="final" 
d="M311 1231l161 159l160 -159l-160 -161zM493 984l160 161l161 -161l-161 -159zM129 984l161 161l160 -161l-160 -159zM888 0h-16q-110 0 -178 35q-22 -237 -179.5 -367.5t-427.5 -134.5l-72 -1l-41 -1v41v175v40h40h70q358 0 358 325v534v40h40h175h40v-40v-223
q0 -86 40.5 -124.5t134.5 -38.5h16q11 0 18 -42t7 -81v-11q0 -41 -6.5 -83.5t-18.5 -42.5z" />
    <glyph glyph-name="uniFB8E" unicode="&#x6a9;" horiz-adv-x="1855" arabic-form="isolated" 
d="M1270 1016l268 -312q91 -106 134 -187.5t43 -162.5q0 -171 -120 -262.5t-338 -91.5h-725q-230 0 -351 123.5t-121 358.5v201v40h40h175h40v-40v-200q0 -117 52.5 -170t167.5 -53h724q210 0 210 94q0 14 -26 57t-76 100l-314 365q-66 76 -66 162q1 72 39.5 122.5
t107.5 73.5l636 208v-55v-179v-29z" />
    <glyph glyph-name="uniFB8F" unicode="&#x6a9;" horiz-adv-x="2020" arabic-form="final" 
d="M2027 0h-15q-66 0 -126.5 19.5t-114.5 56.5t-102 92q-53 -86 -156.5 -127t-255.5 -41h-725q-230 0 -351 123.5t-121 358.5v201v40h40h175h40v-40v-200q0 -117 52 -170t168 -53h724q210 0 210 94q0 14 -26 57t-76 100l-314 365q-66 76 -66 162q1 72 39.5 122.5t107.5 73.5
l636 208v-55v-179v-29l-500 -163l531 -615q62 -71 114 -106t88 -35h24q11 0 18 -42t7 -81v-11q0 -41 -6.5 -83.5t-18.5 -42.5z" />
    <glyph glyph-name="uniFB90" unicode="&#x6a9;" horiz-adv-x="919" arabic-form="initial" 
d="M-5 260h348q210 0 210 94q0 8 -9.5 27.5t-33.5 54.5t-59 75l-314 365q-66 76 -66 162q1 72 39.5 123t107.5 73l636 208v-55v-179v-29l-500 -163l268 -312q91 -105 134 -187t43 -163q0 -171 -120 -262.5t-338 -91.5h-346q-12 0 -18.5 42.5t-6.5 83.5v11q0 39 7 81t18 42z
" />
    <glyph glyph-name="uniFB91" unicode="&#x6a9;" horiz-adv-x="1106" arabic-form="medial" 
d="M1111 0h-15q-196 0 -343 168q-102 -168 -412 -168h-347q-12 0 -18.5 42.5t-6.5 83.5v11q0 39 7 81t18 42h349q210 0 210 94q0 8 -9.5 27.5t-33.5 54.5t-59 75l-314 365q-66 76 -66 162q1 72 39.5 122.5t107.5 73.5l636 208v-55v-179v-29l-500 -163l531 -615
q32 -36 62 -64t55 -44.5t46.5 -24.5t38.5 -8h24q11 0 18 -42t7 -81v-11q0 -41 -6.5 -83.5t-18.5 -42.5z" />
    <glyph glyph-name="uniFB92" unicode="&#x6af;" horiz-adv-x="1855" arabic-form="isolated" 
d="M1764.32 1535.46l-629.128 -210.779v128.394l629.128 210.779v-128.394zM1270 1016l268 -312q91 -106 134 -187.5t43 -162.5q0 -171 -120 -262.5t-338 -91.5h-725q-230 0 -351 123.5t-121 358.5v201v40h40h175h40v-40v-200q0 -117 52.5 -170t167.5 -53h724q210 0 210 94
q0 14 -26 57t-76 100l-314 365q-66 76 -66 162q1 72 39.5 122.5t107.5 73.5l636 208v-55v-179v-29z" />
    <glyph glyph-name="uniFB93" unicode="&#x6af;" horiz-adv-x="2020" arabic-form="final" 
d="M1764.32 1535.46l-629.128 -210.779v128.394l629.128 210.779v-128.394zM2027 0h-15q-66 0 -126.5 19.5t-114.5 56.5t-102 92q-53 -86 -156.5 -127t-255.5 -41h-725q-230 0 -351 123.5t-121 358.5v201v40h40h175h40v-40v-200q0 -117 52 -170t168 -53h724q210 0 210 94
q0 14 -26 57t-76 100l-314 365q-66 76 -66 162q1 72 39.5 122.5t107.5 73.5l636 208v-55v-179v-29l-500 -163l531 -615q62 -71 114 -106t88 -35h24q11 0 18 -42t7 -81v-11q0 -41 -6.5 -83.5t-18.5 -42.5z" />
    <glyph glyph-name="uniFB94" unicode="&#x6af;" horiz-adv-x="919" arabic-form="initial" 
d="M-5 260h348q210 0 210 94q0 8 -9.5 27.5t-33.5 54.5t-59 75l-314 365q-66 76 -66 162q1 72 39.5 123t107.5 73l636 208v-55v-179v-29l-500 -163l268 -312q91 -105 134 -187t43 -163q0 -171 -120 -262.5t-338 -91.5h-346q-12 0 -18.5 42.5t-6.5 83.5v11q0 39 7 81t18 42z
M851.317 1535.46l-629.128 -210.779v128.394l629.128 210.779v-128.394z" />
    <glyph glyph-name="uniFB95" unicode="&#x6af;" horiz-adv-x="1106" arabic-form="medial" 
d="M851.317 1535.46l-629.128 -210.779v128.394l629.128 210.779v-128.394zM1111 0h-15q-196 0 -343 168q-102 -168 -412 -168h-347q-12 0 -18.5 42.5t-6.5 83.5v11q0 39 7 81t18 42h349q210 0 210 94q0 8 -9.5 27.5t-33.5 54.5t-59 75l-314 365q-66 76 -66 162
q1 72 39.5 122.5t107.5 73.5l636 208v-55v-179v-29l-500 -163l531 -615q32 -36 62 -64t55 -44.5t46.5 -24.5t38.5 -8h24q11 0 18 -42t7 -81v-11q0 -41 -6.5 -83.5t-18.5 -42.5z" />
    <glyph glyph-name="uniFB9E" unicode="&#x6ba;" horiz-adv-x="1437" arabic-form="isolated" 
d="M1377 671v-579q-6 -267 -169 -404t-464 -137h-51q-309 0 -471 149.5t-162 440.5v341v40h40h174h40v-40v-340q0 -170 91.5 -251t287.5 -81h51q197 0 287 68.5t90 208.5v584v40h40h176h40v-40z" />
    <glyph glyph-name="uniFB9F" unicode="&#x6ba;" horiz-adv-x="1590" arabic-form="final" 
d="M1595 0h-38q-118 0 -195 37q-16 -242 -173 -364t-445 -122h-51q-309 0 -471 149.5t-162 440.5v341v40h40h174h40v-40v-340q0 -170 91.5 -251t287.5 -81h51q197 0 287 68.5t90 208.5v584v40h40h176h40v-40v-234q0 -99 42.5 -138t146.5 -39h29q11 0 18 -42t7 -81v-11
q0 -41 -6.5 -83.5t-18.5 -42.5z" />
    <glyph glyph-name="uniFBAC" unicode="&#x6be;" horiz-adv-x="1309" arabic-form="initial" 
d="M-5 260h202q-61 87 -61 211q0 172 108.5 286t265.5 114q77 0 140 -25l69 102l24 35l34 -27q237 -190 354.5 -351t117.5 -305q0 -151 -95 -253.5t-238 -102.5q-206 0 -448 109q-198 -53 -378 -53h-95q-12 0 -18.5 42.5t-6.5 83.5v11q0 39 7 81t18 42zM489 310
q72 32 121 88t49 112q0 51 -35.5 90t-84.5 39q-70 0 -115.5 -48t-45.5 -122q0 -46 31.5 -92.5t79.5 -66.5zM855 535q2 -15 2 -30q0 -153 -141 -280q143 -35 192 -35q42 0 72.5 34.5t30.5 70.5q0 69 -156 240z" />
    <glyph glyph-name="uniFBAD" unicode="&#x6be;" horiz-adv-x="991" arabic-form="medial" 
d="M997 0h-151q41 -84 41 -174q0 -131 -80 -222t-213 -91q-78 0 -145.5 32t-113.5 82.5t-80 116t-52 130t-22 126.5h-186q-12 0 -18.5 42.5t-6.5 83.5v11q0 39 7 81t18 42h187q54 592 392 592q65 0 119 -23.5t89.5 -62t60 -88.5t35.5 -102t11 -103q0 -111 -44 -213h152
q11 0 18 -42t7 -81v-11q0 -41 -6.5 -83.5t-18.5 -42.5zM653 -155q0 83 -40 119t-131 36h-62q11 -95 60 -167t110 -72q33 0 48 19t15 65zM652 447q0 71 -24.5 112.5t-61.5 41.5q-33 0 -62.5 -49t-50 -124.5t-31.5 -167.5l76 1q81 1 117.5 43.5t36.5 142.5z" />
    <glyph glyph-name="uniFBDA" unicode="&#x6c6;" horiz-adv-x="916" arabic-form="final" 
d="M343 934l-193 324l-9 15h18h124h6l3 -5l131 -225l132 225l3 5h6h124h18l-9 -15l-194 -324l-3 -5h-6h-142h-6zM921 0h-102q-14 -220 -175.5 -343.5t-441.5 -123.5h-74h-40v40v176v40h40h68q342 0 371 211h-119q-188 0 -288 97.5t-100 281.5q0 90 24.5 166.5t72 135
t122 91.5t168.5 33q175 0 274 -114t99 -303v-128h101q11 0 18 -42t7 -81v-11q0 -41 -6.5 -83.5t-18.5 -42.5zM307 383q0 -66 31.5 -94.5t108.5 -28.5h124v129q0 164 -128 164q-136 0 -136 -170z" />
    <glyph glyph-name="uniFBE8" unicode="&#x649;" horiz-adv-x="757" arabic-form="initial" 
d="M-5 260h283q94 0 128 30t34 123v294v40h40h174h40v-40v-295q0 -200 -106.5 -306t-308.5 -106h-284q-12 0 -18.5 42.5t-6.5 83.5v11q0 39 7 81t18 42z" />
    <glyph glyph-name="uniFBE9" unicode="&#x649;" horiz-adv-x="877" arabic-form="medial" 
d="M882 0h-21q-194 0 -290 112q-112 -112 -335 -112h-241q-12 0 -18.5 42.5t-6.5 83.5v11q0 39 7 81t18 42h246q114 0 157.5 36t43.5 119v258v40h40h171h40v-40v-258q0 -87 34.5 -121t132.5 -34h22q11 0 18 -42t7 -81v-11q0 -41 -6.5 -83.5t-18.5 -42.5z" />
    <glyph glyph-name="uniFBFC" unicode="&#x6cc;" horiz-adv-x="1442" arabic-form="isolated" 
d="M686 332q0 234 114.5 364t309.5 130h231h40v-40l1 -175v-40h-40h-237q-81 0 -122 -55.5t-44 -183.5v-23h120q152 0 237 -66t85 -194v-29q0 -232 -155.5 -349.5t-450.5 -117.5h-84q-308 0 -469.5 150.5t-161.5 441.5v410v40h40h172h40v-40v-410q0 -170 91.5 -251.5
t287.5 -81.5h84q354 0 354 190v12q0 22 -12.5 31.5t-57.5 9.5h-158q-99 0 -157 54t-58 151v72z" />
    <glyph glyph-name="uniFBFD" unicode="&#x6cc;" horiz-adv-x="1495" arabic-form="final" 
d="M1386 0h-14v-39q0 -200 -153.5 -306t-435.5 -106h-96q-308 0 -467.5 150t-159.5 440v341v40h40l175 -1h40v-40v-339q0 -170 89.5 -250.5t282.5 -80.5h96q76 0 134 7.5t105 25t72 49.5t25 77v32h-213q-46 0 -71 27t-42 91q-23 82 -15 112t59 30h549q11 0 18 -42t7 -81v-11
q0 -41 -6.5 -83.5t-18.5 -42.5zM1509.6 260q6.85254 0 10.5635 -42t3.71094 -81v-11q0 -41 -3.71094 -83.5t-10.5635 -42.5h-148.455q-6.85254 0 -10.5635 42.5q-3.71191 42.5 -3.71191 83.5v11q0 39 3.71191 81q3.71094 42 10.5635 42h148.455z" />
    <glyph glyph-name="uniFBFE" unicode="&#x6cc;" horiz-adv-x="757" arabic-form="initial" 
d="M281 -331l168 169l169 -169q-6 -6 -12 -13q-13 -13 -70 -69.5t-87 -86.5zM-81 -331l169 169l168 -169l-168 -169zM-5 260h283q94 0 128 30t34 123v294v40h40h174h40v-40v-295q0 -200 -106.5 -306t-308.5 -106h-284q-12 0 -18.5 42.5t-6.5 83.5v11q0 39 7 81t18 42z" />
    <glyph glyph-name="uniFBFF" unicode="&#x6cc;" horiz-adv-x="877" arabic-form="medial" 
d="M281 -331l168 169l169 -169q-6 -6 -12 -13q-13 -13 -70 -69.5t-87 -86.5zM-81 -331l169 169l168 -169l-168 -169zM882 0h-21q-194 0 -290 112q-112 -112 -335 -112h-241q-12 0 -18.5 42.5t-6.5 83.5v11q0 39 7 81t18 42h246q114 0 157.5 36t43.5 119v258v40h40h171h40
v-40v-258q0 -87 34.5 -121t132.5 -34h22q11 0 18 -42t7 -81v-11q0 -41 -6.5 -83.5t-18.5 -42.5z" />
    <glyph glyph-name="uniFDFC" unicode="&#xfdfc;" horiz-adv-x="3154" arabic-form="isolated" 
d="M1919 -283l168 169l169 -169q-6 -6 -12 -13q-13 -13 -70 -69.5t-87 -86.5zM1557 -283l169 169l168 -169l-168 -169zM334 142q0 -170 79 -249t248 -79h53q151 0 221 74.5t70 237.5v1167v40h40h166h40v-40l-1 -1171q0 -278 -138.5 -423.5t-404.5 -145.5h-46
q-285 0 -433 150t-148 438v341v40h40h174h40v-40v-340zM1856 0h-46q-179 0 -272.5 107.5t-93.5 307.5v878v40h40h166h40v-40v-879q0 -84 29.5 -119t93.5 -35h43q11 0 18 -42t7 -81v-11q0 -41 -6.5 -83.5t-18.5 -42.5zM1831 260h283q94 0 128 30t34 123v294v40h40h174h40v-40
v-295q0 -200 -106.5 -306t-308.5 -106h-284q-12 0 -18.5 42.5t-6.5 83.5v11q0 39 7 81t18 42zM2446 -214q358 0 358 325v534v40h40l174 1h40v-40v-535q0 -272 -159 -424.5t-451 -154.5l-71 -1l-41 -1v41v175v40h40h70z" />
    <glyph glyph-name="uniFE80" unicode="&#x621;" horiz-adv-x="807" arabic-form="isolated" 
d="M445 851q102 0 187 -39l23 -10v-26v-147v-56l-53 18q-70 24 -148 24q-139 0 -139 -101q0 -59 53 -87.5t130 -28.5q64 0 151 45l43 22l13 -47l46 -154l11 -35l-35 -13l-545 -208l-36 -14l-15 35l-59 139l-16 39l39 14l116 44q-137 82 -137 259q0 144 103.5 235.5
t267.5 91.5z" />
    <glyph glyph-name="uniFE81" unicode="&#x622;" horiz-adv-x="527" arabic-form="isolated" 
d="M199 1137.52h166h40v-34.0186v-1065.63v-34.0186h-40h-166h-40v34.0186v1065.63v34.0186h40zM181 1511h388l2 -188h-370q-57 0 -90 -32.5t-60 -94.5l-151 75q30 111 100 175.5t181 64.5z" />
    <glyph glyph-name="uniFE82" unicode="&#x622;" horiz-adv-x="516" arabic-form="final" 
d="M181 1511h388l2 -188h-370q-57 0 -90 -32.5t-60 -94.5l-151 75q30 111 100 175.5t181 64.5zM522 0h-45q-179 0 -272.5 107.5t-93.5 307.5v678v40h40h169h40v-40v-679q0 -85 28.5 -119.5t91.5 -34.5h42q11 0 18 -42t7 -81v-11q0 -41 -6.5 -83.5t-18.5 -42.5z" />
    <glyph glyph-name="uniFE83" unicode="&#x623;" horiz-adv-x="459" arabic-form="isolated" 
d="M164 1137.52h166h40v-34.0186v-1065.63v-34.0186h-40h-166h-40v34.0186v1065.63v34.0186h40zM112 1342q-31 30 -45 68t-14 90q0 99 65.5 158.5t165.5 59.5q25 0 49.5 -5t47 -14.5t44.5 -22.5l5 -3v-6l1 -119v-18l-15 9q-20 13 -39.5 20.5t-39 11.5t-39.5 4
q-110 0 -110 -88q0 -20 8 -35.5t26 -29t48 -24.5q10 -4 16 -4q2 0 6 1q25 5 71 14t62 13l12 2v-12v-116v-8l-8 -2l-397 -95l-12 -3v12v113v8l8 2z" />
    <glyph glyph-name="uniFE84" unicode="&#x623;" horiz-adv-x="516" arabic-form="final" 
d="M112 1342q-31 30 -45 68t-14 90q0 99 65.5 158.5t165.5 59.5q25 0 49.5 -5t47 -14.5t44.5 -22.5l5 -3v-6l1 -119v-18l-15 9q-20 13 -39.5 20.5t-39 11.5t-39.5 4q-110 0 -110 -88q0 -20 8 -35.5t26 -29t48 -24.5q10 -4 16 -4q2 0 6 1q25 5 71 14t62 13l12 2v-12v-116v-8
l-8 -2l-397 -95l-12 -3v12v113v8l8 2zM522 0h-45q-179 0 -272.5 107.5t-93.5 307.5v678v40h40h169h40v-40v-679q0 -85 28.5 -119.5t91.5 -34.5h42q11 0 18 -42t7 -81v-11q0 -41 -6.5 -83.5t-18.5 -42.5z" />
    <glyph glyph-name="uniFE85" unicode="&#x624;" horiz-adv-x="880" arabic-form="isolated" 
d="M306 1021q-31 30 -45 68t-14 90q0 99 65.5 158.5t165.5 59.5q25 0 49.5 -5t47 -14.5t44.5 -22.5l5 -3v-6l1 -119v-18l-15 9q-20 13 -39.5 20.5t-39 11.5t-39.5 4q-110 0 -110 -88q0 -20 8 -35.5t26 -29t48 -24.5q10 -4 16 -4q2 0 6 1q25 5 71 14t62 13l12 2v-12v-116v-8
l-8 -2l-397 -95l-12 -3v12v113v8l8 2zM820 388v-348q0 -236 -163 -371.5t-455 -135.5h-74h-40v40v176v40h40h68q342 0 371 211h-119q-188 0 -288 97.5t-100 281.5q0 90 24.5 166.5t72 135t122 91.5t168.5 33q175 0 274 -114.5t99 -302.5zM307 383q0 -66 31.5 -94.5
t108.5 -28.5h124v129q0 164 -128 164q-136 0 -136 -170z" />
    <glyph glyph-name="uniFE86" unicode="&#x624;" horiz-adv-x="916" arabic-form="final" 
d="M306 1021q-31 30 -45 68t-14 90q0 99 65.5 158.5t165.5 59.5q25 0 49.5 -5t47 -14.5t44.5 -22.5l5 -3v-6l1 -119v-18l-15 9q-20 13 -39.5 20.5t-39 11.5t-39.5 4q-110 0 -110 -88q0 -20 8 -35.5t26 -29t48 -24.5q10 -4 16 -4q2 0 6 1q25 5 71 14t62 13l12 2v-12v-116v-8
l-8 -2l-397 -95l-12 -3v12v113v8l8 2zM921 0h-102q-14 -220 -175.5 -343.5t-441.5 -123.5h-74h-40v40v176v40h40h68q342 0 371 211h-119q-188 0 -288 97.5t-100 281.5q0 90 24.5 166.5t72 135t122 91.5t168.5 33q175 0 274 -114t99 -303v-128h101q11 0 18 -42t7 -81v-11
q0 -41 -6.5 -83.5t-18.5 -42.5zM307 383q0 -66 31.5 -94.5t108.5 -28.5h124v129q0 164 -128 164q-136 0 -136 -170z" />
    <glyph glyph-name="uniFE87" unicode="&#x625;" horiz-adv-x="459" arabic-form="isolated" 
d="M106 -435q-31 30 -45 68t-14 90q0 99 65.5 158.5t165.5 59.5q25 0 49.5 -5t47 -14.5t44.5 -22.5l5 -3v-6l1 -119v-18l-15 9q-20 13 -39.5 20.5t-39 11.5t-39.5 4q-110 0 -110 -88q0 -20 8 -35.5t26 -29t48 -24.5q10 -4 16 -4q2 0 6 1q25 5 71 14t62 13l12 2v-12v-116v-8
l-8 -2l-397 -95l-12 -3v12v113v8l8 2zM150 1334h166h40v-40v-1253v-40h-40h-166h-40v40v1253v40h40z" />
    <glyph glyph-name="uniFE88" unicode="&#x625;" horiz-adv-x="516" arabic-form="final" 
d="M146 -435q-31 30 -45 68t-14 90q0 99 65.5 158.5t165.5 59.5q25 0 49.5 -5t47 -14.5t44.5 -22.5l5 -3v-6l1 -119v-18l-15 9q-20 13 -39.5 20.5t-39 11.5t-39.5 4q-110 0 -110 -88q0 -20 8 -35.5t26 -29t48 -24.5q10 -4 16 -4q2 0 6 1q25 5 71 14t62 13l12 2v-12v-116v-8
l-8 -2l-397 -95l-12 -3v12v113v8l8 2zM522 0h-46q-179 0 -272.5 107.5t-93.5 307.5v878v40h40h166h40v-40v-879q0 -84 29.5 -119t93.5 -35h43q11 0 18 -42t7 -81v-11q0 -41 -6.5 -83.5t-18.5 -42.5z" />
    <glyph glyph-name="uniFE89" unicode="&#x626;" horiz-adv-x="1442" arabic-form="isolated" 
d="M403 909q-31 30 -45 68t-14 90q0 99 65.5 158.5t165.5 59.5q25 0 49.5 -5t47 -14.5t44.5 -22.5l5 -3v-6l1 -119v-18l-15 9q-20 13 -39.5 20.5t-39 11.5t-39.5 4q-110 0 -110 -88q0 -20 8 -35.5t26 -29t48 -24.5q10 -4 16 -4q2 0 6 1q25 5 71 14t62 13l12 2v-12v-116v-8
l-8 -2l-397 -95l-12 -3v12v113v8l8 2zM686 332q0 234 114.5 364t309.5 130h231h40v-40l1 -175v-40h-40h-237q-81 0 -122 -55.5t-44 -183.5v-23h120q152 0 237 -66t85 -194v-29q0 -232 -155.5 -349.5t-450.5 -117.5h-84q-308 0 -469.5 150.5t-161.5 441.5v410v40h40h172h40
v-40v-410q0 -170 91.5 -251.5t287.5 -81.5h84q354 0 354 190v12q0 22 -12.5 31.5t-57.5 9.5h-158q-99 0 -157 54t-58 151v72z" />
    <glyph glyph-name="uniFE8A" unicode="&#x626;" horiz-adv-x="1495" arabic-form="final" 
d="M1386 0h-14v-39q0 -200 -153.5 -306t-435.5 -106h-96q-308 0 -467.5 150t-159.5 440v341v40h40l175 -1h40v-40v-339q0 -170 89.5 -250.5t282.5 -80.5h96q76 0 134 7.5t105 25t72 49.5t25 77v32h-213q-46 0 -71 27t-42 91q-23 82 -15 112t59 30h549q11 0 18 -42t7 -81v-11
q0 -41 -6.5 -83.5t-18.5 -42.5zM1509.6 260q6.85254 0 10.5635 -42t3.71094 -81v-11q0 -41 -3.71094 -83.5t-10.5635 -42.5h-148.455q-6.85254 0 -10.5635 42.5q-3.71191 42.5 -3.71191 83.5v11q0 39 3.71191 81q3.71094 42 10.5635 42h148.455zM495 640q-31 30 -45 68
t-14 90q0 99 65.5 158.5t165.5 59.5q25 0 49.5 -5t47 -14.5t44.5 -22.5l5 -3v-6l1 -119v-18l-15 9q-20 13 -39.5 20.5t-39 11.5t-39.5 4q-110 0 -110 -88q0 -20 8 -35.5t26 -29t48 -24.5q10 -4 16 -4q2 0 6 1q25 5 71 14t62 13l12 2v-12v-116v-8l-8 -2l-397 -95l-12 -3v12
v113v8l8 2z" />
    <glyph glyph-name="uniFE8B" unicode="&#x626;" horiz-adv-x="677" arabic-form="initial" 
d="M256 964q-31 30 -45 68t-14 90q0 99 65.5 158.5t165.5 59.5q25 0 49.5 -5t47 -14.5t44.5 -22.5l5 -3v-6l1 -119v-18l-15 9q-20 13 -39.5 20.5t-39 11.5t-39.5 4q-110 0 -110 -88q0 -20 8 -35.5t26 -29t48 -24.5q10 -4 16 -4q2 0 6 1q25 5 71 14t62 13l12 2v-12v-116v-8
l-8 -2l-397 -95l-12 -3v12v113v8l8 2zM-5 260h203q94 0 128 30t34 123v294v40h40h174h40v-40v-295q0 -200 -107 -306t-310 -106h-202q-12 0 -18.5 42.5t-6.5 83.5v11q0 39 7 81t18 42z" />
    <glyph glyph-name="uniFE8C" unicode="&#x626;" horiz-adv-x="807" arabic-form="medial" 
d="M256 964q-31 30 -45 68t-14 90q0 99 65.5 158.5t165.5 59.5q25 0 49.5 -5t47 -14.5t44.5 -22.5l5 -3v-6l1 -119v-18l-15 9q-20 13 -39.5 20.5t-39 11.5t-39.5 4q-110 0 -110 -88q0 -20 8 -35.5t26 -29t48 -24.5q10 -4 16 -4q2 0 6 1q25 5 71 14t62 13l12 2v-12v-116v-8
l-8 -2l-397 -95l-12 -3v12v113v8l8 2zM811 0h-20q-192 0 -290 113q-114 -113 -335 -113h-171q-12 0 -18.5 42.5t-6.5 83.5v11q0 39 7 81t18 42h176q114 0 157.5 36t43.5 119v258v40h40h171h40v-40v-258q0 -87 34.5 -121t132.5 -34h21q11 0 18 -42t7 -81v-11
q0 -41 -6.5 -83.5t-18.5 -42.5z" />
    <glyph glyph-name="uniFE8D" unicode="&#x627;" horiz-adv-x="459" arabic-form="isolated" 
d="M150 1334h166h40v-40v-1253v-40h-40h-166h-40v40v1253v40h40z" />
    <glyph glyph-name="uniFE8E" unicode="&#x627;" horiz-adv-x="516" arabic-form="final" 
d="M522 0h-46q-179 0 -272.5 107.5t-93.5 307.5v878v40h40h166h40v-40v-879q0 -84 29.5 -119t93.5 -35h43q11 0 18 -42t7 -81v-11q0 -41 -6.5 -83.5t-18.5 -42.5z" />
    <glyph glyph-name="uniFE8F" unicode="&#x628;" horiz-adv-x="1885" arabic-form="isolated" 
d="M535 260h825q110 0 160.5 52.5t50.5 170.5v197v40h40h174h40v-40v-194q0 -237 -119 -361.5t-349 -124.5h-819q-231 0 -354.5 123.5t-123.5 358.5v201v40h40h174h40v-40v-200q0 -117 52.5 -170t168.5 -53zM770 -331l172 172l172 -172l-172 -172z" />
    <glyph glyph-name="uniFE90" unicode="&#x628;" horiz-adv-x="2016" arabic-form="final" 
d="M770 -331l172 172l172 -172l-172 -172zM2022 0h-21q-193 0 -290 111q-55 -58 -138.5 -84.5t-215.5 -26.5h-825q-230 0 -351 123.5t-121 358.5v201v40h40h175h40v-40v-200q0 -117 52.5 -170t167.5 -53h824q130 0 176.5 33.5t46.5 121.5v258v40h40h171h40v-40v-258
q0 -87 34.5 -121t132.5 -34h22q11 0 18 -42t7 -81v-11q0 -41 -6.5 -83.5t-18.5 -42.5z" />
    <glyph glyph-name="uniFE91" unicode="&#x628;" horiz-adv-x="677" arabic-form="initial" 
d="M-5 260h203q94 0 128 30t34 123v294v40h40h174h40v-40v-295q0 -200 -107 -306t-310 -106h-202q-12 0 -18.5 42.5t-6.5 83.5v11q0 39 7 81t18 42zM48 -331l172 172l172 -172l-172 -172z" />
    <glyph glyph-name="uniFE92" unicode="&#x628;" horiz-adv-x="807" arabic-form="medial" 
d="M811 0h-20q-192 0 -290 113q-114 -113 -335 -113h-171q-12 0 -18.5 42.5t-6.5 83.5v11q0 39 7 81t18 42h176q114 0 157.5 36t43.5 119v258v40h40h171h40v-40v-258q0 -87 34.5 -121t132.5 -34h21q11 0 18 -42t7 -81v-11q0 -41 -6.5 -83.5t-18.5 -42.5zM48 -331l172 172
l172 -172l-172 -172z" />
    <glyph glyph-name="uniFE93" unicode="&#x629;" horiz-adv-x="924" arabic-form="isolated" 
d="M475 1227l168 169l169 -169q-6 -6 -12 -13q-13 -13 -70 -69.5t-87 -86.5zM113 1227l169 169l168 -169l-168 -169zM310 359q0 -54 35.5 -78t122.5 -24q86 0 118.5 24t32.5 82q0 31 -40.5 94t-122.5 140q-56 -66 -88.5 -113t-45 -75.5t-12.5 -49.5zM467 0q-181 0 -292.5 91
t-111.5 267q0 87 50 177t170 236l-9 8l-27 26l24 29l109 130l27 31l30 -27q121 -106 197.5 -183t131.5 -151t78 -140t23 -137q0 -175 -110 -266t-290 -91z" />
    <glyph glyph-name="uniFE94" unicode="&#x629;" horiz-adv-x="1060" arabic-form="final" 
d="M575 1238l168 169l169 -169q-6 -6 -12 -13q-13 -13 -70 -69.5t-87 -86.5zM213 1238l169 169l168 -169l-168 -169zM1019 0q-121 0 -213 47.5t-139 139.5h-154q-224 0 -338.5 85t-114.5 225q0 159 121.5 255t355.5 139l28 4l-4 29l-4 38l38 7l158 25l41 6l5 -41l68 -572
q13 -77 48 -102t115 -25h35q11 0 18 -42t7 -81v-11q0 -41 -6.5 -83.5t-18.5 -42.5h-46zM619 440l-25 200l-17 -2q-88 -13 -151.5 -35t-92.5 -46t-29 -47q0 -33 42.5 -51.5t151.5 -18.5h121z" />
    <glyph glyph-name="uniFE95" unicode="&#x62a;" horiz-adv-x="1885" arabic-form="isolated" 
d="M535 260h825q110 0 160.5 52.5t50.5 170.5v197v40h40h174h40v-40v-194q0 -237 -119 -361.5t-349 -124.5h-819q-231 0 -354.5 123.5t-123.5 358.5v201v40h40h174h40v-40v-200q0 -117 52.5 -170t168.5 -53zM955 893l168 169l169 -169q-6 -6 -12 -13q-13 -13 -70 -69.5
t-87 -86.5zM593 893l169 169l168 -169l-168 -169z" />
    <glyph glyph-name="uniFE96" unicode="&#x62a;" horiz-adv-x="2016" arabic-form="final" 
d="M955 893l168 169l169 -169q-6 -6 -12 -13q-13 -13 -70 -69.5t-87 -86.5zM593 893l169 169l168 -169l-168 -169zM2022 0h-21q-193 0 -290 111q-55 -58 -138.5 -84.5t-215.5 -26.5h-825q-230 0 -351 123.5t-121 358.5v201v40h40h175h40v-40v-200q0 -117 52.5 -170
t167.5 -53h824q130 0 176.5 33.5t46.5 121.5v258v40h40h171h40v-40v-258q0 -87 34.5 -121t132.5 -34h22q11 0 18 -42t7 -81v-11q0 -41 -6.5 -83.5t-18.5 -42.5z" />
    <glyph glyph-name="uniFE97" unicode="&#x62a;" horiz-adv-x="757" arabic-form="initial" 
d="M-5 260h283q94 0 128 30t34 123v294v40h40h174h40v-40v-295q0 -200 -106.5 -306t-308.5 -106h-284q-12 0 -18.5 42.5t-6.5 83.5v11q0 39 7 81t18 42zM394 1065l168 169l169 -169q-6 -6 -12 -13q-13 -13 -70 -69.5t-87 -86.5zM32 1065l169 169l168 -169l-168 -169z" />
    <glyph glyph-name="uniFE98" unicode="&#x62a;" horiz-adv-x="877" arabic-form="medial" 
d="M396 1045l168 169l169 -169q-6 -6 -12 -13q-13 -13 -70 -69.5t-87 -86.5zM34 1045l169 169l168 -169l-168 -169zM882 0h-21q-194 0 -290 112q-112 -112 -335 -112h-241q-12 0 -18.5 42.5t-6.5 83.5v11q0 39 7 81t18 42h246q114 0 157.5 36t43.5 119v258v40h40h171h40v-40
v-258q0 -87 34.5 -121t132.5 -34h22q11 0 18 -42t7 -81v-11q0 -41 -6.5 -83.5t-18.5 -42.5z" />
    <glyph glyph-name="uniFE99" unicode="&#x62b;" horiz-adv-x="1885" arabic-form="isolated" 
d="M535 260h825q110 0 160.5 52.5t50.5 170.5v197v40h40h174h40v-40v-194q0 -237 -119 -361.5t-349 -124.5h-819q-231 0 -354.5 123.5t-123.5 358.5v201v40h40h174h40v-40v-200q0 -117 52.5 -170t168.5 -53zM782 1098l161 159l160 -159l-160 -161zM964 851l160 161l161 -161
l-161 -159zM600 851l161 161l160 -161l-160 -159z" />
    <glyph glyph-name="uniFE9A" unicode="&#x62b;" horiz-adv-x="2016" arabic-form="final" 
d="M782 1098l161 159l160 -159l-160 -161zM964 851l160 161l161 -161l-161 -159zM600 851l161 161l160 -161l-160 -159zM2022 0h-21q-193 0 -290 111q-55 -58 -138.5 -84.5t-215.5 -26.5h-825q-230 0 -351 123.5t-121 358.5v201v40h40h175h40v-40v-200q0 -117 52.5 -170
t167.5 -53h824q130 0 176.5 33.5t46.5 121.5v258v40h40h171h40v-40v-258q0 -87 34.5 -121t132.5 -34h22q11 0 18 -42t7 -81v-11q0 -41 -6.5 -83.5t-18.5 -42.5z" />
    <glyph glyph-name="uniFE9B" unicode="&#x62b;" horiz-adv-x="757" arabic-form="initial" 
d="M-5 260h283q94 0 128 30t34 123v294v40h40h174h40v-40v-295q0 -200 -106.5 -306t-308.5 -106h-284q-12 0 -18.5 42.5t-6.5 83.5v11q0 39 7 81t18 42zM225 1278l161 159l160 -159l-160 -161zM407 1031l160 161l161 -161l-161 -159zM43 1031l161 161l160 -161l-160 -159z
" />
    <glyph glyph-name="uniFE9C" unicode="&#x62b;" horiz-adv-x="877" arabic-form="medial" 
d="M247 1243l161 159l160 -159l-160 -161zM429 996l160 161l161 -161l-161 -159zM65 996l161 161l160 -161l-160 -159zM882 0h-21q-194 0 -290 112q-112 -112 -335 -112h-241q-12 0 -18.5 42.5t-6.5 83.5v11q0 39 7 81t18 42h246q114 0 157.5 36t43.5 119v258v40h40h171h40
v-40v-258q0 -87 34.5 -121t132.5 -34h22q11 0 18 -42t7 -81v-11q0 -41 -6.5 -83.5t-18.5 -42.5z" />
    <glyph glyph-name="uniFE9D" unicode="&#x62c;" horiz-adv-x="1314" arabic-form="isolated" 
d="M634 -85l172 172l172 -172l-172 -172zM810 521l-34 19q-123 67 -222 67q-56 0 -101 -19t-104 -65l-71 -57l-30 -24l-25 28l-115 129l-27 31l31 26l61 53q97 81 186 121t189 40q151 0 306 -89l189 -109q88 -51 178 -70l32 -7v-32v-182v-35l-35 -5q-92 -12 -173.5 -26
t-176 -37t-171.5 -50t-150.5 -65.5t-123.5 -83t-80.5 -104t-30.5 -127.5q0 -146 116 -216.5t374 -70.5h392h40v-40v-176v-40h-40h-404q-161 0 -292 32t-230 96t-153.5 169t-54.5 243q0 260 191.5 429t558.5 247z" />
    <glyph glyph-name="uniFE9E" unicode="&#x62c;" horiz-adv-x="1359" arabic-form="final" 
d="M554 -115l172 172l172 -172l-172 -172zM1364 0h-52q-105 0 -192 30t-149.5 95.5t-79.5 158.5q-579 -133 -579 -436q0 -146 116 -216.5t374 -70.5h392h40v-40v-176v-40h-40h-404q-161 0 -292 32t-230 96t-153.5 169t-54.5 243q0 260 192.5 429.5t557.5 246.5l-34 19
q-123 67 -222 67q-56 0 -101 -19t-104 -65l-71 -57l-30 -24l-25 28l-115 129l-27 31l31 26l61 53q97 81 186 121t189 40q151 0 306 -89l189 -109q88 -51 178 -70l32 -7v-32v-182v-35l-35 -5q-52 -7 -99 -14q25 -67 194 -67h51q11 0 18 -42t7 -81v-11q0 -41 -6.5 -83.5
t-18.5 -42.5z" />
    <glyph glyph-name="uniFE9F" unicode="&#x62c;" horiz-adv-x="1302" arabic-form="initial" 
d="M352 -331l172 172l172 -172l-172 -172zM-5 260h325q198 0 368 88l221 104l-134 74q-120 67 -222 67q-56 0 -101 -19t-104 -65l-71 -57l-30 -24l-25 28l-115 129l-27 31l31 26l61 53q97 81 186 121t189 40q151 0 306 -89l189 -109q88 -51 178 -70l32 -7v-32v-180v-25
l-22 -11l-417 -210q-224 -123 -491 -123h-327q-12 0 -18.5 42.5t-6.5 83.5v11q0 39 7 81t18 42z" />
    <glyph glyph-name="uniFEA0" unicode="&#x62c;" horiz-adv-x="1349" arabic-form="medial" 
d="M352 -331l172 172l172 -172l-172 -172zM1354 0h-118q-217 0 -336 169l-87 -46q-224 -123 -491 -123h-327q-12 0 -18.5 42.5t-6.5 83.5v11q0 39 7 81t18 42h325q201 0 368 88l221 104l-134 74q-120 67 -222 67q-56 0 -101 -19t-104 -65l-71 -57l-30 -24l-25 28l-115 129
l-27 31l31 26l61 53q97 81 186 121t189 40q151 0 306 -89l189 -109q88 -51 178 -70l32 -7v-32v-180v-25l-23 -11l-106 -51q45 -22 110 -22h121q11 0 18 -42t7 -81v-11q0 -41 -6.5 -83.5t-18.5 -42.5z" />
    <glyph glyph-name="uniFEA1" unicode="&#x62d;" horiz-adv-x="1314" arabic-form="isolated" 
d="M810 521l-34 19q-123 67 -222 67q-56 0 -101 -19t-104 -65l-71 -57l-30 -24l-25 28l-115 129l-27 31l31 26l61 53q97 81 186 121t189 40q151 0 306 -89l189 -109q88 -51 178 -70l32 -7v-32v-182v-35l-35 -5q-92 -12 -173.5 -26t-176 -37t-171.5 -50t-150.5 -65.5
t-123.5 -83t-80.5 -104t-30.5 -127.5q0 -146 116 -216.5t374 -70.5h392h40v-40v-176v-40h-40h-404q-161 0 -292 32t-230 96t-153.5 169t-54.5 243q0 260 191.5 429t558.5 247z" />
    <glyph glyph-name="uniFEA2" unicode="&#x62d;" horiz-adv-x="1359" arabic-form="final" 
d="M1364 0h-52q-105 0 -192 30t-149.5 95.5t-79.5 158.5q-579 -133 -579 -436q0 -146 116 -216.5t374 -70.5h392h40v-40v-176v-40h-40h-404q-161 0 -292 32t-230 96t-153.5 169t-54.5 243q0 260 192.5 429.5t557.5 246.5l-34 19q-123 67 -222 67q-56 0 -101 -19t-104 -65
l-71 -57l-30 -24l-25 28l-115 129l-27 31l31 26l61 53q97 81 186 121t189 40q151 0 306 -89l189 -109q88 -51 178 -70l32 -7v-32v-182v-35l-35 -5q-52 -7 -99 -14q25 -67 194 -67h51q11 0 18 -42t7 -81v-11q0 -41 -6.5 -83.5t-18.5 -42.5z" />
    <glyph glyph-name="uniFEA3" unicode="&#x62d;" horiz-adv-x="1302" arabic-form="initial" 
d="M-5 260h325q198 0 368 88l221 104l-134 74q-120 67 -222 67q-56 0 -101 -19t-104 -65l-71 -57l-30 -24l-25 28l-115 129l-27 31l31 26l61 53q97 81 186 121t189 40q151 0 306 -89l189 -109q88 -51 178 -70l32 -7v-32v-180v-25l-22 -11l-417 -210q-224 -123 -491 -123
h-327q-12 0 -18.5 42.5t-6.5 83.5v11q0 39 7 81t18 42z" />
    <glyph glyph-name="uniFEA4" unicode="&#x62d;" horiz-adv-x="1349" arabic-form="medial" 
d="M1354 0h-118q-217 0 -336 169l-87 -46q-224 -123 -491 -123h-327q-12 0 -18.5 42.5t-6.5 83.5v11q0 39 7 81t18 42h325q201 0 368 88l221 104l-134 74q-120 67 -222 67q-56 0 -101 -19t-104 -65l-71 -57l-30 -24l-25 28l-115 129l-27 31l31 26l61 53q97 81 186 121
t189 40q151 0 306 -89l189 -109q88 -51 178 -70l32 -7v-32v-180v-25l-23 -11l-106 -51q45 -22 110 -22h121q11 0 18 -42t7 -81v-11q0 -41 -6.5 -83.5t-18.5 -42.5z" />
    <glyph glyph-name="uniFEA5" unicode="&#x62e;" horiz-adv-x="1319" arabic-form="isolated" 
d="M415 1196l172 172l172 -172l-172 -172zM810 521l-34 19q-123 67 -222 67q-56 0 -101 -19t-104 -65l-71 -57l-30 -24l-25 28l-115 129l-27 31l31 26l61 53q97 81 186 121t189 40q151 0 306 -89l189 -109q88 -51 178 -70l32 -7v-32v-182v-35l-35 -5q-92 -12 -173.5 -26
t-176 -37t-171.5 -50t-150.5 -65.5t-123.5 -83t-80.5 -104t-30.5 -127.5q0 -146 116 -216.5t374 -70.5h392h40v-40v-176v-40h-40h-404q-161 0 -292 32t-230 96t-153.5 169t-54.5 243q0 260 191.5 429t558.5 247z" />
    <glyph glyph-name="uniFEA6" unicode="&#x62e;" horiz-adv-x="1359" arabic-form="final" 
d="M415 1196l172 172l172 -172l-172 -172zM1364 0h-52q-105 0 -192 30t-149.5 95.5t-79.5 158.5q-579 -133 -579 -436q0 -146 116 -216.5t374 -70.5h392h40v-40v-176v-40h-40h-404q-161 0 -292 32t-230 96t-153.5 169t-54.5 243q0 260 192.5 429.5t557.5 246.5l-34 19
q-123 67 -222 67q-56 0 -101 -19t-104 -65l-71 -57l-30 -24l-25 28l-115 129l-27 31l31 26l61 53q97 81 186 121t189 40q151 0 306 -89l189 -109q88 -51 178 -70l32 -7v-32v-182v-35l-35 -5q-52 -7 -99 -14q25 -67 194 -67h51q11 0 18 -42t7 -81v-11q0 -41 -6.5 -83.5
t-18.5 -42.5z" />
    <glyph glyph-name="uniFEA7" unicode="&#x62e;" horiz-adv-x="1302" arabic-form="initial" 
d="M414 1176l172 172l172 -172l-172 -172zM-5 260h325q198 0 368 88l221 104l-134 74q-120 67 -222 67q-56 0 -101 -19t-104 -65l-71 -57l-30 -24l-25 28l-115 129l-27 31l31 26l61 53q97 81 186 121t189 40q151 0 306 -89l189 -109q88 -51 178 -70l32 -7v-32v-180v-25
l-22 -11l-417 -210q-224 -123 -491 -123h-327q-12 0 -18.5 42.5t-6.5 83.5v11q0 39 7 81t18 42z" />
    <glyph glyph-name="uniFEA8" unicode="&#x62e;" horiz-adv-x="1349" arabic-form="medial" 
d="M414 1176l172 172l172 -172l-172 -172zM1354 0h-118q-217 0 -336 169l-87 -46q-224 -123 -491 -123h-327q-12 0 -18.5 42.5t-6.5 83.5v11q0 39 7 81t18 42h325q201 0 368 88l221 104l-134 74q-120 67 -222 67q-56 0 -101 -19t-104 -65l-71 -57l-30 -24l-25 28l-115 129
l-27 31l31 26l61 53q97 81 186 121t189 40q151 0 306 -89l189 -109q88 -51 178 -70l32 -7v-32v-180v-25l-23 -11l-106 -51q45 -22 110 -22h121q11 0 18 -42t7 -81v-11q0 -41 -6.5 -83.5t-18.5 -42.5z" />
    <glyph glyph-name="uniFEA9" unicode="&#x62f;" horiz-adv-x="1004" arabic-form="isolated" 
d="M352 809l121 136zM464 0h-364v180h365zM464 0h-364h-40v40v180v40h40h365q224 0 224 80q0 26 -22.5 68.5t-64.5 91.5l-280 323l-23 26l23 27l121 136l31 34l29 -35l298 -348q143 -167 143 -329q0 -151 -126.5 -242.5t-353.5 -91.5z" />
    <glyph glyph-name="uniFEAA" unicode="&#x62f;" horiz-adv-x="1204" arabic-form="final" 
d="M1209 0h-16q-40 0 -76.5 8.5t-65 21t-59.5 34.5t-53.5 42t-52.5 50q-58 -75 -164.5 -115.5t-257.5 -40.5h-364h-40v40v180v40h40h365q68 0 115 7.5t69.5 20.5t31 25.5t8.5 26.5q0 26 -22.5 68t-64.5 92l-280 323l-23 26l23 27l121 136l31 34l29 -35l446 -524
q73 -85 114 -131t68 -67.5t38 -25t31 -3.5h9q11 0 18 -42t7 -81v-11q0 -41 -6.5 -83.5t-18.5 -42.5z" />
    <glyph glyph-name="uniFEAB" unicode="&#x630;" horiz-adv-x="1011" arabic-form="isolated" 
d="M230 1309l172 172l172 -172l-172 -172zM464 0h-364h-40v40v180v40h40h365q224 0 224 80q0 26 -22.5 68.5t-64.5 91.5l-280 323l-23 26l23 27l121 136l31 34l29 -35l298 -348q143 -167 143 -329q0 -151 -126.5 -242.5t-353.5 -91.5z" />
    <glyph glyph-name="uniFEAC" unicode="&#x630;" horiz-adv-x="1204" arabic-form="final" 
d="M230 1309l172 172l172 -172l-172 -172zM1209 0h-16q-40 0 -76.5 8.5t-65 21t-59.5 34.5t-53.5 42t-52.5 50q-58 -75 -164.5 -115.5t-257.5 -40.5h-364h-40v40v180v40h40h365q68 0 115 7.5t69.5 20.5t31 25.5t8.5 26.5q0 26 -22.5 68t-64.5 92l-280 323l-23 26l23 27
l121 136l31 34l29 -35l446 -524q73 -85 114 -131t68 -67.5t38 -25t31 -3.5h9q11 0 18 -42t7 -81v-11q0 -41 -6.5 -83.5t-18.5 -42.5z" />
    <glyph glyph-name="uniFEAD" unicode="&#x631;" horiz-adv-x="756" arabic-form="isolated" 
d="M84 -214q358 0 358 325v534v40h40l174 1h40v-40v-535q0 -272 -159 -424.5t-451 -154.5l-71 -1l-41 -1v41v175v40h40h70z" />
    <glyph glyph-name="uniFEAE" unicode="&#x631;" horiz-adv-x="883" arabic-form="final" 
d="M888 0h-16q-110 0 -178 35q-22 -237 -179.5 -367.5t-427.5 -134.5l-72 -1l-41 -1v41v175v40h40h70q358 0 358 325v534v40h40h175h40v-40v-223q0 -86 40.5 -124.5t134.5 -38.5h16q11 0 18 -42t7 -81v-11q0 -41 -6.5 -83.5t-18.5 -42.5z" />
    <glyph glyph-name="uniFEAF" unicode="&#x632;" horiz-adv-x="780" arabic-form="isolated" 
d="M354 1051l172 172l172 -172l-172 -172zM84 -214q358 0 358 325v534v40h40l174 1h40v-40v-535q0 -272 -159 -424.5t-451 -154.5l-71 -1l-41 -1v41v175v40h40h70z" />
    <glyph glyph-name="uniFEB0" unicode="&#x632;" horiz-adv-x="883" arabic-form="final" 
d="M360 1051l172 172l172 -172l-172 -172zM888 0h-16q-110 0 -178 35q-22 -237 -179.5 -367.5t-427.5 -134.5l-72 -1l-41 -1v41v175v40h40h70q358 0 358 325v534v40h40h175h40v-40v-223q0 -86 40.5 -124.5t134.5 -38.5h16q11 0 18 -42t7 -81v-11q0 -41 -6.5 -83.5
t-18.5 -42.5z" />
    <glyph glyph-name="uniFEB1" unicode="&#x633;" horiz-adv-x="2479" arabic-form="isolated" 
d="M1377 437q0 -97 36 -137t114 -40q72 0 105 35.5t33 117.5l1 261v40h40h170h40v-40l1 -259q1 -84 34 -119t107 -35q56 0 81 33t25 117v295v40h40h175h40v-40v-303q0 -187 -94 -295t-261 -108q-173 0 -267 112q-95 -112 -276 -112q-29 0 -56 4t-53 13t-49 22
q-15 -242 -174 -365t-445 -123h-51q-309 0 -471 149.5t-162 440.5v341v40h40h174h40v-40v-340q0 -170 91.5 -251t287.5 -81h51q197 0 287 68.5t90 208.5v584v40h40h176h40v-40v-234z" />
    <glyph glyph-name="uniFEB2" unicode="&#x633;" horiz-adv-x="2619" arabic-form="final" 
d="M2625 0h-20q-200 0 -306 110q-81 -110 -236 -110q-58 0 -107 12.5t-88.5 37.5t-70.5 62q-49 -58 -118.5 -85t-157.5 -27q-29 0 -56 4t-53 13t-49 22q-15 -242 -174 -365t-445 -123h-51q-309 0 -471 149.5t-162 440.5v341v40h40h174h40v-40v-340q0 -170 91.5 -251
t287.5 -81h51q197 0 287 68.5t90 208.5v584v40h40h176h40v-40v-234q0 -97 36 -137t114 -40q72 0 105 35.5t33 117.5l1 261v40h40h170h40v-40l1 -259q1 -84 34 -119t109 -35q62 0 86 32.5t24 119.5v261v40h40h163h40v-40l1 -258q1 -82 43 -119t140 -37h28q11 0 18 -42t7 -81
v-11q0 -41 -6.5 -83.5t-18.5 -42.5z" />
    <glyph glyph-name="uniFEB3" unicode="&#x633;" horiz-adv-x="1640" arabic-form="initial" 
d="M-5 260h95q105 0 151 37.5t46 116.5v260v40h40h171h40v-40l1 -262q1 -82 34.5 -117t112.5 -35q73 0 106.5 35.5t33.5 117.5l1 261v40h40h170h40v-40l1 -259q1 -84 34 -119t107 -35q56 0 81 33t25 117v295v40h40h175h40v-40v-303q0 -187 -94 -295t-261 -108
q-173 0 -267 112q-95 -112 -276 -112q-167 0 -266 115q-107 -115 -327 -115h-94q-12 0 -18.5 42.5t-6.5 83.5v11q0 39 7 81t18 42z" />
    <glyph glyph-name="uniFEB4" unicode="&#x633;" horiz-adv-x="1781" arabic-form="medial" 
d="M1787 0h-20q-200 0 -306 110q-81 -110 -236 -110q-173 0 -267 112q-95 -112 -276 -112q-167 0 -266 115q-107 -115 -327 -115h-94q-12 0 -18.5 42.5t-6.5 83.5v11q0 39 7 81t18 42h95q105 0 151 37.5t46 116.5v260v40h40h171h40v-40l1 -262q1 -82 34.5 -117t112.5 -35
q49 0 79.5 15t45.5 49t15 89l1 261v40h40h170h40v-40l1 -259q1 -84 34 -119t110 -35q37 0 59 13.5t34 47t12 91.5v261v40h40h168h40v-40l1 -258q1 -82 43 -119t140 -37h28q11 0 18 -42t7 -81v-11q0 -41 -6.5 -83.5t-18.5 -42.5z" />
    <glyph glyph-name="uniFEB5" unicode="&#x634;" horiz-adv-x="2484" arabic-form="isolated" 
d="M1599 1276l161 159l160 -159l-160 -161zM1781 1029l160 161l161 -161l-161 -159zM1417 1029l161 161l160 -161l-160 -159zM1377 437q0 -97 36 -137t114 -40q72 0 105 35.5t33 117.5l1 261v40h40h170h40v-40l1 -259q1 -84 34 -119t107 -35q56 0 81 33t25 117v295v40h40
h175h40v-40v-303q0 -187 -94 -295t-261 -108q-173 0 -267 112q-95 -112 -276 -112q-29 0 -56 4t-53 13t-49 22q-15 -242 -174 -365t-445 -123h-51q-309 0 -471 149.5t-162 440.5v341v40h40h174h40v-40v-340q0 -170 91.5 -251t287.5 -81h51q197 0 287 68.5t90 208.5v584v40
h40h176h40v-40v-234z" />
    <glyph glyph-name="uniFEB6" unicode="&#x634;" horiz-adv-x="2619" arabic-form="final" 
d="M1599 1276l161 159l160 -159l-160 -161zM1781 1029l160 161l161 -161l-161 -159zM1417 1029l161 161l160 -161l-160 -159zM2625 0h-20q-200 0 -306 110q-81 -110 -236 -110q-58 0 -107 12.5t-88.5 37.5t-70.5 62q-49 -58 -118.5 -85t-157.5 -27q-29 0 -56 4t-53 13
t-49 22q-15 -242 -174 -365t-445 -123h-51q-309 0 -471 149.5t-162 440.5v341v40h40h174h40v-40v-340q0 -170 91.5 -251t287.5 -81h51q197 0 287 68.5t90 208.5v584v40h40h176h40v-40v-234q0 -97 36 -137t114 -40q72 0 105 35.5t33 117.5l1 261v40h40h170h40v-40l1 -259
q1 -84 34 -119t109 -35q62 0 86 32.5t24 119.5v261v40h40h163h40v-40l1 -258q1 -82 43 -119t140 -37h28q11 0 18 -42t7 -81v-11q0 -41 -6.5 -83.5t-18.5 -42.5z" />
    <glyph glyph-name="uniFEB7" unicode="&#x634;" horiz-adv-x="1640" arabic-form="initial" 
d="M760 1276l161 159l160 -159l-160 -161zM942 1029l160 161l161 -161l-161 -159zM578 1029l161 161l160 -161l-160 -159zM-5 260h95q105 0 151 37.5t46 116.5v260v40h40h171h40v-40l1 -262q1 -82 34.5 -117t112.5 -35q73 0 106.5 35.5t33.5 117.5l1 261v40h40h170h40v-40
l1 -259q1 -84 34 -119t107 -35q56 0 81 33t25 117v295v40h40h175h40v-40v-303q0 -187 -94 -295t-261 -108q-173 0 -267 112q-95 -112 -276 -112q-167 0 -266 115q-107 -115 -327 -115h-94q-12 0 -18.5 42.5t-6.5 83.5v11q0 39 7 81t18 42z" />
    <glyph glyph-name="uniFEB8" unicode="&#x634;" horiz-adv-x="1781" arabic-form="medial" 
d="M760 1276l161 159l160 -159l-160 -161zM942 1029l160 161l161 -161l-161 -159zM578 1029l161 161l160 -161l-160 -159zM1787 0h-20q-200 0 -306 110q-81 -110 -236 -110q-173 0 -267 112q-95 -112 -276 -112q-167 0 -266 115q-107 -115 -327 -115h-94q-12 0 -18.5 42.5
t-6.5 83.5v11q0 39 7 81t18 42h95q105 0 151 37.5t46 116.5v260v40h40h171h40v-40l1 -262q1 -82 34.5 -117t112.5 -35q49 0 79.5 15t45.5 49t15 89l1 261v40h40h170h40v-40l1 -259q1 -84 34 -119t110 -35q37 0 59 13.5t34 47t12 91.5v261v40h40h168h40v-40l1 -258
q1 -82 43 -119t140 -37h28q11 0 18 -42t7 -81v-11q0 -41 -6.5 -83.5t-18.5 -42.5z" />
    <glyph glyph-name="uniFEB9" unicode="&#x635;" horiz-adv-x="2505" arabic-form="isolated" 
d="M1377 457q0 -123 47 -162q50 110 97.5 193.5t103 154.5t114 116.5t128 70.5t148.5 25q119 0 218 -61t155.5 -164t56.5 -223q0 -196 -135.5 -301.5t-351.5 -105.5h-340q-167 0 -254 44q-14 -244 -173 -368.5t-447 -124.5h-51q-309 0 -471 149.5t-162 440.5v341v40h40h174
h40v-40v-340q0 -170 91.5 -251t287.5 -81h51q197 0 287 68.5t90 208.5v584v40h40h176h40v-40v-214zM2190 387q0 89 -55 147t-131 58t-158.5 -81t-165.5 -251h298q110 0 161 30.5t51 96.5z" />
    <glyph glyph-name="uniFEBA" unicode="&#x635;" horiz-adv-x="2561" arabic-form="final" 
d="M2566 0h-29q-96 0 -164.5 15t-117.5 53q-117 -68 -297 -68h-340q-167 0 -254 44q-14 -244 -173 -368.5t-447 -124.5h-51q-309 0 -471 149.5t-162 440.5v341v40h40h174h40v-40v-340q0 -170 91.5 -251t287.5 -81h51q197 0 287 68.5t90 208.5v584v40h40h176h40v-40v-214
q0 -17 1 -33t3 -29.5t4.5 -25.5t6 -21.5t7.5 -18t8 -15t8 -11t9 -8.5q42 91 81 163.5t83.5 137t91 111t99 80.5t111.5 51t125 17q180 0 305 -132t125 -316q0 -40 -6 -76.5t-18 -70.5h145q11 0 18 -42t7 -81v-11q0 -41 -6.5 -83.5t-18.5 -42.5zM2004 592q-76 0 -158.5 -81
t-165.5 -251h298q110 0 161 30.5t51 96.5q0 88 -55 146.5t-131 58.5z" />
    <glyph glyph-name="uniFEBB" unicode="&#x635;" horiz-adv-x="1658" arabic-form="initial" 
d="M-5 260h76q97 0 140.5 39.5t43.5 126.5v247v40h40h168h40v-40l1 -251q0 -119 68 -136q36 79 70 143.5t72 124.5t76.5 105.5t81.5 83t89 62t98 37.5t109 13q119 0 218 -61t155.5 -164t56.5 -223q0 -131 -64.5 -224.5t-173 -138t-249.5 -44.5h-340q-276 0 -383 112
q-104 -112 -310 -112h-83q-12 0 -18.5 42.5t-6.5 83.5v11q0 39 7 81t18 42zM1343 387q0 89 -55 147t-131 58q-50 0 -101.5 -33.5t-109 -109t-113.5 -189.5h298q110 0 161 30.5t51 96.5z" />
    <glyph glyph-name="uniFEBC" unicode="&#x635;" horiz-adv-x="1713" arabic-form="medial" 
d="M1719 0h-29q-63 0 -111.5 6t-92.5 21.5t-78 40.5q-117 -68 -297 -68h-340q-276 0 -383 112q-103 -112 -310 -112h-83q-12 0 -18.5 42.5t-6.5 83.5v11q0 39 7 81t18 42h76q97 0 140.5 39.5t43.5 126.5v247v40h40h168h40v-40l1 -251q0 -120 68 -136q52 112 99.5 196.5
t103.5 157t114.5 118.5t129 71.5t149.5 25.5q180 0 305 -132t125 -316q0 -79 -24 -147h145q11 0 18 -42t7 -81v-11q0 -41 -6.5 -83.5t-18.5 -42.5zM1343 387q0 88 -55 146.5t-131 58.5q-50 0 -101.5 -33.5t-109 -109t-113.5 -189.5h298q110 0 161 30.5t51 96.5z" />
    <glyph glyph-name="uniFEBD" unicode="&#x636;" horiz-adv-x="2505" arabic-form="isolated" 
d="M1809 1181l172 172l172 -172l-172 -172zM1377 457q0 -123 47 -162q50 110 97.5 193.5t103 154.5t114 116.5t128 70.5t148.5 25q119 0 218 -61t155.5 -164t56.5 -223q0 -196 -135.5 -301.5t-351.5 -105.5h-340q-167 0 -254 44q-14 -244 -173 -368.5t-447 -124.5h-51
q-309 0 -471 149.5t-162 440.5v341v40h40h174h40v-40v-340q0 -170 91.5 -251t287.5 -81h51q197 0 287 68.5t90 208.5v584v40h40h176h40v-40v-214zM2190 387q0 89 -55 147t-131 58t-158.5 -81t-165.5 -251h298q110 0 161 30.5t51 96.5z" />
    <glyph glyph-name="uniFEBE" unicode="&#x636;" horiz-adv-x="2561" arabic-form="final" 
d="M1809 1181l172 172l172 -172l-172 -172zM2566 0h-29q-96 0 -164.5 15t-117.5 53q-117 -68 -297 -68h-340q-167 0 -254 44q-14 -244 -173 -368.5t-447 -124.5h-51q-309 0 -471 149.5t-162 440.5v341v40h40h174h40v-40v-340q0 -170 91.5 -251t287.5 -81h51q197 0 287 68.5
t90 208.5v584v40h40h176h40v-40v-214q0 -17 1 -33t3 -29.5t4.5 -25.5t6 -21.5t7.5 -18t8 -15t8 -11t9 -8.5q42 91 81 163.5t83.5 137t91 111t99 80.5t111.5 51t125 17q180 0 305 -132t125 -316q0 -40 -6 -76.5t-18 -70.5h145q11 0 18 -42t7 -81v-11q0 -41 -6.5 -83.5
t-18.5 -42.5zM2004 592q-76 0 -158.5 -81t-165.5 -251h298q110 0 161 30.5t51 96.5q0 88 -55 146.5t-131 58.5z" />
    <glyph glyph-name="uniFEBF" unicode="&#x636;" horiz-adv-x="1658" arabic-form="initial" 
d="M962 1181l172 172l172 -172l-172 -172zM-5 260h76q97 0 140.5 39.5t43.5 126.5v247v40h40h168h40v-40l1 -251q0 -119 68 -136q36 79 70 143.5t72 124.5t76.5 105.5t81.5 83t89 62t98 37.5t109 13q119 0 218 -61t155.5 -164t56.5 -223q0 -131 -64.5 -224.5t-173 -138
t-249.5 -44.5h-340q-276 0 -383 112q-104 -112 -310 -112h-83q-12 0 -18.5 42.5t-6.5 83.5v11q0 39 7 81t18 42zM1343 387q0 89 -55 147t-131 58q-50 0 -101.5 -33.5t-109 -109t-113.5 -189.5h298q110 0 161 30.5t51 96.5z" />
    <glyph glyph-name="uniFEC0" unicode="&#x636;" horiz-adv-x="1713" arabic-form="medial" 
d="M962 1181l172 172l172 -172l-172 -172zM1719 0h-29q-63 0 -111.5 6t-92.5 21.5t-78 40.5q-117 -68 -297 -68h-340q-276 0 -383 112q-103 -112 -310 -112h-83q-12 0 -18.5 42.5t-6.5 83.5v11q0 39 7 81t18 42h76q97 0 140.5 39.5t43.5 126.5v247v40h40h168h40v-40l1 -251
q0 -120 68 -136q52 112 99.5 196.5t103.5 157t114.5 118.5t129 71.5t149.5 25.5q180 0 305 -132t125 -316q0 -79 -24 -147h145q11 0 18 -42t7 -81v-11q0 -41 -6.5 -83.5t-18.5 -42.5zM1343 387q0 88 -55 146.5t-131 58.5q-50 0 -101.5 -33.5t-109 -109t-113.5 -189.5h298
q110 0 161 30.5t51 96.5z" />
    <glyph glyph-name="uniFEC1" unicode="&#x637;" horiz-adv-x="1358" arabic-form="isolated" 
d="M1043 387q0 88 -55 146.5t-131 58.5q-50 0 -101.5 -33.5t-109 -109t-113.5 -189.5h298q110 0 161 30.5t51 96.5zM329 395v900v40h40h166h40v-40v-560q138 120 293 120q180 0 305 -132t125 -316q0 -132 -64.5 -225t-173 -137.5t-249.5 -44.5h-711h-40v40v180v40h40h163
q13 30 66 135z" />
    <glyph glyph-name="uniFEC2" unicode="&#x637;" horiz-adv-x="1414" arabic-form="final" 
d="M1419 0h-29q-63 0 -111.5 6t-92.5 21.5t-78 40.5q-117 -68 -297 -68h-711h-40v40v180v40h40h163q13 30 66 135v900v40h40h166h40v-40v-560q138 120 293 120q180 0 305 -132t125 -316q0 -79 -24 -147h145q11 0 18 -42t7 -81v-11q0 -41 -6.5 -83.5t-18.5 -42.5zM857 592
q-76 0 -158.5 -81t-165.5 -251h298q110 0 161 30.5t51 96.5q0 88 -55 146.5t-131 58.5z" />
    <glyph glyph-name="uniFEC3" unicode="&#x637;" horiz-adv-x="1230" arabic-form="initial" 
d="M-6 260h141q13 30 66 135v900v40h40h166h40v-40v-560q138 120 293 120q180 0 305 -132t125 -316q0 -132 -64.5 -225t-173 -137.5t-249.5 -44.5h-689q-12 0 -18.5 42.5t-6.5 83.5v11q0 39 7 81t18 42zM915 387q0 88 -55 146.5t-131 58.5t-158.5 -81t-165.5 -251h298
q110 0 161 30.5t51 96.5z" />
    <glyph glyph-name="uniFEC4" unicode="&#x637;" horiz-adv-x="1286" arabic-form="medial" 
d="M1291 0h-29q-63 0 -111.5 6t-92.5 21.5t-78 40.5q-117 -68 -297 -68h-688q-12 0 -18.5 42.5t-6.5 83.5v11q0 39 7 81t18 42h140q13 30 66 135v900v40h40h166h40v-40v-560q138 120 293 120q180 0 305 -132t125 -316q0 -79 -24 -147h145q11 0 18 -42t7 -81v-11
q0 -41 -6.5 -83.5t-18.5 -42.5zM729 592q-76 0 -158.5 -81t-165.5 -251h298q110 0 161 30.5t51 96.5q0 88 -55 146.5t-131 58.5z" />
    <glyph glyph-name="uniFEC5" unicode="&#x638;" horiz-adv-x="1369" arabic-form="isolated" 
d="M735 1180l172 172l172 -172l-172 -172zM1043 387q0 88 -55 146.5t-131 58.5q-50 0 -101.5 -33.5t-109 -109t-113.5 -189.5h298q110 0 161 30.5t51 96.5zM329 395v900v40h40h166h40v-40v-560q138 120 293 120q180 0 305 -132t125 -316q0 -132 -64.5 -225t-173 -137.5
t-249.5 -44.5h-711h-40v40v180v40h40h163q13 30 66 135z" />
    <glyph glyph-name="uniFEC6" unicode="&#x638;" horiz-adv-x="1414" arabic-form="final" 
d="M735 1180l172 172l172 -172l-172 -172zM1419 0h-29q-63 0 -111.5 6t-92.5 21.5t-78 40.5q-117 -68 -297 -68h-711h-40v40v180v40h40h163q13 30 66 135v900v40h40h166h40v-40v-560q138 120 293 120q180 0 305 -132t125 -316q0 -79 -24 -147h145q11 0 18 -42t7 -81v-11
q0 -41 -6.5 -83.5t-18.5 -42.5zM857 592q-76 0 -158.5 -81t-165.5 -251h298q110 0 161 30.5t51 96.5q0 88 -55 146.5t-131 58.5z" />
    <glyph glyph-name="uniFEC7" unicode="&#x638;" horiz-adv-x="1230" arabic-form="initial" 
d="M605 1180l172 172l172 -172l-172 -172zM-6 260h141q13 30 66 135v900v40h40h166h40v-40v-560q138 120 293 120q180 0 305 -132t125 -316q0 -132 -64.5 -225t-173 -137.5t-249.5 -44.5h-689q-12 0 -18.5 42.5t-6.5 83.5v11q0 39 7 81t18 42zM915 387q0 88 -55 146.5
t-131 58.5t-158.5 -81t-165.5 -251h298q110 0 161 30.5t51 96.5z" />
    <glyph glyph-name="uniFEC8" unicode="&#x638;" horiz-adv-x="1286" arabic-form="medial" 
d="M605 1180l172 172l172 -172l-172 -172zM1291 0h-29q-63 0 -111.5 6t-92.5 21.5t-78 40.5q-117 -68 -297 -68h-688q-12 0 -18.5 42.5t-6.5 83.5v11q0 39 7 81t18 42h140q13 30 66 135v900v40h40h166h40v-40v-560q138 120 293 120q180 0 305 -132t125 -316q0 -79 -24 -147
h145q11 0 18 -42t7 -81v-11q0 -41 -6.5 -83.5t-18.5 -42.5zM729 592q-76 0 -158.5 -81t-165.5 -251h298q110 0 161 30.5t51 96.5q0 88 -55 146.5t-131 58.5z" />
    <glyph glyph-name="uniFEC9" unicode="&#x639;" horiz-adv-x="1244" arabic-form="isolated" 
d="M60 -157q0 181 94 316.5t273 209.5q-101 114 -101 254q1 125 57 222t154.5 150t223.5 53q204 0 337 -165l17 -21l-13 -23l-72 -132l-25 -46l-38 36q-90 86 -202 86q-81 0 -132.5 -42t-51.5 -116q0 -47 31.5 -93.5t94.5 -84.5q96 7 232 7h168h40v-40v-181v-40h-40h-184
q-313 0 -462 -90.5t-149 -255.5q0 -146 116 -216t374 -70h322h40v-40v-176v-40h-40h-334q-159 0 -290 32t-230.5 96t-154.5 168.5t-55 241.5z" />
    <glyph glyph-name="uniFECA" unicode="&#x639;" horiz-adv-x="1225" arabic-form="final" 
d="M1230 0h-104q-137 0 -254.5 35.5t-235.5 108.5q-164 -81 -244 -167.5t-80 -154.5q0 -141 108.5 -201t371.5 -60h302h40v-40v-176v-40h-40h-314q-162 0 -290.5 28.5t-226 88t-150.5 159t-53 234.5q0 72 26.5 142t75 131t110 113.5t136.5 100.5q-26 17 -40 26.5t-44.5 31.5
t-49 38.5t-43.5 41.5t-39 46.5t-24.5 47.5t-10.5 51q0 80 41.5 138.5t114.5 90t159.5 46t189.5 14.5q82 0 152.5 -8.5t136.5 -29.5t112.5 -53t74.5 -82.5t28 -115.5q0 -22 -7 -44t-23 -44t-31 -41t-41 -41t-42.5 -36t-46 -34.5t-41 -28.5t-37.5 -25q96 -31 240 -31h93
q11 0 18 -42t7 -81v-11q0 -41 -6.5 -83.5t-18.5 -42.5zM661 415q16 10 41 26t54 35.5t56.5 39.5t51 38.5t36.5 30.5q-24 16 -90.5 27.5t-149.5 11.5q-82 0 -148 -11.5t-90 -27.5q31 -30 112.5 -86.5t126.5 -83.5z" />
    <glyph glyph-name="uniFECB" unicode="&#x639;" horiz-adv-x="1020" arabic-form="initial" 
d="M-5 260h215q-82 104 -82 231q0 188 123.5 311.5t312.5 123.5q214 0 348 -164l17 -21l-13 -23l-73 -133l-25 -46l-38 36q-91 87 -211 87q-79 0 -132.5 -47t-53.5 -123t80 -140q75 -61 111 -61q30 0 125 22l212 51l49 12v-51v-181v-30l-29 -8q-353 -106 -626 -106h-310
q-12 0 -18.5 42.5t-6.5 83.5v11q0 39 7 81t18 42z" />
    <glyph glyph-name="uniFECC" unicode="&#x639;" horiz-adv-x="1164" arabic-form="medial" 
d="M1118 0h-109q-213 0 -392 95q-110 -57 -216.5 -76t-254.5 -19h-151q-12 0 -18.5 42.5t-6.5 83.5v11q0 39 7 81t18 42h150q136 0 213 6q-32 22 -51 35.5t-52.5 39.5t-54 47t-42.5 48t-33 54t-11 53q0 65 28 115.5t74.5 83t113 53t137 29t152.5 8.5t152.5 -8.5t136.5 -29.5
t112.5 -53t74.5 -82.5t28 -115.5q0 -26 -11 -53.5t-33.5 -54.5t-43.5 -48.5t-55 -47.5t-52.5 -39t-50.5 -35q57 -5 138 -5h103q11 0 18 -42t7 -81v-11q0 -41 -6.5 -83.5t-18.5 -42.5zM618 373q46 27 128 84.5t111 85.5q-24 16 -90.5 27.5t-149.5 11.5q-82 0 -148 -11.5
t-90 -27.5q30 -29 112 -86t127 -84zM1186.61 260q3.37012 0 5.19531 -42q1.82617 -42 1.82617 -81v-11q0 -41 -1.82617 -83.5q-1.8252 -42.5 -5.19531 -42.5h-73.0137q-3.37012 0 -5.19531 42.5t-1.8252 83.5v11q0 39 1.8252 81t5.19531 42h73.0137z" />
    <glyph glyph-name="uniFECD" unicode="&#x63a;" horiz-adv-x="1249" arabic-form="isolated" 
d="M572 1338l172 172l172 -172l-172 -172zM60 -157q0 181 94 316.5t273 209.5q-101 114 -101 254q1 125 57 222t154.5 150t223.5 53q204 0 337 -165l17 -21l-13 -23l-72 -132l-25 -46l-38 36q-90 86 -202 86q-81 0 -132.5 -42t-51.5 -116q0 -47 31.5 -93.5t94.5 -84.5
q96 7 232 7h168h40v-40v-181v-40h-40h-184q-313 0 -462 -90.5t-149 -255.5q0 -146 116 -216t374 -70h322h40v-40v-176v-40h-40h-334q-159 0 -290 32t-230.5 96t-154.5 168.5t-55 241.5z" />
    <glyph glyph-name="uniFECE" unicode="&#x63a;" horiz-adv-x="1225" arabic-form="final" 
d="M492 1181l172 172l172 -172l-172 -172zM1230 0h-104q-137 0 -254.5 35.5t-235.5 108.5q-164 -81 -244 -167.5t-80 -154.5q0 -141 108.5 -201t371.5 -60h302h40v-40v-176v-40h-40h-314q-162 0 -290.5 28.5t-226 88t-150.5 159t-53 234.5q0 72 26.5 142t75 131t110 113.5
t136.5 100.5q-26 17 -40 26.5t-44.5 31.5t-49 38.5t-43.5 41.5t-39 46.5t-24.5 47.5t-10.5 51q0 80 41.5 138.5t114.5 90t159.5 46t189.5 14.5q82 0 152.5 -8.5t136.5 -29.5t112.5 -53t74.5 -82.5t28 -115.5q0 -22 -7 -44t-23 -44t-31 -41t-41 -41t-42.5 -36t-46 -34.5
t-41 -28.5t-37.5 -25q96 -31 240 -31h93q11 0 18 -42t7 -81v-11q0 -41 -6.5 -83.5t-18.5 -42.5zM661 415q16 10 41 26t54 35.5t56.5 39.5t51 38.5t36.5 30.5q-24 16 -90.5 27.5t-149.5 11.5q-82 0 -148 -11.5t-90 -27.5q31 -30 112.5 -86.5t126.5 -83.5z" />
    <glyph glyph-name="uniFECF" unicode="&#x63a;" horiz-adv-x="1020" arabic-form="initial" 
d="M362 1244l172 172l172 -172l-172 -172zM-5 260h215q-82 104 -82 231q0 188 123.5 311.5t312.5 123.5q214 0 348 -164l17 -21l-13 -23l-73 -133l-25 -46l-38 36q-91 87 -211 87q-79 0 -132.5 -47t-53.5 -123t80 -140q75 -61 111 -61q30 0 125 22l212 51l49 12v-51v-181
v-30l-29 -8q-353 -106 -626 -106h-310q-12 0 -18.5 42.5t-6.5 83.5v11q0 39 7 81t18 42z" />
    <glyph glyph-name="uniFED0" unicode="&#x63a;" horiz-adv-x="1164" arabic-form="medial" 
d="M432 1136l172 172l172 -172l-172 -172zM1118 0h-109q-213 0 -392 95q-110 -57 -216.5 -76t-254.5 -19h-151q-12 0 -18.5 42.5t-6.5 83.5v11q0 39 7 81t18 42h150q136 0 213 6q-32 22 -51 35.5t-52.5 39.5t-54 47t-42.5 48t-33 54t-11 53q0 65 28 115.5t74.5 83t113 53
t137 29t152.5 8.5t152.5 -8.5t136.5 -29.5t112.5 -53t74.5 -82.5t28 -115.5q0 -26 -11 -53.5t-33.5 -54.5t-43.5 -48.5t-55 -47.5t-52.5 -39t-50.5 -35q57 -5 138 -5h103q11 0 18 -42t7 -81v-11q0 -41 -6.5 -83.5t-18.5 -42.5zM618 373q46 27 128 84.5t111 85.5
q-24 16 -90.5 27.5t-149.5 11.5q-82 0 -148 -11.5t-90 -27.5q30 -29 112 -86t127 -84zM1186.61 260q3.37012 0 5.19531 -42q1.82617 -42 1.82617 -81v-11q0 -41 -1.82617 -83.5q-1.8252 -42.5 -5.19531 -42.5h-73.0137q-3.37012 0 -5.19531 42.5t-1.8252 83.5v11
q0 39 1.8252 81t5.19531 42h73.0137z" />
    <glyph glyph-name="uniFED1" unicode="&#x641;" horiz-adv-x="1842" arabic-form="isolated" 
d="M1233 1351l172 172l172 -172l-172 -172zM1030 666q0 172 101.5 283t278.5 111t274.5 -99.5t97.5 -266.5v-319q0 -375 -476 -375h-770q-231 0 -353.5 123.5t-122.5 358.5v201v40h40h174h40v-40v-200q0 -117 52 -170t167 -53h776q59 0 101 5.5t66 14t38 22.5t18 26.5
t6 30.5q-65 -5 -112 -5q-193 0 -294.5 74.5t-101.5 237.5zM1412 809q-71 0 -104 -32t-33 -100q0 -49 29 -64t130 -15q49 0 105 6v93q0 55 -30 83.5t-97 28.5z" />
    <glyph glyph-name="uniFED2" unicode="&#x641;" horiz-adv-x="2044" arabic-form="final" 
d="M1372 1149l172 172l172 -172l-172 -172zM2050 0h-136q-57 0 -116 7.5t-123 25t-117 43.5q-54 -26 -113 -43.5t-119 -25t-125 -7.5h-667q-230 0 -351 123.5t-121 358.5v201v40h40h175h40v-40v-200q0 -117 52.5 -170t168.5 -53h692q-62 94 -62 211q0 166 114 280.5
t279 114.5q164 0 278 -113.5t114 -280.5q0 -118 -61 -212h158q11 0 18 -42t7 -81v-11q0 -41 -6.5 -83.5t-18.5 -42.5zM1705 470q0 59 -41 100t-104 41q-65 0 -105.5 -39.5t-40.5 -101.5q0 -57 43.5 -99t102.5 -42t102 41.5t43 99.5z" />
    <glyph glyph-name="uniFED3" unicode="&#x641;" horiz-adv-x="898" arabic-form="initial" 
d="M-5 260h370q59 0 101 5.5t66 14t38 22.5t18 26.5t6 30.5q-65 -5 -112 -5q-193 0 -294.5 74.5t-101.5 237.5q0 172 101.5 283t278.5 111t274.5 -99.5t97.5 -266.5v-319q0 -375 -475 -375h-368q-12 0 -18.5 42.5t-6.5 83.5v11q0 39 7 81t18 42zM468 809q-71 0 -104 -32
t-33 -100q0 -49 29 -64t130 -15q49 0 105 6v93q0 55 -30 83.5t-97 28.5zM294 1351l172 172l172 -172l-172 -172z" />
    <glyph glyph-name="uniFED4" unicode="&#x641;" horiz-adv-x="1022" arabic-form="medial" 
d="M358 1149l172 172l172 -172l-172 -172zM1027 0h-136q-89 0 -183 18.5t-173 57.5q-155 -76 -357 -76h-183q-12 0 -18.5 42.5t-6.5 83.5v11q0 39 7 81t18 42h212q-62 94 -62 211q0 166 114 280.5t279 114.5q164 0 278 -113.5t114 -280.5q0 -118 -61 -212h158q11 0 18 -42
t7 -81v-11q0 -41 -6.5 -83.5t-18.5 -42.5zM682 470q0 59 -41 100t-104 41q-65 0 -105.5 -39.5t-40.5 -101.5q0 -57 43.5 -99t102.5 -42t102 41.5t43 99.5z" />
    <glyph glyph-name="uniFED5" unicode="&#x642;" horiz-adv-x="1431" arabic-form="isolated" 
d="M988 1073l168 169l169 -169q-6 -6 -12 -13q-13 -13 -70 -69.5t-87 -86.5zM626 1073l169 169l168 -169l-168 -169zM1371 388v-414q0 -95 -35 -169t-93.5 -121t-141 -77.5t-170 -43t-187.5 -12.5h-51q-309 0 -471 149.5t-162 440.5v341v40h40h174h40v-40v-340
q0 -170 91.5 -251t287.5 -81h51q76 0 138 7.5t106 22t74 34.5t44.5 45t14.5 55v26h-122q-188 0 -288 97.5t-100 281.5q0 90 24.5 166.5t72 135t122 91.5t168.5 33q175 0 274 -114t99 -303zM858 383q0 -66 31.5 -94.5t108.5 -28.5h124v129q0 164 -128 164q-136 0 -136 -170z
" />
    <glyph glyph-name="uniFED6" unicode="&#x642;" horiz-adv-x="1466" arabic-form="final" 
d="M988 1073l168 169l169 -169q-6 -6 -12 -13q-13 -13 -70 -69.5t-87 -86.5zM626 1073l169 169l168 -169l-168 -169zM1471 0h-100v-26q0 -95 -35.5 -169.5t-93.5 -121.5t-140.5 -77.5t-170 -42.5t-187.5 -12h-51q-309 0 -471 149.5t-162 440.5v341v40h40h174h40v-40v-340
q0 -170 91.5 -251t287.5 -81h51q76 0 138 7.5t106 22t74 34.5t44.5 45t14.5 55v26h-122q-188 0 -288 97.5t-100 281.5q0 90 24.5 166.5t72 135t122 91.5t168.5 33q175 0 274 -114t99 -303v-128h100q11 0 18 -42t7 -81v-11q0 -41 -6.5 -83.5t-18.5 -42.5zM858 383
q0 -66 31.5 -94.5t108.5 -28.5h124v129q0 164 -128 164q-136 0 -136 -170z" />
    <glyph glyph-name="uniFED7" unicode="&#x642;" horiz-adv-x="898" arabic-form="initial" 
d="M-5 260h370q59 0 101 5.5t66 14t38 22.5t18 26.5t6 30.5q-65 -5 -112 -5q-193 0 -294.5 74.5t-101.5 237.5q0 172 101.5 283t278.5 111t274.5 -99.5t97.5 -266.5v-319q0 -375 -475 -375h-368q-12 0 -18.5 42.5t-6.5 83.5v11q0 39 7 81t18 42zM468 809q-71 0 -104 -32
t-33 -100q0 -49 29 -64t130 -15q49 0 105 6v93q0 55 -30 83.5t-97 28.5zM471 1320l168 169l169 -169q-6 -6 -12 -13q-13 -13 -70 -69.5t-87 -86.5zM109 1320l169 169l168 -169l-168 -169z" />
    <glyph glyph-name="uniFED8" unicode="&#x642;" horiz-adv-x="1022" arabic-form="medial" 
d="M1027 0h-136q-89 0 -183 18.5t-173 57.5q-155 -76 -357 -76h-183q-12 0 -18.5 42.5t-6.5 83.5v11q0 39 7 81t18 42h212q-62 94 -62 211q0 166 114 280.5t279 114.5q164 0 278 -113.5t114 -280.5q0 -118 -61 -212h158q11 0 18 -42t7 -81v-11q0 -41 -6.5 -83.5t-18.5 -42.5
zM682 470q0 59 -41 100t-104 41q-65 0 -105.5 -39.5t-40.5 -101.5q0 -57 43.5 -99t102.5 -42t102 41.5t43 99.5zM535 1150l168 169l169 -169q-6 -6 -12 -13q-13 -13 -70 -69.5t-87 -86.5zM173 1150l169 169l168 -169l-168 -169z" />
    <glyph glyph-name="uniFED9" unicode="&#x643;" horiz-adv-x="1889" arabic-form="isolated" 
d="M861 699q136 0 136 39v1q-1 1 -16.5 3.5t-38.5 8.5t-51.5 15.5t-56 27t-51 40t-37.5 57.5t-14 77q0 113 84 177t224 64q45 0 92 -7l34 -5v-35v-106v-44l-44 4q-18 2 -35.5 3t-34.5 1q-65 0 -96 -14t-31 -37q0 -12 14.5 -19t37.5 -11t51 -8.5t56 -15.5t51 -28.5
t37.5 -50.5t14.5 -79q0 -58 -20.5 -103t-53.5 -72.5t-78.5 -45.5t-91.5 -25t-97 -7q-53 0 -149 14l-34 5v34v114v45l44 -5q110 -12 154 -12zM538 260h814q97 0 142 53t45 175v805v40h40h167h40v-40v-808q0 -235 -112 -360t-327 -125h-812q-230 0 -351.5 124t-121.5 358v211
v40h40h175h40v-40v-210q0 -117 52.5 -170t168.5 -53z" />
    <glyph glyph-name="uniFEDA" unicode="&#x643;" horiz-adv-x="1969" arabic-form="final" 
d="M1975 -1h-32q-170 0 -270 122q-104 -121 -326 -121h-812q-230 0 -351.5 124t-121.5 358v211v40h40h175h40v-40v-210q0 -117 52.5 -170t168.5 -53h814q97 0 142 53t45 175v805v40h40h167h40v-40v-808q0 -58 11.5 -101t33 -69.5t51 -40t68.5 -14.5h25q11 0 18 -43t7 -81
v-11q0 -41 -6.5 -83.5t-18.5 -42.5zM861 699q136 0 136 39v1q-1 1 -16.5 3.5t-38.5 8.5t-51.5 15.5t-56 27t-51 40t-37.5 57.5t-14 77q0 113 84 177t224 64q45 0 92 -7l34 -5v-35v-106v-44l-44 4q-18 2 -35.5 3t-34.5 1q-65 0 -96 -14t-31 -37q0 -12 14.5 -19t37.5 -11
t51 -8.5t56 -15.5t51 -28.5t37.5 -50.5t14.5 -79q0 -58 -20.5 -103t-53.5 -72.5t-78.5 -45.5t-91.5 -25t-97 -7q-53 0 -149 14l-34 5v34v114v45l44 -5q110 -12 154 -12z" />
    <glyph glyph-name="uniFEDB" unicode="&#x643;" horiz-adv-x="938" arabic-form="initial" 
d="M-5 260h348q210 0 210 94q0 8 -9.5 27.5t-33.5 54.5t-59 75l-314 365q-66 76 -66 162q1 72 39.5 123t107.5 73l636 208v-55v-179v-29l-500 -163l268 -312q91 -105 134 -187t43 -163q0 -171 -120 -262.5t-338 -91.5h-346q-12 0 -18.5 42.5t-6.5 83.5v11q0 39 7 81t18 42z
" />
    <glyph glyph-name="uniFEDC" unicode="&#x643;" horiz-adv-x="1106" arabic-form="medial" 
d="M1111 0h-15q-196 0 -343 168q-102 -168 -412 -168h-347q-12 0 -18.5 42.5t-6.5 83.5v11q0 39 7 81t18 42h349q210 0 210 94q0 8 -9.5 27.5t-33.5 54.5t-59 75l-314 365q-66 76 -66 162q1 72 39.5 122.5t107.5 73.5l636 208v-55v-179v-29l-500 -163l531 -615
q32 -36 62 -64t55 -44.5t46.5 -24.5t38.5 -8h24q11 0 18 -42t7 -81v-11q0 -41 -6.5 -83.5t-18.5 -42.5z" />
    <glyph glyph-name="uniFEDD" unicode="&#x644;" horiz-adv-x="1334" arabic-form="isolated" 
d="M314 142q0 -170 79 -249t248 -79h53q151 0 221 74.5t70 237.5v1167v40h40h166h40v-40l-1 -1171q0 -278 -138.5 -423.5t-404.5 -145.5h-46q-285 0 -433 150t-148 438v341v40h40h174h40v-40v-340z" />
    <glyph glyph-name="uniFEDE" unicode="&#x644;" horiz-adv-x="1387" arabic-form="final" 
d="M1391 0h-30q-77 0 -134 27q-12 -151 -77.5 -256.5t-183 -161.5t-279.5 -56h-46q-285 0 -433 150t-148 438v341v40h40h174h40v-40v-340q0 -170 79 -249t248 -79h53q151 0 221 74.5t70 237.5v1167v40h40h166h40v-40l-1 -871q0 -61 14.5 -97.5t40.5 -50.5t69 -14h37
q11 0 18 -42t7 -81v-11q0 -41 -6.5 -83.5t-18.5 -42.5z" />
    <glyph glyph-name="uniFEDF" unicode="&#x644;" horiz-adv-x="621" arabic-form="initial" 
d="M-5 260h122q83 0 118.5 35t35.5 116v883v40h40h167h40v-40v-882q0 -198 -103.5 -305t-298.5 -107h-121q-12 0 -18.5 42.5t-6.5 83.5v11q0 39 7 81t18 42z" />
    <glyph glyph-name="uniFEE0" unicode="&#x644;" horiz-adv-x="679" arabic-form="medial" 
d="M684 0h-25q-164 0 -268 109q-55 -56 -128 -82.5t-153 -26.5h-116q-12 0 -18.5 42.5t-6.5 83.5v11q0 39 7 81t18 42h114q89 0 126 34t37 113v887v40h40h166h40v-40v-887q0 -83 31.5 -115t120.5 -32h15q11 0 18 -42t7 -81v-11q0 -41 -6.5 -83.5t-18.5 -42.5z" />
    <glyph glyph-name="uniFEE1" unicode="&#x645;" horiz-adv-x="1305" arabic-form="isolated" 
d="M840 569h-119v-161q0 -103 35 -146t110 -43q65 0 95.5 42.5t30.5 146.5v42q0 63 -34 91t-118 28zM310 199v-655v-40h-40h-170h-40v40l1 655q0 304 131 463t388 159h275q188 0 289 -95t101 -275v-44q0 -207 -96.5 -317t-282.5 -110q-194 0 -296 109.5t-102 316.5v145
q-82 -16 -120 -103.5t-38 -248.5z" />
    <glyph glyph-name="uniFEE2" unicode="&#x645;" horiz-adv-x="1387" arabic-form="final" 
d="M1392 0h-35q-135 0 -224 72q-97 -92 -267 -92q-194 0 -296 109.5t-102 316.5v144q-158 -30 -158 -351v-655v-40h-40h-170h-40v40v656q0 303 130.5 462t389.5 159h275q188 0 289 -95t101 -275v-44q0 -83 25.5 -115t82.5 -32h39q11 0 18 -42t7 -81v-11q0 -41 -6.5 -83.5
t-18.5 -42.5zM840 569h-119v-161q0 -103 35 -146t110 -43q65 0 95.5 42.5t30.5 146.5v42q0 63 -34 91t-118 28z" />
    <glyph glyph-name="uniFEE3" unicode="&#x645;" horiz-adv-x="1000" arabic-form="initial" 
d="M-6 260h101q41 0 63 6.5t27 14.5t6 22q3 44 3 112q0 206 96.5 316t272.5 110q186 0 281.5 -109t95.5 -319q0 -201 -98 -314t-279 -113q-153 0 -250 82q-78 -68 -216 -68h-103q-12 0 -18.5 42.5t-6.5 83.5v11q0 39 7 81t18 42zM565 240q62 0 93 40.5t31 136.5
q0 92 -29.5 129t-95.5 37q-64 0 -93.5 -37t-29.5 -129q0 -96 31 -136.5t93 -40.5z" />
    <glyph glyph-name="uniFEE4" unicode="&#x645;" horiz-adv-x="1061" arabic-form="medial" 
d="M1066 0h-32q-132 0 -219 69q-95 -83 -252 -83q-153 0 -250 82q-78 -68 -216 -68h-102q-12 0 -18.5 42.5t-6.5 83.5v11q0 39 7 81t18 42h100q41 0 63 6.5t27 14t6 22.5q3 44 3 112q0 206 96.5 316t272.5 110q186 0 281.5 -109t95.5 -319q0 -21 -3 -50t-5.5 -49.5
t-2.5 -22.5q0 -6 6 -12t31.5 -12.5t65.5 -6.5h34q11 0 18 -42t7 -81v-11q0 -41 -6.5 -83.5t-18.5 -42.5zM565 240q62 0 93 40.5t31 136.5q0 92 -29.5 129t-95.5 37q-64 0 -93.5 -37t-29.5 -129q0 -96 31 -136.5t93 -40.5z" />
    <glyph glyph-name="uniFEE5" unicode="&#x646;" horiz-adv-x="1437" arabic-form="isolated" 
d="M536 696l172 172l172 -172l-172 -172zM1377 671v-579q-6 -267 -169 -404t-464 -137h-51q-309 0 -471 149.5t-162 440.5v341v40h40h174h40v-40v-340q0 -170 91.5 -251t287.5 -81h51q197 0 287 68.5t90 208.5v584v40h40h176h40v-40z" />
    <glyph glyph-name="uniFEE6" unicode="&#x646;" horiz-adv-x="1590" arabic-form="final" 
d="M1595 0h-38q-118 0 -195 37q-16 -242 -173 -364t-445 -122h-51q-309 0 -471 149.5t-162 440.5v341v40h40h174h40v-40v-340q0 -170 91.5 -251t287.5 -81h51q197 0 287 68.5t90 208.5v584v40h40h176h40v-40v-234q0 -99 42.5 -138t146.5 -39h29q11 0 18 -42t7 -81v-11
q0 -41 -6.5 -83.5t-18.5 -42.5zM527.104 657.226l184.031 184.03l184.03 -184.03l-184.03 -184.031z" />
    <glyph glyph-name="uniFEE7" unicode="&#x646;" horiz-adv-x="677" arabic-form="initial" 
d="M-5 260h203q94 0 128 30t34 123v294v40h40h174h40v-40v-295q0 -200 -107 -306t-310 -106h-202q-12 0 -18.5 42.5t-6.5 83.5v11q0 39 7 81t18 42zM252 1066l172 172l172 -172l-172 -172z" />
    <glyph glyph-name="uniFEE8" unicode="&#x646;" horiz-adv-x="807" arabic-form="medial" 
d="M811 0h-20q-192 0 -290 113q-114 -113 -335 -113h-171q-12 0 -18.5 42.5t-6.5 83.5v11q0 39 7 81t18 42h176q114 0 157.5 36t43.5 119v258v40h40h171h40v-40v-258q0 -87 34.5 -121t132.5 -34h21q11 0 18 -42t7 -81v-11q0 -41 -6.5 -83.5t-18.5 -42.5zM272 1066l172 172
l172 -172l-172 -172z" />
    <glyph glyph-name="uniFEE9" unicode="&#x647;" horiz-adv-x="924" arabic-form="isolated" 
d="M310 359q0 -54 35.5 -78t122.5 -24q86 0 118.5 24t32.5 82q0 31 -40.5 94t-122.5 140q-56 -66 -88.5 -113t-45 -75.5t-12.5 -49.5zM467 0q-181 0 -292.5 91t-111.5 267q0 87 50 177t170 236l-9 8l-27 26l24 29l109 130l27 31l30 -27q121 -106 197.5 -183t131.5 -151
t78 -140t23 -137q0 -175 -110 -266t-290 -91z" />
    <glyph glyph-name="uniFEEA" unicode="&#x647;" horiz-adv-x="1060" arabic-form="final" 
d="M1019 0q-121 0 -213 47.5t-139 139.5h-154q-224 0 -338.5 85t-114.5 225q0 159 121.5 255t355.5 139l28 4l-4 29l-4 38l38 7l158 25l41 6l5 -41l68 -572q13 -77 48 -102t115 -25h35q11 0 18 -42t7 -81v-11q0 -41 -6.5 -83.5t-18.5 -42.5h-46zM619 440l-25 200l-17 -2
q-88 -13 -151.5 -35t-92.5 -46t-29 -47q0 -33 42.5 -51.5t151.5 -18.5h121z" />
    <glyph glyph-name="uniFEEB" unicode="&#x647;" horiz-adv-x="1309" arabic-form="initial" 
d="M-5 260h202q-61 87 -61 211q0 172 108.5 286t265.5 114q77 0 140 -25l69 102l24 35l34 -27q237 -190 354.5 -351t117.5 -305q0 -151 -95 -253.5t-238 -102.5q-206 0 -448 109q-198 -53 -378 -53h-95q-12 0 -18.5 42.5t-6.5 83.5v11q0 39 7 81t18 42zM489 310
q72 32 121 88t49 112q0 51 -35.5 90t-84.5 39q-70 0 -115.5 -48t-45.5 -122q0 -46 31.5 -92.5t79.5 -66.5zM855 535q2 -15 2 -30q0 -153 -141 -280q143 -35 192 -35q42 0 72.5 34.5t30.5 70.5q0 69 -156 240z" />
    <glyph glyph-name="uniFEEC" unicode="&#x647;" horiz-adv-x="991" arabic-form="medial" 
d="M997 0h-151q41 -84 41 -174q0 -131 -80 -222t-213 -91q-78 0 -145.5 32t-113.5 82.5t-80 116t-52 130t-22 126.5h-186q-12 0 -18.5 42.5t-6.5 83.5v11q0 39 7 81t18 42h187q54 592 392 592q65 0 119 -23.5t89.5 -62t60 -88.5t35.5 -102t11 -103q0 -111 -44 -213h152
q11 0 18 -42t7 -81v-11q0 -41 -6.5 -83.5t-18.5 -42.5zM653 -155q0 83 -40 119t-131 36h-62q11 -95 60 -167t110 -72q33 0 48 19t15 65zM652 447q0 71 -24.5 112.5t-61.5 41.5q-33 0 -62.5 -49t-50 -124.5t-31.5 -167.5l76 1q81 1 117.5 43.5t36.5 142.5z" />
    <glyph glyph-name="uniFEED" unicode="&#x648;" horiz-adv-x="880" arabic-form="isolated" 
d="M820 388v-348q0 -236 -163 -371.5t-455 -135.5h-74h-40v40v176v40h40h68q342 0 371 211h-119q-188 0 -288 97.5t-100 281.5q0 90 24.5 166.5t72 135t122 91.5t168.5 33q175 0 274 -114.5t99 -302.5zM307 383q0 -66 31.5 -94.5t108.5 -28.5h124v129q0 164 -128 164
q-136 0 -136 -170z" />
    <glyph glyph-name="uniFEEE" unicode="&#x648;" horiz-adv-x="916" arabic-form="final" 
d="M921 0h-102q-14 -220 -175.5 -343.5t-441.5 -123.5h-74h-40v40v176v40h40h68q342 0 371 211h-119q-188 0 -288 97.5t-100 281.5q0 90 24.5 166.5t72 135t122 91.5t168.5 33q175 0 274 -114t99 -303v-128h101q11 0 18 -42t7 -81v-11q0 -41 -6.5 -83.5t-18.5 -42.5z
M307 383q0 -66 31.5 -94.5t108.5 -28.5h124v129q0 164 -128 164q-136 0 -136 -170z" />
    <glyph glyph-name="uniFEEF" unicode="&#x649;" horiz-adv-x="1442" arabic-form="isolated" 
d="M686 332q0 234 114.5 364t309.5 130h231h40v-40l1 -175v-40h-40h-237q-81 0 -122 -55.5t-44 -183.5v-23h120q152 0 237 -66t85 -194v-29q0 -232 -155.5 -349.5t-450.5 -117.5h-84q-308 0 -469.5 150.5t-161.5 441.5v410v40h40h172h40v-40v-410q0 -170 91.5 -251.5
t287.5 -81.5h84q354 0 354 190v12q0 22 -12.5 31.5t-57.5 9.5h-158q-99 0 -157 54t-58 151v72z" />
    <glyph glyph-name="uniFEF0" unicode="&#x649;" horiz-adv-x="1495" arabic-form="final" 
d="M1386 0h-14v-39q0 -200 -153.5 -306t-435.5 -106h-96q-308 0 -467.5 150t-159.5 440v341v40h40l175 -1h40v-40v-339q0 -170 89.5 -250.5t282.5 -80.5h96q76 0 134 7.5t105 25t72 49.5t25 77v32h-213q-46 0 -71 27t-42 91q-23 82 -15 112t59 30h549q11 0 18 -42t7 -81v-11
q0 -41 -6.5 -83.5t-18.5 -42.5zM1509.6 260q6.85254 0 10.5635 -42t3.71094 -81v-11q0 -41 -3.71094 -83.5t-10.5635 -42.5h-148.455q-6.85254 0 -10.5635 42.5q-3.71191 42.5 -3.71191 83.5v11q0 39 3.71191 81q3.71094 42 10.5635 42h148.455z" />
    <glyph glyph-name="uniFEF1" unicode="&#x64a;" horiz-adv-x="1442" arabic-form="isolated" 
d="M746 -703l168 169l169 -169q-6 -6 -12 -13q-13 -13 -70 -69.5t-87 -86.5zM384 -703l169 169l168 -169l-168 -169zM686 332q0 234 114.5 364t309.5 130h231h40v-40l1 -175v-40h-40h-237q-81 0 -122 -55.5t-44 -183.5v-23h120q152 0 237 -66t85 -194v-29
q0 -232 -155.5 -349.5t-450.5 -117.5h-84q-308 0 -469.5 150.5t-161.5 441.5v410v40h40h172h40v-40v-410q0 -170 91.5 -251.5t287.5 -81.5h84q354 0 354 190v12q0 22 -12.5 31.5t-57.5 9.5h-158q-99 0 -157 54t-58 151v72z" />
    <glyph glyph-name="uniFEF2" unicode="&#x64a;" horiz-adv-x="1495" arabic-form="final" 
d="M742 -734l168 169l169 -169q-6 -6 -12 -13q-13 -13 -70 -69.5t-87 -86.5zM380 -734l169 169l168 -169l-168 -169zM1386 0h-14v-39q0 -200 -153.5 -306t-435.5 -106h-96q-308 0 -467.5 150t-159.5 440v341v40h40l175 -1h40v-40v-339q0 -170 89.5 -250.5t282.5 -80.5h96
q76 0 134 7.5t105 25t72 49.5t25 77v32h-213q-46 0 -71 27t-42 91q-23 82 -15 112t59 30h549q11 0 18 -42t7 -81v-11q0 -41 -6.5 -83.5t-18.5 -42.5zM1509.6 260q6.85254 0 10.5635 -42t3.71094 -81v-11q0 -41 -3.71094 -83.5t-10.5635 -42.5h-148.455
q-6.85254 0 -10.5635 42.5q-3.71191 42.5 -3.71191 83.5v11q0 39 3.71191 81q3.71094 42 10.5635 42h148.455z" />
    <glyph glyph-name="uniFEF3" unicode="&#x64a;" horiz-adv-x="757" arabic-form="initial" 
d="M281 -331l168 169l169 -169q-6 -6 -12 -13q-13 -13 -70 -69.5t-87 -86.5zM-81 -331l169 169l168 -169l-168 -169zM-5 260h283q94 0 128 30t34 123v294v40h40h174h40v-40v-295q0 -200 -106.5 -306t-308.5 -106h-284q-12 0 -18.5 42.5t-6.5 83.5v11q0 39 7 81t18 42z" />
    <glyph glyph-name="uniFEF4" unicode="&#x64a;" horiz-adv-x="877" arabic-form="medial" 
d="M281 -331l168 169l169 -169q-6 -6 -12 -13q-13 -13 -70 -69.5t-87 -86.5zM-81 -331l169 169l168 -169l-168 -169zM882 0h-21q-194 0 -290 112q-112 -112 -335 -112h-241q-12 0 -18.5 42.5t-6.5 83.5v11q0 39 7 81t18 42h246q114 0 157.5 36t43.5 119v258v40h40h171h40
v-40v-258q0 -87 34.5 -121t132.5 -34h22q11 0 18 -42t7 -81v-11q0 -41 -6.5 -83.5t-18.5 -42.5z" />
    <glyph glyph-name=".notdef" horiz-adv-x="908" 
d="M808 0h-708v1456h708v-1456zM754 84v1287l-274 -643zM154 1359v-1263l268 632zM194 54h515l-258 606zM451 796l258 606h-515z" />
    <glyph glyph-name="uni0000" 
 />
    <glyph glyph-name="uni0000" 
 />
    <glyph glyph-name="uni000D" unicode="&#xd;" horiz-adv-x="510" 
 />
    <glyph glyph-name="uni0002" 
 />
    <glyph glyph-name="space" unicode=" " horiz-adv-x="560" 
 />
    <glyph glyph-name="exclam" unicode="!" horiz-adv-x="632" 
d="M143 174q0 71 51 122.5t122 51.5t122 -51.5t51 -122.5t-51 -122t-122 -51q-72 0 -122.5 50t-50.5 123zM180 1326h276l-17 -851h-241z" />
    <glyph glyph-name="quotedbl" unicode="&#x22;" horiz-adv-x="657" 
d="M266 1398l-40 -411h-162v549h202v-138zM591 1398l-39 -411h-162v549h201v-138z" />
    <glyph glyph-name="numbersign" unicode="#" horiz-adv-x="1220" 
d="M667 410h-193l-72 -410h-183l72 410h-227v172h257l50 284h-232v174h263l73 416h182l-73 -416h194l73 416h183l-73 -416h219v-174h-250l-50 -284h224v-172h-254l-72 -410h-183zM504 582h193l50 284h-194z" />
    <glyph glyph-name="dollar" unicode="$" horiz-adv-x="1175" 
d="M790 383q0 82 -45.5 130.5t-154.5 89.5t-188 81.5t-135.5 93t-88 123.5t-31.5 169q0 169 108 277t287 126v214h160v-217q177 -25 277 -147.5t100 -317.5h-289q0 120 -49.5 179.5t-132.5 59.5q-82 0 -127 -46.5t-45 -128.5q0 -76 44 -122t163.5 -94t196.5 -90.5t130 -96
t81 -122t28 -159.5q0 -170 -106 -276t-292 -125v-199h-159v198q-205 22 -317.5 145.5t-112.5 328.5h289q0 -119 56.5 -182.5t162.5 -63.5q88 0 139 46.5t51 125.5z" />
    <glyph glyph-name="percent" unicode="%" horiz-adv-x="1512" 
d="M95 1176q0 134 87 217.5t228 83.5q143 0 230 -82.5t87 -223.5v-72q0 -135 -87 -217t-228 -82q-142 0 -229.5 82.5t-87.5 222.5v71zM287 1099q0 -60 34.5 -96.5t90.5 -36.5t89 37t33 99v74q0 60 -33 97t-91 37q-55 0 -89 -36.5t-34 -101.5v-73zM791 357q0 135 88 217.5
t228 82.5q142 0 229.5 -81.5t87.5 -224.5v-72q0 -134 -86 -216.5t-229 -82.5q-144 0 -231 83t-87 220v74zM983 279q0 -55 36 -94t90 -39q122 0 122 135v76q0 60 -34 96.5t-90 36.5t-90 -36.5t-34 -99.5v-75zM469 109l-141 76l711 1138l141 -76z" />
    <glyph glyph-name="ampersand" unicode="&#x26;" horiz-adv-x="1344" 
d="M71 392q0 101 56.5 187t207.5 191q-65 87 -102 163.5t-37 159.5q0 170 107.5 276.5t289.5 106.5q163 0 267.5 -97t104.5 -242q0 -174 -176 -307l-112 -81l251 -292q59 116 59 256h246q0 -284 -131 -460l218 -253h-328l-75 86q-161 -106 -370 -106q-216 0 -346 113.5
t-130 298.5zM561 212q104 0 197 58l-287 332l-21 -15q-89 -76 -89 -179q0 -87 55.5 -141.5t144.5 -54.5zM455 1097q0 -75 88 -189l77 51q59 38 81.5 74t22.5 86t-37 87t-95 37q-62 0 -99.5 -40t-37.5 -106z" />
    <glyph glyph-name="quotesingle" unicode="'" horiz-adv-x="331" 
d="M275 1389l-29 -404h-183v551h212v-147z" />
    <glyph glyph-name="parenleft" unicode="(" horiz-adv-x="719" 
d="M124 592q0 229 61 436t180 366.5t258 221.5l56 -156q-146 -108 -228 -334t-82 -528v-31q0 -303 81 -530t229 -339l-56 -153q-136 61 -253.5 215.5t-179.5 356.5t-66 422v53z" />
    <glyph glyph-name="parenright" unicode=")" horiz-adv-x="722" 
d="M609 569q0 -226 -65 -435t-187 -369t-261 -220l-56 153q142 107 224 330t85 513v53q0 299 -81.5 527t-227.5 342l56 153q136 -59 256.5 -214t187 -361t69.5 -427v-45z" />
    <glyph glyph-name="asterisk" unicode="*" horiz-adv-x="928" 
d="M341 962l-314 89l59 181l311 -125l-20 349h196l-20 -356l303 123l59 -183l-320 -89l210 -266l-159 -113l-182 292l-180 -282l-159 108z" />
    <glyph glyph-name="plus" unicode="+" horiz-adv-x="1118" 
d="M694 815h361v-261h-361v-408h-275v408h-362v261h362v391h275v-391z" />
    <glyph glyph-name="comma" unicode="," horiz-adv-x="500" 
d="M186 -365l-151 79l36 65q67 122 69 243v224h244l-1 -200q-1 -111 -56 -224t-141 -187z" />
    <glyph glyph-name="hyphen" unicode="-" horiz-adv-x="794" 
d="M673 507h-563v233h563v-233z" />
    <glyph glyph-name="period" unicode="." horiz-adv-x="632" 
d="M143 174q0 71 51 122.5t122 51.5t122 -51.5t51 -122.5t-51 -122t-122 -51q-72 0 -122.5 50t-50.5 123z" />
    <glyph glyph-name="slash" unicode="/" horiz-adv-x="765" 
d="M202 -125h-215l536 1581h215z" />
    <glyph glyph-name="zero" unicode="0" horiz-adv-x="1175" 
d="M1079 602q0 -302 -125 -462t-366 -160q-238 0 -364 157t-129 450v268q0 305 126.5 463t364.5 158t364 -156.5t129 -449.5v-268zM790 896q0 181 -49.5 263.5t-154.5 82.5q-102 0 -150.5 -78.5t-51.5 -245.5v-354q0 -178 48.5 -264.5t155.5 -86.5q106 0 153 83t49 254v346z
" />
    <glyph glyph-name="one" unicode="1" horiz-adv-x="1175" 
d="M801 0h-289v1114l-345 -107v235l603 216h31v-1458z" />
    <glyph glyph-name="two" unicode="2" horiz-adv-x="1175" 
d="M1097 0h-998v198l471 502q97 106 143.5 185t46.5 150q0 97 -49 152.5t-140 55.5q-98 0 -154.5 -67.5t-56.5 -177.5h-290q0 133 63.5 243t179.5 172.5t263 62.5q225 0 349.5 -108t124.5 -305q0 -108 -56 -220t-192 -261l-331 -349h626v-233z" />
    <glyph glyph-name="three" unicode="3" horiz-adv-x="1175" 
d="M393 856h154q110 0 163 55t53 146q0 88 -52.5 137t-144.5 49q-83 0 -139 -45.5t-56 -118.5h-289q0 114 61.5 204.5t172 141.5t243.5 51q231 0 362 -110.5t131 -304.5q0 -100 -61 -184t-160 -129q123 -44 183.5 -132t60.5 -208q0 -194 -141.5 -311t-374.5 -117
q-218 0 -356.5 115t-138.5 304h289q0 -82 61.5 -134t151.5 -52q103 0 161.5 54.5t58.5 144.5q0 218 -240 218h-153v226z" />
    <glyph glyph-name="four" unicode="4" horiz-adv-x="1175" 
d="M954 548h165v-233h-165v-315h-289v315h-597l-13 182l607 959h292v-908zM343 548h322v514l-19 -33z" />
    <glyph glyph-name="five" unicode="5" horiz-adv-x="1175" 
d="M142 716l84 740h816v-241h-579l-36 -313q103 55 219 55q208 0 326 -129t118 -361q0 -141 -59.5 -252.5t-170.5 -173t-262 -61.5q-132 0 -245 53.5t-178.5 150.5t-69.5 221h286q9 -91 63.5 -141.5t142.5 -50.5q98 0 151 70.5t53 199.5q0 124 -61 190t-173 66
q-103 0 -167 -54l-28 -26z" />
    <glyph glyph-name="six" unicode="6" horiz-adv-x="1175" 
d="M883 1471v-238h-28q-196 -3 -315.5 -102t-143.5 -275q116 118 293 118q190 0 302 -136t112 -358q0 -142 -61.5 -257t-174 -179t-254.5 -64q-230 0 -371.5 160t-141.5 427v104q0 237 89.5 418.5t257 281t388.5 100.5h48zM601 742q-70 0 -127 -36.5t-84 -96.5v-88
q0 -145 57 -226.5t160 -81.5q93 0 150.5 73.5t57.5 190.5q0 119 -58 192t-156 73z" />
    <glyph glyph-name="seven" unicode="7" horiz-adv-x="1175" 
d="M1089 1294l-563 -1294h-305l564 1222h-724v234h1028v-162z" />
    <glyph glyph-name="eight" unicode="8" horiz-adv-x="1175" 
d="M1048 1069q0 -106 -53 -188t-146 -131q106 -51 168 -140.5t62 -210.5q0 -194 -132 -306.5t-359 -112.5t-360 113t-133 306q0 121 62 211t167 140q-93 49 -145.5 131t-52.5 188q0 186 124 296.5t337 110.5q212 0 336.5 -109.5t124.5 -297.5zM789 420q0 95 -55 152t-148 57
q-92 0 -147 -56.5t-55 -152.5q0 -93 54 -150t150 -57q94 0 147.5 55t53.5 152zM759 1055q0 85 -45 136.5t-127 51.5q-81 0 -126 -50t-45 -138q0 -87 45 -140t127 -53t126.5 53t44.5 140z" />
    <glyph glyph-name="nine" unicode="9" horiz-adv-x="1175" 
d="M775 582q-113 -111 -264 -111q-193 0 -309 132.5t-116 357.5q0 143 62.5 262.5t174.5 186t252 66.5q144 0 256 -72t174 -207t63 -309v-107q0 -364 -181 -572t-513 -222l-71 -1v241l64 1q377 17 408 354zM582 692q70 0 120.5 36t76.5 87v119q0 147 -56 228t-150 81
q-87 0 -143 -79.5t-56 -199.5q0 -119 54.5 -195.5t153.5 -76.5z" />
    <glyph glyph-name="colon" unicode=":" horiz-adv-x="632" 
d="M143 794q0 71 51 122.5t122 51.5t122 -51.5t51 -122.5t-51 -122t-122 -51q-72 0 -122.5 50t-50.5 123zM143 174q0 71 51 122.5t122 51.5t122 -51.5t51 -122.5t-51 -122t-122 -51q-72 0 -122.5 50t-50.5 123z" />
    <glyph glyph-name="semicolon" unicode=";" horiz-adv-x="537" 
d="M125 993q0 71 51 122.5t122 51.5t122 -51.5t51 -122.5t-51 -122t-122 -51q-72 0 -122.5 50t-50.5 123zM208 -365l-151 79l36 65q67 122 69 243v224h244l-1 -200q-1 -111 -56 -224t-141 -187z" />
    <glyph glyph-name="less" unicode="&#x3c;" horiz-adv-x="1042" 
d="M345 618l570 -201v-280l-861 365v236l861 365v-280z" />
    <glyph glyph-name="equal" unicode="=" horiz-adv-x="1172" 
d="M1030 746h-894v236h894v-236zM1030 313h-894v236h894v-236z" />
    <glyph glyph-name="greater" unicode="&#x3e;" horiz-adv-x="1058" 
d="M701 621l-581 203v278l871 -365v-235l-871 -366v279z" />
    <glyph glyph-name="question" unicode="?" horiz-adv-x="1019" 
d="M347 447q0 140 34 223t124.5 163.5t120.5 131t30 106.5q0 169 -156 169q-74 0 -118.5 -45.5t-46.5 -125.5h-290q2 191 123.5 299t331.5 108q212 0 329 -102.5t117 -289.5q0 -85 -38 -160.5t-133 -167.5l-81 -77q-76 -73 -87 -171l-4 -61h-256zM318 140q0 67 45.5 110.5
t116.5 43.5t116.5 -43.5t45.5 -110.5q0 -66 -44.5 -109t-117.5 -43t-117.5 43t-44.5 109z" />
    <glyph glyph-name="at" unicode="@" horiz-adv-x="1833" 
d="M1749 536q-11 -256 -126.5 -406.5t-310.5 -150.5q-86 0 -148.5 37t-94.5 106q-100 -140 -261 -140q-146 0 -226 123t-60 325q18 165 83.5 293.5t165.5 197.5t216 69q143 0 244 -66l63 -43l-51 -578q-10 -79 17.5 -121t87.5 -42q92 0 154 107.5t68 281.5
q17 349 -140.5 536.5t-466.5 187.5q-193 0 -344 -98t-238 -278.5t-98 -413.5q-16 -354 142 -547.5t473 -193.5q83 0 174 18.5t157 49.5l38 -154q-61 -40 -164.5 -64.5t-208.5 -24.5q-264 0 -450 106.5t-277.5 314t-79.5 495.5q12 276 126 495t310.5 338.5t443.5 119.5
q251 0 432 -107.5t271 -307.5t79 -465zM744 430q-11 -132 23 -200.5t110 -68.5q49 0 93 43t73 124l42 473q-39 13 -80 13q-115 0 -178.5 -98t-82.5 -286z" />
    <glyph glyph-name="A" unicode="A" horiz-adv-x="1378" 
d="M952 300h-526l-100 -300h-319l542 1456h278l545 -1456h-319zM507 543h364l-183 545z" />
    <glyph glyph-name="B" unicode="B" horiz-adv-x="1307" 
d="M130 0v1456h510q265 0 402 -101.5t137 -297.5q0 -107 -55 -188.5t-153 -119.5q112 -28 176.5 -113t64.5 -208q0 -210 -134 -318t-382 -110h-566zM430 634v-393h257q106 0 165.5 50.5t59.5 139.5q0 200 -207 203h-275zM430 846h222q227 4 227 181q0 99 -57.5 142.5
t-181.5 43.5h-210v-367z" />
    <glyph glyph-name="C" unicode="C" horiz-adv-x="1340" 
d="M1273 485q-17 -235 -173.5 -370t-412.5 -135q-280 0 -440.5 188.5t-160.5 517.5v89q0 210 74 370t211.5 245.5t319.5 85.5q252 0 406 -135t178 -379h-300q-11 141 -78.5 204.5t-205.5 63.5q-150 0 -224.5 -107.5t-76.5 -333.5v-110q0 -236 71.5 -345t225.5 -109
q139 0 207.5 63.5t78.5 196.5h300z" />
    <glyph glyph-name="D" unicode="D" horiz-adv-x="1331" 
d="M130 0v1456h448q192 0 343.5 -86.5t236.5 -246t85 -362.5v-67q0 -203 -83.5 -361t-235.5 -245t-343 -88h-451zM430 1213v-972h145q176 0 269 115t95 329v77q0 222 -92 336.5t-269 114.5h-148z" />
    <glyph glyph-name="E" unicode="E" horiz-adv-x="1152" 
d="M1006 631h-576v-390h676v-241h-976v1456h974v-243h-674v-347h576v-235z" />
    <glyph glyph-name="F" unicode="F" horiz-adv-x="1122" 
d="M1006 595h-576v-595h-300v1456h948v-243h-648v-376h576v-242z" />
    <glyph glyph-name="G" unicode="G" horiz-adv-x="1395" 
d="M1282 184q-81 -97 -229 -150.5t-328 -53.5q-189 0 -331.5 82.5t-220 239.5t-79.5 369v99q0 218 73.5 377.5t212 244t324.5 84.5q259 0 405 -123.5t173 -359.5h-292q-20 125 -88.5 183t-188.5 58q-153 0 -233 -115t-81 -342v-93q0 -229 87 -346t255 -117q169 0 241 72v251
h-273v221h573v-581z" />
    <glyph glyph-name="H" unicode="H" horiz-adv-x="1447" 
d="M1315 0h-300v624h-585v-624h-300v1456h300v-590h585v590h300v-1456z" />
    <glyph glyph-name="I" unicode="I" horiz-adv-x="597" 
d="M449 0h-300v1456h300v-1456z" />
    <glyph glyph-name="J" unicode="J" horiz-adv-x="1144" 
d="M717 1456h300v-1008q0 -139 -61.5 -245.5t-173.5 -164.5t-253 -58q-231 0 -360 117.5t-129 332.5h302q0 -107 45 -158t142 -51q86 0 137 59t51 168v1008z" />
    <glyph glyph-name="K" unicode="K" horiz-adv-x="1300" 
d="M586 584l-156 -168v-416h-300v1456h300v-660l132 181l371 479h369l-517 -647l532 -809h-357z" />
    <glyph glyph-name="L" unicode="L" horiz-adv-x="1109" 
d="M430 241h637v-241h-937v1456h300v-1215z" />
    <glyph glyph-name="M" unicode="M" horiz-adv-x="1794" 
d="M522 1456l374 -1056l372 1056h394v-1456h-301v398l30 687l-393 -1085h-206l-392 1084l30 -686v-398h-300v1456h392z" />
    <glyph glyph-name="N" unicode="N" horiz-adv-x="1446" 
d="M1314 0h-300l-584 958v-958h-300v1456h300l585 -960v960h299v-1456z" />
    <glyph glyph-name="O" unicode="O" horiz-adv-x="1414" 
d="M1326 695q0 -215 -76 -377t-217.5 -250t-324.5 -88q-181 0 -323 87t-220 248.5t-79 371.5v72q0 215 77.5 378.5t219 251t323.5 87.5t323.5 -87.5t219 -251t77.5 -377.5v-65zM1022 761q0 229 -82 348t-234 119q-151 0 -233 -117.5t-83 -344.5v-71q0 -223 82 -346t236 -123
q151 0 232 118.5t82 345.5v71z" />
    <glyph glyph-name="P" unicode="P" horiz-adv-x="1321" 
d="M430 513v-513h-300v1456h568q164 0 288.5 -60t191.5 -170.5t67 -251.5q0 -214 -146.5 -337.5t-405.5 -123.5h-263zM430 756h268q119 0 181.5 56t62.5 160q0 107 -63 173t-174 68h-275v-457z" />
    <glyph glyph-name="Q" unicode="Q" horiz-adv-x="1414" 
d="M1324 695q0 -204 -66 -354.5t-183 -241.5l242 -190l-191 -169l-310 249q-53 -9 -110 -9q-181 0 -323 87t-220 248.5t-79 371.5v72q0 215 77.5 378.5t219 251t323.5 87.5t323.5 -87.5t219 -251t77.5 -377.5v-65zM1020 761q0 229 -82 348t-234 119q-151 0 -233 -117.5
t-83 -344.5v-71q0 -223 82 -346t236 -123q151 0 232 118.5t82 345.5v71z" />
    <glyph glyph-name="R" unicode="R" horiz-adv-x="1307" 
d="M669 533h-239v-533h-300v1456h541q258 0 398 -115t140 -325q0 -149 -64.5 -248.5t-195.5 -158.5l315 -595v-14h-322zM430 776h242q113 0 175 57.5t62 158.5q0 103 -58.5 162t-179.5 59h-241v-437z" />
    <glyph glyph-name="S" unicode="S" horiz-adv-x="1259" 
d="M885 382q0 85 -60 130.5t-216 96t-247 99.5q-248 134 -248 361q0 118 66.5 210.5t191 144.5t279.5 52q156 0 278 -56.5t189.5 -159.5t67.5 -234h-300q0 100 -63 155.5t-177 55.5q-110 0 -171 -46.5t-61 -122.5q0 -71 71.5 -119t210.5 -90q256 -77 373 -191t117 -284
q0 -189 -143 -296.5t-385 -107.5q-168 0 -306 61.5t-210.5 168.5t-72.5 248h301q0 -241 288 -241q107 0 167 43.5t60 121.5z" />
    <glyph glyph-name="T" unicode="T" horiz-adv-x="1267" 
d="M1226 1213h-446v-1213h-300v1213h-440v243h1186v-243z" />
    <glyph glyph-name="U" unicode="U" horiz-adv-x="1348" 
d="M1232 1456v-959q0 -239 -149.5 -378t-408.5 -139q-255 0 -405 135t-153 371v970h300v-961q0 -143 68.5 -208.5t189.5 -65.5q253 0 257 266v969h301z" />
    <glyph glyph-name="V" unicode="V" horiz-adv-x="1339" 
d="M668 361l330 1095h334l-507 -1456h-313l-505 1456h333z" />
    <glyph glyph-name="W" unicode="W" horiz-adv-x="1791" 
d="M1264 420l196 1036h299l-323 -1456h-302l-237 974l-237 -974h-302l-323 1456h299l197 -1034l240 1034h254z" />
    <glyph glyph-name="X" unicode="X" horiz-adv-x="1301" 
d="M651 954l273 502h345l-424 -722l435 -734h-349l-280 510l-280 -510h-349l435 734l-424 722h345z" />
    <glyph glyph-name="Y" unicode="Y" horiz-adv-x="1266" 
d="M632 800l303 656h328l-478 -928v-528h-305v528l-478 928h329z" />
    <glyph glyph-name="Z" unicode="Z" horiz-adv-x="1241" 
d="M448 241h734v-241h-1109v176l720 1037h-719v243h1092v-172z" />
    <glyph glyph-name="bracketleft" unicode="[" horiz-adv-x="569" 
d="M552 1471h-142v-1587h142v-223h-432v2033h432v-223z" />
    <glyph glyph-name="backslash" unicode="\" horiz-adv-x="864" 
d="M0 1456h295l608 -1581h-296z" />
    <glyph glyph-name="bracketright" unicode="]" horiz-adv-x="569" 
d="M13 1694h432v-2033h-432v223h143v1587h-143v223z" />
    <glyph glyph-name="asciicircum" unicode="^" horiz-adv-x="895" 
d="M448 1186l-174 -457h-230l299 727h210l299 -727h-229z" />
    <glyph glyph-name="underscore" unicode="_" horiz-adv-x="914" 
d="M912 -226h-911v226h911v-226z" />
    <glyph glyph-name="grave" unicode="`" horiz-adv-x="677" 
d="M565 1226h-237l-276 310h315z" />
    <glyph glyph-name="a" unicode="a" horiz-adv-x="1098" 
d="M738 0q-20 39 -29 97q-105 -117 -273 -117q-159 0 -263.5 92t-104.5 232q0 172 127.5 264t368.5 93h133v62q0 75 -38.5 120t-121.5 45q-73 0 -114.5 -35t-41.5 -96h-289q0 94 58 174t164 125.5t238 45.5q200 0 317.5 -100.5t117.5 -282.5v-469q1 -154 43 -233v-17h-292z
M499 201q64 0 118 28.5t80 76.5v186h-108q-217 0 -231 -150l-1 -17q0 -54 38 -89t104 -35z" />
    <glyph glyph-name="b" unicode="b" horiz-adv-x="1153" 
d="M1086 531q0 -260 -111 -405.5t-310 -145.5q-176 0 -281 135l-13 -115h-260v1536h289v-551q100 117 263 117q198 0 310.5 -145.5t112.5 -409.5v-16zM797 552q0 164 -52 239.5t-155 75.5q-138 0 -190 -113v-427q53 -114 192 -114q140 0 184 138q21 66 21 201z" />
    <glyph glyph-name="c" unicode="c" horiz-adv-x="1068" 
d="M561 213q80 0 130 44t52 117h271q-1 -110 -60 -201.5t-161.5 -142t-226.5 -50.5q-232 0 -366 147.5t-134 407.5v19q0 250 133 399t365 149q203 0 325.5 -115.5t124.5 -307.5h-271q-2 84 -52 136.5t-132 52.5q-101 0 -152.5 -73.5t-51.5 -238.5v-30q0 -167 51 -240
t155 -73z" />
    <glyph glyph-name="d" unicode="d" horiz-adv-x="1154" 
d="M66 549q0 253 113.5 403t310.5 150q158 0 261 -118v552h290v-1536h-261l-14 115q-108 -135 -278 -135q-191 0 -306.5 150.5t-115.5 418.5zM355 528q0 -152 53 -233t154 -81q134 0 189 113v427q-54 113 -187 113q-209 0 -209 -339z" />
    <glyph glyph-name="e" unicode="e" horiz-adv-x="1107" 
d="M609 -20q-238 0 -387.5 146t-149.5 389v28q0 163 63 291.5t178.5 198t263.5 69.5q222 0 349.5 -140t127.5 -397v-118h-689q14 -106 84.5 -170t178.5 -64q167 0 261 121l142 -159q-65 -92 -176 -143.5t-246 -51.5zM576 868q-86 0 -139.5 -58t-68.5 -166h402v23
q-2 96 -52 148.5t-142 52.5z" />
    <glyph glyph-name="f" unicode="f" horiz-adv-x="734" 
d="M190 0v870h-161v212h161v92q0 182 104.5 282.5t292.5 100.5q60 0 147 -20l-3 -224q-36 9 -88 9q-163 0 -163 -153v-87h215v-212h-215v-870h-290z" />
    <glyph glyph-name="g" unicode="g" horiz-adv-x="1169" 
d="M69 549q0 249 118.5 401t319.5 152q178 0 277 -122l12 102h262v-1046q0 -142 -64.5 -247t-181.5 -160t-274 -55q-119 0 -232 47.5t-171 122.5l128 176q108 -121 262 -121q115 0 179 61.5t64 174.5v58q-100 -113 -263 -113q-195 0 -315.5 152.5t-120.5 404.5v12zM358 528
q0 -147 59 -230.5t162 -83.5q132 0 189 99v455q-58 99 -187 99q-104 0 -163.5 -85t-59.5 -254z" />
    <glyph glyph-name="h" unicode="h" horiz-adv-x="1146" 
d="M393 964q115 138 289 138q352 0 357 -409v-693h-289v685q0 93 -40 137.5t-133 44.5q-127 0 -184 -98v-769h-289v1536h289v-572z" />
    <glyph glyph-name="i" unicode="i" horiz-adv-x="543" 
d="M416 0h-290v1082h290v-1082zM109 1362q0 65 43.5 107t118.5 42q74 0 118 -42t44 -107q0 -66 -44.5 -108t-117.5 -42t-117.5 42t-44.5 108z" />
    <glyph glyph-name="j" unicode="j" horiz-adv-x="532" 
d="M417 1082v-1141q0 -179 -95 -278.5t-274 -99.5q-75 0 -143 17v229q52 -9 91 -9q131 0 131 139v1143h290zM104 1362q0 65 43.5 107t118.5 42t118.5 -42t43.5 -107q0 -66 -44.5 -108t-117.5 -42t-117.5 42t-44.5 108z" />
    <glyph glyph-name="k" unicode="k" horiz-adv-x="1094" 
d="M504 434l-104 -104v-330h-289v1536h289v-851l56 72l277 325h347l-391 -451l425 -631h-332z" />
    <glyph glyph-name="l" unicode="l" horiz-adv-x="543" 
d="M416 0h-290v1536h290v-1536z" />
    <glyph glyph-name="m" unicode="m" horiz-adv-x="1773" 
d="M382 1082l9 -121q115 141 311 141q209 0 287 -165q114 165 325 165q176 0 262 -102.5t86 -308.5v-691h-290v690q0 92 -36 134.5t-127 42.5q-130 0 -180 -124l1 -743h-289v689q0 94 -37 136t-126 42q-123 0 -178 -102v-765h-289v1082h271z" />
    <glyph glyph-name="n" unicode="n" horiz-adv-x="1147" 
d="M377 1082l9 -125q116 145 311 145q172 0 256 -101t86 -302v-699h-289v692q0 92 -40 133.5t-133 41.5q-122 0 -183 -104v-763h-289v1082h272z" />
    <glyph glyph-name="o" unicode="o" horiz-adv-x="1158" 
d="M66 551q0 161 62 287t178.5 195t270.5 69q219 0 357.5 -134t154.5 -364l2 -74q0 -249 -139 -399.5t-373 -150.5t-373.5 150t-139.5 408v13zM355 530q0 -154 58 -235.5t166 -81.5q105 0 164 80.5t59 257.5q0 151 -59 234t-166 83q-106 0 -164 -82.5t-58 -255.5z" />
    <glyph glyph-name="p" unicode="p" horiz-adv-x="1153" 
d="M1085 531q0 -250 -113.5 -400.5t-306.5 -150.5q-164 0 -265 114v-510h-289v1498h268l10 -106q105 126 274 126q200 0 311 -148t111 -408v-15zM796 552q0 151 -53.5 233t-155.5 82q-136 0 -187 -104v-443q53 -107 189 -107q207 0 207 339z" />
    <glyph glyph-name="q" unicode="q" horiz-adv-x="1157" 
d="M66 551q0 255 113.5 403t311.5 148q174 0 277 -133l19 113h254v-1498h-290v509q-100 -113 -262 -113q-193 0 -308 150t-115 421zM355 530q0 -155 54.5 -236t153.5 -81q133 0 188 106v447q-54 102 -186 102q-100 0 -155 -81t-55 -257z" />
    <glyph glyph-name="r" unicode="r" horiz-adv-x="747" 
d="M719 811q-59 8 -104 8q-164 0 -215 -111v-708h-289v1082h273l8 -129q87 149 241 149q48 0 90 -13z" />
    <glyph glyph-name="s" unicode="s" horiz-adv-x="1053" 
d="M697 299q0 53 -52.5 83.5t-168.5 54.5q-386 81 -386 328q0 144 119.5 240.5t312.5 96.5q206 0 329.5 -97t123.5 -252h-289q0 62 -40 102.5t-125 40.5q-73 0 -113 -33t-40 -84q0 -48 45.5 -77.5t153.5 -51t182 -48.5q229 -84 229 -291q0 -148 -127 -239.5t-328 -91.5
q-136 0 -241.5 48.5t-165.5 133t-60 182.5h274q4 -77 57 -118t142 -41q83 0 125.5 31.5t42.5 82.5z" />
    <glyph glyph-name="t" unicode="t" horiz-adv-x="692" 
d="M457 1348v-266h185v-212h-185v-540q0 -60 23 -86t88 -26q48 0 85 7v-219q-85 -26 -175 -26q-304 0 -310 307v583h-158v212h158v266h289z" />
    <glyph glyph-name="u" unicode="u" horiz-adv-x="1146" 
d="M759 110q-107 -130 -296 -130q-174 0 -265.5 100t-93.5 293v709h289v-699q0 -169 154 -169q147 0 202 102v766h290v-1082h-272z" />
    <glyph glyph-name="v" unicode="v" horiz-adv-x="1035" 
d="M516 353l201 729h302l-365 -1082h-276l-365 1082h302z" />
    <glyph glyph-name="w" unicode="w" horiz-adv-x="1505" 
d="M1052 393l142 689h279l-276 -1082h-242l-205 681l-205 -681h-241l-276 1082h279l141 -688l198 688h209z" />
    <glyph glyph-name="x" unicode="x" horiz-adv-x="1042" 
d="M523 759l182 323h309l-308 -530l321 -552h-310l-193 340l-192 -340h-311l321 552l-307 530h310z" />
    <glyph glyph-name="y" unicode="y" horiz-adv-x="1028" 
d="M515 409l200 673h310l-435 -1250l-24 -57q-97 -212 -320 -212q-63 0 -128 19v219l44 -1q82 0 122.5 25t63.5 83l34 89l-379 1085h311z" />
    <glyph glyph-name="z" unicode="z" horiz-adv-x="1042" 
d="M443 233h529v-233h-898v176l509 672h-494v234h867v-171z" />
    <glyph glyph-name="braceleft" unicode="{" horiz-adv-x="676" 
d="M586 -360q-360 101 -360 465v199q0 211 -178 211v207q174 0 178 199v212q0 185 90 299t270 165l56 -161q-76 -28 -115 -97.5t-41 -192.5v-210q0 -226 -179 -317q179 -92 179 -319v-212q5 -234 156 -286z" />
    <glyph glyph-name="bar" unicode="|" horiz-adv-x="518" 
d="M348 -270h-175v1726h175v-1726z" />
    <glyph glyph-name="braceright" unicode="}" horiz-adv-x="676" 
d="M34 -198q152 54 156 290v212q0 226 183 314q-183 88 -183 319v209q-4 233 -156 290l56 161q179 -50 269 -163.5t91 -297.5v-215q4 -199 178 -199v-207q-178 0 -178 -209v-217q-8 -350 -360 -449z" />
    <glyph glyph-name="asciitilde" unicode="~" horiz-adv-x="1328" 
d="M1221 793q0 -186 -93 -302t-240 -116q-74 0 -137.5 28.5t-146.5 108t-153 79.5q-58 0 -94 -50t-36 -128l-215 2q0 186 90.5 299t240.5 113q78 0 142 -30t145.5 -107.5t148.5 -77.5q59 0 96.5 53t37.5 129z" />
    <glyph glyph-name="uni00A0" unicode="&#xa0;" horiz-adv-x="560" 
 />
    <glyph glyph-name="exclamdown" unicode="&#xa1;" horiz-adv-x="578" 
d="M170 639h241l33 -1008h-307zM452 948q0 -67 -46 -110t-116 -43t-116 43t-46 110t44.5 110t117.5 43t117.5 -43t44.5 -110z" />
    <glyph glyph-name="cent" unicode="&#xa2;" horiz-adv-x="1178" 
d="M594 213q80 0 130 44t52 117h272q-2 -145 -98.5 -250.5t-251.5 -134.5v-234h-200v233q-187 30 -293 174t-106 370v22q0 218 105 363t294 177v224h200v-225q163 -29 255.5 -140t94.5 -274h-272q-2 86 -52 137.5t-131 51.5q-102 0 -153 -74.5t-52 -234.5v-33
q0 -168 51.5 -240.5t154.5 -72.5z" />
    <glyph glyph-name="sterling" unicode="&#xa3;" horiz-adv-x="1217" 
d="M564 576l6 -139q0 -123 -62 -196h653v-241h-1059v241h92q72 18 72 179l-5 156h-162v236h154l-7 227q0 202 123.5 319t330.5 117q212 0 333 -112.5t121 -304.5h-287q0 85 -43.5 130t-124.5 45q-66 0 -109.5 -49t-43.5 -145l9 -227h309v-236h-300z" />
    <glyph glyph-name="currency" unicode="&#xa4;" horiz-adv-x="1418" 
d="M1073 107q-159 -127 -361 -127q-203 0 -361 126l-129 -132l-141 144l135 137q-100 156 -100 353q0 204 109 365l-144 147l141 144l142 -145q155 115 348 115q194 0 349 -117l144 148l142 -145l-148 -151q107 -159 107 -361q0 -193 -98 -349l139 -141l-142 -145zM302 608
q0 -118 54 -219.5t149.5 -160t206.5 -58.5q110 0 205.5 58.5t149.5 160t54 219.5q0 119 -54 219.5t-149 158.5t-206 58q-112 0 -207 -58t-149 -158.5t-54 -219.5z" />
    <glyph glyph-name="yen" unicode="&#xa5;" horiz-adv-x="1098" 
d="M550 892l224 564h313l-322 -714h218v-175h-288v-115h288v-174h-288v-278h-300v278h-306v174h306v115h-306v175h244l-323 714h315z" />
    <glyph glyph-name="brokenbar" unicode="&#xa6;" horiz-adv-x="516" 
d="M128 -270v795h260v-795h-260zM388 698h-260v758h260v-758z" />
    <glyph glyph-name="section" unicode="&#xa7;" horiz-adv-x="1287" 
d="M1180 481q0 -182 -162 -271q135 -102 135 -288q0 -175 -137.5 -274.5t-379.5 -99.5q-257 0 -400.5 107t-143.5 310l289 1q0 -89 64 -136.5t191 -47.5q112 0 170 37.5t58 100.5q0 65 -64.5 106t-247 91.5t-275 105.5t-138 130t-45.5 181q0 180 162 273q-136 103 -136 288
q0 171 140.5 276t379.5 105q247 0 383 -113t136 -314h-289q0 87 -61.5 140.5t-168.5 53.5q-110 0 -170 -39t-60 -107q0 -73 55.5 -110t240.5 -86t282.5 -104t144.5 -131.5t47 -184.5zM458 704q-75 -42 -75 -141q0 -69 41.5 -106.5t165.5 -77.5l222 -67q82 47 82 140
q0 62 -45.5 101.5t-163.5 79.5z" />
    <glyph glyph-name="dieresis" unicode="&#xa8;" horiz-adv-x="956" 
d="M371 1365q0 -53 -39 -89.5t-100 -36.5q-62 0 -100 37t-38 89t38 89.5t100 37.5t100.5 -37.5t38.5 -89.5zM581 1365q0 54 40.5 90.5t98.5 36.5q59 0 98.5 -37t39.5 -90q0 -52 -38 -89.5t-100 -37.5t-100.5 37.5t-38.5 89.5z" />
    <glyph glyph-name="copyright" unicode="&#xa9;" horiz-adv-x="1606" 
d="M1117 596q0 -152 -87.5 -233t-247.5 -81t-254.5 106.5t-94.5 286.5v113q0 174 95.5 280.5t253.5 106.5q163 0 249.5 -82.5t86.5 -231.5h-156q0 96 -46 137.5t-134 41.5q-92 0 -142.5 -67.5t-51.5 -180.5v-123q0 -117 51 -184.5t143 -67.5q89 0 134 40.5t45 138.5h156z
M1383 729q0 166 -75 308.5t-212 228t-300 85.5q-159 0 -295.5 -82t-214.5 -226t-78 -314t77.5 -314t214 -227.5t296.5 -83.5t297.5 85t213.5 229t76 311zM86 729q0 202 93.5 375t259 272.5t357.5 99.5t357.5 -99.5t259 -272.5t93.5 -375q0 -204 -95 -377.5t-259.5 -272.5
t-355.5 -99q-193 0 -357.5 100t-258.5 273t-94 376z" />
    <glyph glyph-name="ordfeminine" unicode="&#xaa;" horiz-adv-x="909" 
d="M604 705q-10 27 -17 68q-77 -82 -201 -82q-118 0 -183.5 61.5t-65.5 166.5q0 110 84 170.5t257 60.5h102v51q0 127 -116 127q-65 0 -101.5 -25.5t-36.5 -73.5l-173 14q0 104 87.5 168.5t223.5 64.5q135 0 213 -72t78 -205v-316q0 -97 26 -178h-177zM429 835q40 0 82 18.5
t69 43.5v136h-106q-76 -1 -119 -31t-43 -79q0 -88 117 -88z" />
    <glyph glyph-name="guillemotleft" unicode="&#xab;" horiz-adv-x="957" 
d="M486 927q-34 -59 -50.5 -88t-43 -82t-39 -89t-23 -82.5t-10.5 -88.5q0 -36 5.5 -72t19.5 -75t25.5 -68.5t35.5 -74.5t37.5 -68.5t42.5 -73.5l34 -60h-69h-152h-21l-12 18q-89 133 -137.5 246t-48.5 228q0 50 9 99.5t19.5 84t34.5 82.5t36.5 69t44.5 71.5t40 64.5l12 19
h22h153h69zM862 927q-12 -20 -34 -56.5t-34 -57.5t-30 -54.5t-28 -60t-20.5 -60t-15 -69t-4.5 -72.5q0 -43 10.5 -89.5t23 -82.5t39 -89.5t42.5 -82.5t51 -88l34 -60h-69h-152h-21l-12 18q-2 3 -25 37t-27 40.5t-24.5 38.5t-26 44t-21.5 43t-21.5 49t-16 48.5t-14 55t-7 56
t-3.5 62.5q0 50 9 99.5t19.5 84t34.5 82.5t36.5 69t44.5 71.5t40 64.5l12 19h22h153h69z" />
    <glyph glyph-name="logicalnot" unicode="&#xac;" horiz-adv-x="1129" 
d="M961 374h-200v260h-635v171h835v-431z" />
    <glyph glyph-name="uni00AD" unicode="&#xad;" horiz-adv-x="794" 
d="M673 507h-563v233h563v-233z" />
    <glyph glyph-name="registered" unicode="&#xae;" horiz-adv-x="1606" 
d="M86 729q0 202 93.5 375t259 272.5t357.5 99.5t357.5 -99.5t259 -272.5t93.5 -375q0 -204 -95 -377.5t-259.5 -272.5t-355.5 -99q-193 0 -357.5 100t-258.5 273t-94 376zM1383 729q0 166 -75 308.5t-212 228t-300 85.5q-159 0 -295.5 -82t-214.5 -226t-78 -314t77.5 -314
t214 -227.5t296.5 -83.5t297.5 85t213.5 229t76 311zM652 653v-337h-151v850h281q151 0 238 -68.5t87 -194.5q0 -112 -113 -174q61 -31 85.5 -86.5t24.5 -137.5t3.5 -116t13.5 -57v-16h-155q-13 34 -13 194q0 76 -33 109.5t-110 33.5h-158zM652 787h136q74 0 121.5 32
t47.5 84q0 70 -35.5 99.5t-128.5 30.5h-141v-246z" />
    <glyph glyph-name="macron" unicode="&#xaf;" horiz-adv-x="1026" 
d="M858 1287h-690v167h690v-167z" />
    <glyph glyph-name="degree" unicode="&#xb0;" horiz-adv-x="795" 
d="M126 1200q0 114 81 195t191 81q109 0 188.5 -80.5t79.5 -195.5t-79.5 -193.5t-188.5 -78.5q-108 0 -190 78.5t-82 193.5zM398 1076q53 0 87.5 35.5t34.5 88.5q0 52 -34.5 90t-87.5 38t-89 -38t-36 -90t36.5 -88t88.5 -36z" />
    <glyph glyph-name="plusminus" unicode="&#xb1;" horiz-adv-x="1100" 
d="M677 942h328v-241h-328v-364h-253v364h-335v241h335v343h253v-343zM977 1h-864v235h864v-235z" />
    <glyph glyph-name="uni00B2" unicode="&#xb2;" horiz-adv-x="763" 
d="M693 667h-620v138l287 257q56 49 80.5 91t24.5 65q0 84 -95 84q-50 0 -79.5 -31t-29.5 -78h-206q0 116 85.5 195t220.5 79q148 0 228.5 -64.5t80.5 -183.5q0 -70 -36 -128t-144 -145l-148 -115h351v-164z" />
    <glyph glyph-name="uni00B3" unicode="&#xb3;" horiz-adv-x="763" 
d="M273 1137h82q119 0 119 88q0 35 -28.5 56t-77.5 21q-42 0 -71.5 -15.5t-29.5 -44.5h-205q0 102 84.5 163.5t215.5 61.5q145 0 230.5 -59.5t85.5 -166.5q0 -119 -135 -169q150 -41 150 -184q0 -105 -91.5 -168.5t-239.5 -63.5q-142 0 -228 66.5t-86 180.5h206
q0 -34 34 -58.5t86 -24.5q60 0 86.5 26.5t26.5 61.5q0 92 -122 93h-92v136z" />
    <glyph glyph-name="acute" unicode="&#xb4;" horiz-adv-x="679" 
d="M298 1536h315l-277 -310h-235z" />
    <glyph glyph-name="mu" unicode="&#xb5;" horiz-adv-x="1261" 
d="M428 1082v-623q0 -126 40.5 -185.5t139.5 -59.5q149 0 205 105v763h289v-1082h-269l-6 68q-89 -89 -225 -89q-102 0 -174 45v-440h-289v1498h289z" />
    <glyph glyph-name="paragraph" unicode="&#xb6;" horiz-adv-x="1003" 
d="M650 0v520h-80q-230 0 -362.5 127t-132.5 341q0 213 133 340.5t363 127.5h298v-1456h-219z" />
    <glyph glyph-name="periodcentered" unicode="&#xb7;" horiz-adv-x="617" 
d="M140 697q0 69 46 112t117 43t117.5 -43t46.5 -112t-47 -111.5t-117 -42.5q-72 0 -117.5 43.5t-45.5 110.5z" />
    <glyph glyph-name="cedilla" unicode="&#xb8;" horiz-adv-x="548" 
d="M345 7l-11 -58q150 -27 150 -173q0 -110 -91.5 -174t-257.5 -64l-7 167q112 0 112 81q0 42 -33.5 57.5t-108.5 20.5l31 143h216z" />
    <glyph glyph-name="uni00B9" unicode="&#xb9;" horiz-adv-x="763" 
d="M528 667h-204v548l-189 -41v158l374 121h19v-786z" />
    <glyph glyph-name="ordmasculine" unicode="&#xba;" horiz-adv-x="936" 
d="M118 1121q0 160 95.5 257.5t250.5 97.5t251 -97t96 -263v-72q0 -159 -94 -256.5t-251 -97.5q-158 0 -253 98t-95 261v72zM293 1044q0 -98 46.5 -153t126.5 -55q78 0 123.5 54t46.5 151v80q0 97 -46.5 152t-125.5 55q-78 0 -124.5 -54.5t-46.5 -156.5v-73z" />
    <glyph glyph-name="guillemotright" unicode="&#xbb;" horiz-adv-x="957" 
d="M506 987h153h22l12 -19q38 -62 57.5 -95t48 -88.5t42.5 -96t25 -92t11 -100.5q0 -114 -48.5 -227t-137.5 -246l-12 -18h-21h-152h-69l34 60q35 60 51 88t43 81.5t39 89.5t22.5 83t10.5 89t-10.5 89t-22.5 82.5t-39 89t-43 82t-51 88.5l-34 60h69zM130 987h153h22l12 -19
q38 -62 57.5 -95t48 -88.5t42.5 -96t25 -92t11 -100.5q0 -114 -48.5 -227t-137.5 -246l-12 -18h-21h-152h-69l34 60q35 60 51 88t43 81.5t39 89.5t22.5 83t10.5 89t-10.5 89t-22.5 82.5t-39 89t-43 82t-51 88.5l-34 60h69z" />
    <glyph glyph-name="onequarter" unicode="&#xbc;" horiz-adv-x="1470" 
d="M1302 326h88v-167h-88v-159h-205v159h-346l-12 135l357 495h206v-463zM935 326h162v212l-14 -22zM494 664h-204v548l-189 -41v158l374 121h19v-786zM458 117l-141 76l711 1138l141 -76z" />
    <glyph glyph-name="onehalf" unicode="&#xbd;" horiz-adv-x="1559" 
d="M477 670h-204v548l-189 -41v158l374 121h19v-786zM1477 0h-620v138l287 257q56 49 80.5 91t24.5 65q0 84 -95 84q-50 0 -79.5 -31t-29.5 -78h-206q0 116 85.5 195t220.5 79q148 0 228.5 -64.5t80.5 -183.5q0 -70 -36 -128t-144 -145l-148 -115h351v-164zM416 117l-141 76
l711 1138l141 -76z" />
    <glyph glyph-name="threequarters" unicode="&#xbe;" horiz-adv-x="1655" 
d="M1460 326h88v-167h-88v-159h-205v159h-346l-12 135l357 495h206v-463zM1093 326h162v212l-14 -22zM319 1137h82q119 0 119 88q0 35 -28.5 56t-77.5 21q-42 0 -71.5 -15.5t-29.5 -44.5h-205q0 102 84.5 163.5t215.5 61.5q145 0 230.5 -59.5t85.5 -166.5q0 -119 -135 -169
q150 -41 150 -184q0 -105 -91.5 -168.5t-239.5 -63.5q-142 0 -228 66.5t-86 180.5h206q0 -34 34 -58.5t86 -24.5q60 0 86.5 26.5t26.5 61.5q0 92 -122 93h-92v136zM619 117l-141 76l711 1138l141 -76z" />
    <glyph glyph-name="questiondown" unicode="&#xbf;" horiz-adv-x="1019" 
d="M666 643q0 -133 -31 -215t-110.5 -156t-108 -110t-43 -73t-14.5 -81q0 -157 154 -157q77 0 122.5 45t47.5 126h289q-2 -192 -123 -299.5t-331 -107.5q-213 0 -331 101.5t-118 289.5q0 159 153 312l97 93q50 45 69.5 94t21.5 138h256zM702 949q0 -67 -46 -110t-116 -43
t-116 43t-46 110t44.5 110t117.5 43t117.5 -43t44.5 -110z" />
    <glyph glyph-name="uni02BC" unicode="&#x2bc;" horiz-adv-x="470" 
d="M194 1009l-136 79q86 135 89 279v169h230v-155q0 -90 -50 -195t-133 -177z" />
    <glyph glyph-name="circumflex" unicode="&#x2c6;" horiz-adv-x="1015" 
d="M887 1256v-12h-230l-154 145l-154 -145h-226v16l296 276h168z" />
    <glyph glyph-name="caron" unicode="&#x2c7;" horiz-adv-x="964" 
d="M479 1394l146 143h247v-11l-302 -281h-183l-302 283v9h247z" />
    <glyph glyph-name="uni02C9" unicode="&#x2c9;" horiz-adv-x="1026" 
d="M858 1287h-690v167h690v-167z" />
    <glyph glyph-name="breve" unicode="&#x2d8;" horiz-adv-x="909" 
d="M798 1526q0 -133 -95.5 -215t-250.5 -82t-250.5 81t-95.5 216h205q0 -63 37.5 -97.5t103.5 -34.5q65 0 102 34.5t37 97.5h207z" />
    <glyph glyph-name="dotaccent" unicode="&#x2d9;" horiz-adv-x="543" 
d="M266 1511q69 0 108.5 -38.5t39.5 -98.5t-39.5 -98t-108.5 -38q-68 0 -108 38t-40 98t40.5 98.5t107.5 38.5z" />
    <glyph glyph-name="ring" unicode="&#x2da;" horiz-adv-x="682" 
d="M119 1325q0 86 65 145.5t158 59.5q92 0 157.5 -58.5t65.5 -146.5q0 -85 -64 -143t-159 -58q-97 0 -160 59t-63 142zM234 1325q0 -44 29 -75.5t79 -31.5t79 31.5t29 75.5q0 46 -29.5 77.5t-78.5 31.5t-78.5 -31.5t-29.5 -77.5z" />
    <glyph glyph-name="ogonek" unicode="&#x2db;" horiz-adv-x="616" 
d="M404 0q-74 -42 -114 -82.5t-40 -93.5q0 -65 66 -65q33 0 80 20l29 -157q-73 -44 -165 -44q-100 0 -163.5 55.5t-63.5 153.5q0 172 223 273z" />
    <glyph glyph-name="tilde" unicode="&#x2dc;" horiz-adv-x="985" 
d="M870 1524q0 -113 -66 -189.5t-161 -76.5q-38 0 -67.5 8.5t-81.5 36.5t-75 34.5t-50 6.5q-35 0 -59.5 -25t-24.5 -71l-168 10q0 111 65.5 189t160.5 78q30 0 56.5 -7.5t86.5 -36.5t83 -35t48 -6q35 0 60.5 24.5t25.5 70.5z" />
    <glyph glyph-name="hungarumlaut" unicode="&#x2dd;" horiz-adv-x="840" 
d="M634 1535h259l-266 -301h-218zM243 1535h255l-229 -301h-212z" />
    <glyph glyph-name="uni02F3" unicode="&#x2f3;" horiz-adv-x="643" 
d="M330 -57q81 0 133 -51t52 -122t-52 -120t-133 -49q-80 0 -134 48t-54 121t54 123t134 50zM255 -230q0 -32 21.5 -53t53.5 -21t52 21t20 53q0 34 -20 55.5t-52 21.5t-53.5 -21.5t-21.5 -55.5z" />
    <glyph glyph-name="gravecomb" unicode="&#x300;" 
d="M-383 1226h-237l-276 310h316z" />
    <glyph glyph-name="acutecomb" unicode="&#x301;" 
d="M-486 1536h316l-278 -310h-234z" />
    <glyph glyph-name="tildecomb" unicode="&#x303;" 
d="M-174 1524q0 -113 -66 -189.5t-161 -76.5q-38 0 -67.5 8.5t-81.5 36.5t-75 34.5t-50 6.5q-35 0 -59.5 -25t-24.5 -71l-168 10q0 111 65.5 189t160.5 78q30 0 56.5 -7.5t86.5 -36.5t83 -35t48 -6q35 0 60.5 24.5t25.5 70.5z" />
    <glyph glyph-name="hookabovecomb" unicode="&#x309;" 
d="M-718 1267l-15 134q73 4 105.5 18.5t32.5 46.5q0 69 -142 69l7 135q188 0 283.5 -52t95.5 -143q0 -59 -41 -96.5t-109 -47.5v-64h-217z" />
    <glyph glyph-name="uni030F" unicode="&#x30f;" 
d="M-509 1252h-239l-292 266h286zM-170 1252h-233l-245 266h280z" />
    <glyph glyph-name="dotbelowcomb" unicode="&#x323;" 
d="M-761 -234q0 60 45 99t116 39q72 0 117 -39t45 -99q0 -59 -44.5 -99t-117.5 -40t-117 40t-44 99z" />
    <glyph glyph-name="tonos" unicode="&#x384;" horiz-adv-x="690" 
d="M291 1601h262l-163 -345h-172z" />
    <glyph glyph-name="dieresistonos" unicode="&#x385;" horiz-adv-x="1123" 
d="M507 1751h259l-154 -332h-148zM102 1365q0 52 38.5 89.5t100.5 37.5t100 -37.5t38 -89.5t-38 -89t-100 -37q-61 0 -100 36.5t-39 89.5zM719 1365q0 53 39.5 90t98.5 37q58 0 98.5 -36.5t40.5 -90.5q0 -52 -38.5 -89.5t-100.5 -37.5t-100 37.5t-38 89.5z" />
    <glyph glyph-name="uni060C" unicode="&#x60c;" horiz-adv-x="669" 
d="M530 591q-70 -63 -104.5 -115t-42.5 -114q68 -10 100.5 -56t32.5 -115q0 -80 -47 -131t-128 -51q-98 0 -148 59.5t-50 154.5q0 149 70 271.5t192 217.5l24 19l25 -20l74 -59l37 -29z" />
    <glyph glyph-name="uni060D" unicode="&#x60d;" horiz-adv-x="828" 
d="M557 1458l219 -66l-553 -1612l-219 66z" />
    <glyph glyph-name="uni0615" unicode="&#x615;" 
d="M915 1918q0 77 -78 77q-109 0 -301 -209h142q60 0 111 12t88.5 43t37.5 77zM537 1887q166 189 304 189q148 0 148 -149q0 -213 -321 -213h-311v72h108v532l73 -1z" />
    <glyph glyph-name="uni061B" unicode="&#x61b;" horiz-adv-x="669" 
d="M171 174q0 71 51 122.5t122 51.5t122 -51.5t51 -122.5t-51 -122t-122 -51q-72 0 -122.5 50t-50.5 123zM530 1054q-70 -63 -104.5 -114.5t-42.5 -114.5q68 -10 100.5 -56t32.5 -115q0 -80 -47 -131t-128 -51q-98 0 -148 59.5t-50 154.5q0 149 70 271.5t192 217.5l24 19
l25 -20l74 -59l37 -29z" />
    <glyph glyph-name="uni061F" unicode="&#x61f;" horiz-adv-x="924" 
d="M352 174q0 71 51 122.5t122 51.5t122 -51.5t51 -122.5t-51 -122t-122 -51q-72 0 -122.5 50t-50.5 123zM59 941q0 114 60.5 206.5t153.5 140.5t196 48q201 0 298.5 -111.5t98.5 -323.5v-10h-40h-156h-40v10q-1 95 -33.5 135t-116.5 40q-78 0 -119 -37t-41 -107
q0 -24 14.5 -44.5t38 -35.5t54 -32.5t62 -34.5t62 -43.5t54 -57.5t38.5 -78t15 -104v-30h-40h-185h-40v30q0 40 -11.5 70t-31 48.5t-44.5 33t-53 26t-55.5 24.5t-52.5 32t-44 44.5t-30.5 66.5t-11.5 94z" />
    <glyph glyph-name="uni0621" unicode="&#x621;" horiz-adv-x="807" 
d="M445 851q102 0 187 -39l23 -10v-26v-147v-56l-53 18q-70 24 -148 24q-139 0 -139 -101q0 -59 53 -87.5t130 -28.5q64 0 151 45l43 22l13 -47l46 -154l11 -35l-35 -13l-545 -208l-36 -14l-15 35l-59 139l-16 39l39 14l116 44q-137 82 -137 259q0 144 103.5 235.5
t267.5 91.5z" />
    <glyph glyph-name="uni0627" unicode="&#x627;" horiz-adv-x="459" 
d="M150 1334h166h40v-40v-1253v-40h-40h-166h-40v40v1253v40h40z" />
    <glyph glyph-name="uni0628" unicode="&#x628;" horiz-adv-x="1885" 
d="M535 260h825q110 0 160.5 52.5t50.5 170.5v197v40h40h174h40v-40v-194q0 -237 -119 -361.5t-349 -124.5h-819q-231 0 -354.5 123.5t-123.5 358.5v201v40h40h174h40v-40v-200q0 -117 52.5 -170t168.5 -53zM770 -331l172 172l172 -172l-172 -172z" />
    <glyph glyph-name="uni0629" unicode="&#x629;" horiz-adv-x="924" 
d="M475 1227l168 169l169 -169q-6 -6 -12 -13q-13 -13 -70 -69.5t-87 -86.5zM113 1227l169 169l168 -169l-168 -169zM310 359q0 -54 35.5 -78t122.5 -24q86 0 118.5 24t32.5 82q0 31 -40.5 94t-122.5 140q-56 -66 -88.5 -113t-45 -75.5t-12.5 -49.5zM467 0q-181 0 -292.5 91
t-111.5 267q0 87 50 177t170 236l-9 8l-27 26l24 29l109 130l27 31l30 -27q121 -106 197.5 -183t131.5 -151t78 -140t23 -137q0 -175 -110 -266t-290 -91z" />
    <glyph glyph-name="uni062A" unicode="&#x62a;" horiz-adv-x="1885" 
d="M535 260h825q110 0 160.5 52.5t50.5 170.5v197v40h40h174h40v-40v-194q0 -237 -119 -361.5t-349 -124.5h-819q-231 0 -354.5 123.5t-123.5 358.5v201v40h40h174h40v-40v-200q0 -117 52.5 -170t168.5 -53zM955 893l168 169l169 -169q-6 -6 -12 -13q-13 -13 -70 -69.5
t-87 -86.5zM593 893l169 169l168 -169l-168 -169z" />
    <glyph glyph-name="uni062B" unicode="&#x62b;" horiz-adv-x="1885" 
d="M535 260h825q110 0 160.5 52.5t50.5 170.5v197v40h40h174h40v-40v-194q0 -237 -119 -361.5t-349 -124.5h-819q-231 0 -354.5 123.5t-123.5 358.5v201v40h40h174h40v-40v-200q0 -117 52.5 -170t168.5 -53zM782 1098l161 159l160 -159l-160 -161zM964 851l160 161l161 -161
l-161 -159zM600 851l161 161l160 -161l-160 -159z" />
    <glyph glyph-name="uni062C" unicode="&#x62c;" horiz-adv-x="1314" 
d="M634 -85l172 172l172 -172l-172 -172zM810 521l-34 19q-123 67 -222 67q-56 0 -101 -19t-104 -65l-71 -57l-30 -24l-25 28l-115 129l-27 31l31 26l61 53q97 81 186 121t189 40q151 0 306 -89l189 -109q88 -51 178 -70l32 -7v-32v-182v-35l-35 -5q-92 -12 -173.5 -26
t-176 -37t-171.5 -50t-150.5 -65.5t-123.5 -83t-80.5 -104t-30.5 -127.5q0 -146 116 -216.5t374 -70.5h392h40v-40v-176v-40h-40h-404q-161 0 -292 32t-230 96t-153.5 169t-54.5 243q0 260 191.5 429t558.5 247z" />
    <glyph glyph-name="uni062D" unicode="&#x62d;" horiz-adv-x="1314" 
d="M810 521l-34 19q-123 67 -222 67q-56 0 -101 -19t-104 -65l-71 -57l-30 -24l-25 28l-115 129l-27 31l31 26l61 53q97 81 186 121t189 40q151 0 306 -89l189 -109q88 -51 178 -70l32 -7v-32v-182v-35l-35 -5q-92 -12 -173.5 -26t-176 -37t-171.5 -50t-150.5 -65.5
t-123.5 -83t-80.5 -104t-30.5 -127.5q0 -146 116 -216.5t374 -70.5h392h40v-40v-176v-40h-40h-404q-161 0 -292 32t-230 96t-153.5 169t-54.5 243q0 260 191.5 429t558.5 247z" />
    <glyph glyph-name="uni062E" unicode="&#x62e;" horiz-adv-x="1347" 
d="M415 1196l172 172l172 -172l-172 -172zM810 521l-34 19q-123 67 -222 67q-56 0 -101 -19t-104 -65l-71 -57l-30 -24l-25 28l-115 129l-27 31l31 26l61 53q97 81 186 121t189 40q151 0 306 -89l189 -109q88 -51 178 -70l32 -7v-32v-182v-35l-35 -5q-92 -12 -173.5 -26
t-176 -37t-171.5 -50t-150.5 -65.5t-123.5 -83t-80.5 -104t-30.5 -127.5q0 -146 116 -216.5t374 -70.5h392h40v-40v-176v-40h-40h-404q-161 0 -292 32t-230 96t-153.5 169t-54.5 243q0 260 191.5 429t558.5 247z" />
    <glyph glyph-name="uni062F" unicode="&#x62f;" horiz-adv-x="1004" 
d="M464 0h-364h-40v40v180v40h40h365q224 0 224 80q0 26 -22.5 68.5t-64.5 91.5l-280 323l-23 26l23 27l121 136l31 34l29 -35l298 -348q143 -167 143 -329q0 -151 -126.5 -242.5t-353.5 -91.5z" />
    <glyph glyph-name="uni0630" unicode="&#x630;" horiz-adv-x="963" 
d="M230 1309l172 172l172 -172l-172 -172zM464 0h-364h-40v40v180v40h40h365q224 0 224 80q0 26 -22.5 68.5t-64.5 91.5l-280 323l-23 26l23 27l121 136l31 34l29 -35l298 -348q143 -167 143 -329q0 -151 -126.5 -242.5t-353.5 -91.5z" />
    <glyph glyph-name="uni0631" unicode="&#x631;" horiz-adv-x="756" 
d="M84 -214q358 0 358 325v534v40h40l174 1h40v-40v-535q0 -272 -159 -424.5t-451 -154.5l-71 -1l-41 -1v41v175v40h40h70z" />
    <glyph glyph-name="uni0632" unicode="&#x632;" horiz-adv-x="780" 
d="M354 1051l172 172l172 -172l-172 -172zM84 -214q358 0 358 325v534v40h40l174 1h40v-40v-535q0 -272 -159 -424.5t-451 -154.5l-71 -1l-41 -1v41v175v40h40h70z" />
    <glyph glyph-name="uni0633" unicode="&#x633;" horiz-adv-x="2479" 
d="M1377 437q0 -97 36 -137t114 -40q72 0 105 35.5t33 117.5l1 261v40h40h170h40v-40l1 -259q1 -84 34 -119t107 -35q56 0 81 33t25 117v295v40h40h175h40v-40v-303q0 -187 -94 -295t-261 -108q-173 0 -267 112q-95 -112 -276 -112q-29 0 -56 4t-53 13t-49 22
q-15 -242 -174 -365t-445 -123h-51q-309 0 -471 149.5t-162 440.5v341v40h40h174h40v-40v-340q0 -170 91.5 -251t287.5 -81h51q197 0 287 68.5t90 208.5v584v40h40h176h40v-40v-234z" />
    <glyph glyph-name="uni0634" unicode="&#x634;" horiz-adv-x="2479" 
d="M1599 1276l161 159l160 -159l-160 -161zM1781 1029l160 161l161 -161l-161 -159zM1417 1029l161 161l160 -161l-160 -159zM1377 437q0 -97 36 -137t114 -40q72 0 105 35.5t33 117.5l1 261v40h40h170h40v-40l1 -259q1 -84 34 -119t107 -35q56 0 81 33t25 117v295v40h40
h175h40v-40v-303q0 -187 -94 -295t-261 -108q-173 0 -267 112q-95 -112 -276 -112q-29 0 -56 4t-53 13t-49 22q-15 -242 -174 -365t-445 -123h-51q-309 0 -471 149.5t-162 440.5v341v40h40h174h40v-40v-340q0 -170 91.5 -251t287.5 -81h51q197 0 287 68.5t90 208.5v584v40
h40h176h40v-40v-234z" />
    <glyph glyph-name="uni0635" unicode="&#x635;" horiz-adv-x="2505" 
d="M1377 457q0 -123 47 -162q50 110 97.5 193.5t103 154.5t114 116.5t128 70.5t148.5 25q119 0 218 -61t155.5 -164t56.5 -223q0 -196 -135.5 -301.5t-351.5 -105.5h-340q-167 0 -254 44q-14 -244 -173 -368.5t-447 -124.5h-51q-309 0 -471 149.5t-162 440.5v341v40h40h174
h40v-40v-340q0 -170 91.5 -251t287.5 -81h51q197 0 287 68.5t90 208.5v584v40h40h176h40v-40v-214zM2190 387q0 89 -55 147t-131 58t-158.5 -81t-165.5 -251h298q110 0 161 30.5t51 96.5z" />
    <glyph glyph-name="uni0636" unicode="&#x636;" horiz-adv-x="2505" 
d="M1809 1181l172 172l172 -172l-172 -172zM1377 457q0 -123 47 -162q50 110 97.5 193.5t103 154.5t114 116.5t128 70.5t148.5 25q119 0 218 -61t155.5 -164t56.5 -223q0 -196 -135.5 -301.5t-351.5 -105.5h-340q-167 0 -254 44q-14 -244 -173 -368.5t-447 -124.5h-51
q-309 0 -471 149.5t-162 440.5v341v40h40h174h40v-40v-340q0 -170 91.5 -251t287.5 -81h51q197 0 287 68.5t90 208.5v584v40h40h176h40v-40v-214zM2190 387q0 89 -55 147t-131 58t-158.5 -81t-165.5 -251h298q110 0 161 30.5t51 96.5z" />
    <glyph glyph-name="uni0637" unicode="&#x637;" horiz-adv-x="1358" 
d="M1043 387q0 88 -55 146.5t-131 58.5q-50 0 -101.5 -33.5t-109 -109t-113.5 -189.5h298q110 0 161 30.5t51 96.5zM329 395v900v40h40h166h40v-40v-560q138 120 293 120q180 0 305 -132t125 -316q0 -132 -64.5 -225t-173 -137.5t-249.5 -44.5h-711h-40v40v180v40h40h163
q13 30 66 135z" />
    <glyph glyph-name="uni0638" unicode="&#x638;" horiz-adv-x="1358" 
d="M735 1180l172 172l172 -172l-172 -172zM1043 387q0 88 -55 146.5t-131 58.5q-50 0 -101.5 -33.5t-109 -109t-113.5 -189.5h298q110 0 161 30.5t51 96.5zM329 395v900v40h40h166h40v-40v-560q138 120 293 120q180 0 305 -132t125 -316q0 -132 -64.5 -225t-173 -137.5
t-249.5 -44.5h-711h-40v40v180v40h40h163q13 30 66 135z" />
    <glyph glyph-name="uni0639" unicode="&#x639;" horiz-adv-x="1244" 
d="M60 -157q0 181 94 316.5t273 209.5q-101 114 -101 254q1 125 57 222t154.5 150t223.5 53q204 0 337 -165l17 -21l-13 -23l-72 -132l-25 -46l-38 36q-90 86 -202 86q-81 0 -132.5 -42t-51.5 -116q0 -47 31.5 -93.5t94.5 -84.5q96 7 232 7h168h40v-40v-181v-40h-40h-184
q-313 0 -462 -90.5t-149 -255.5q0 -146 116 -216t374 -70h322h40v-40v-176v-40h-40h-334q-159 0 -290 32t-230.5 96t-154.5 168.5t-55 241.5z" />
    <glyph glyph-name="uni063A" unicode="&#x63a;" horiz-adv-x="1306" 
d="M572 1338l172 172l172 -172l-172 -172zM60 -157q0 181 94 316.5t273 209.5q-101 114 -101 254q1 125 57 222t154.5 150t223.5 53q204 0 337 -165l17 -21l-13 -23l-72 -132l-25 -46l-38 36q-90 86 -202 86q-81 0 -132.5 -42t-51.5 -116q0 -47 31.5 -93.5t94.5 -84.5
q96 7 232 7h168h40v-40v-181v-40h-40h-184q-313 0 -462 -90.5t-149 -255.5q0 -146 116 -216t374 -70h322h40v-40v-176v-40h-40h-334q-159 0 -290 32t-230.5 96t-154.5 168.5t-55 241.5z" />
    <glyph glyph-name="uni0640" unicode="&#x640;" horiz-adv-x="250" 
d="M255 260q12 0 18.5 -42t6.5 -81v-11q0 -41 -6.5 -83.5t-18.5 -42.5h-260q-12 0 -18.5 42.5t-6.5 83.5v11q0 39 6.5 81t18.5 42h260z" />
    <glyph glyph-name="uni0641" unicode="&#x641;" horiz-adv-x="1842" 
d="M1233 1351l172 172l172 -172l-172 -172zM1030 666q0 172 101.5 283t278.5 111t274.5 -99.5t97.5 -266.5v-319q0 -375 -476 -375h-770q-231 0 -353.5 123.5t-122.5 358.5v201v40h40h174h40v-40v-200q0 -117 52 -170t167 -53h776q59 0 101 5.5t66 14t38 22.5t18 26.5
t6 30.5q-65 -5 -112 -5q-193 0 -294.5 74.5t-101.5 237.5zM1412 809q-71 0 -104 -32t-33 -100q0 -49 29 -64t130 -15q49 0 105 6v93q0 55 -30 83.5t-97 28.5z" />
    <glyph glyph-name="uni0642" unicode="&#x642;" horiz-adv-x="1431" 
d="M988 1073l168 169l169 -169q-6 -6 -12 -13q-13 -13 -70 -69.5t-87 -86.5zM626 1073l169 169l168 -169l-168 -169zM1371 388v-414q0 -95 -35 -169t-93.5 -121t-141 -77.5t-170 -43t-187.5 -12.5h-51q-309 0 -471 149.5t-162 440.5v341v40h40h174h40v-40v-340
q0 -170 91.5 -251t287.5 -81h51q76 0 138 7.5t106 22t74 34.5t44.5 45t14.5 55v26h-122q-188 0 -288 97.5t-100 281.5q0 90 24.5 166.5t72 135t122 91.5t168.5 33q175 0 274 -114t99 -303zM858 383q0 -66 31.5 -94.5t108.5 -28.5h124v129q0 164 -128 164q-136 0 -136 -170z
" />
    <glyph glyph-name="uni0643" unicode="&#x643;" horiz-adv-x="1889" 
d="M861 699q136 0 136 39v1q-1 1 -16.5 3.5t-38.5 8.5t-51.5 15.5t-56 27t-51 40t-37.5 57.5t-14 77q0 113 84 177t224 64q45 0 92 -7l34 -5v-35v-106v-44l-44 4q-18 2 -35.5 3t-34.5 1q-65 0 -96 -14t-31 -37q0 -12 14.5 -19t37.5 -11t51 -8.5t56 -15.5t51 -28.5
t37.5 -50.5t14.5 -79q0 -58 -20.5 -103t-53.5 -72.5t-78.5 -45.5t-91.5 -25t-97 -7q-53 0 -149 14l-34 5v34v114v45l44 -5q110 -12 154 -12zM538 260h814q97 0 142 53t45 175v805v40h40h167h40v-40v-808q0 -235 -112 -360t-327 -125h-812q-230 0 -351.5 124t-121.5 358v211
v40h40h175h40v-40v-210q0 -117 52.5 -170t168.5 -53z" />
    <glyph glyph-name="uni0644" unicode="&#x644;" horiz-adv-x="1334" 
d="M314 142q0 -170 79 -249t248 -79h53q151 0 221 74.5t70 237.5v1167v40h40h166h40v-40l-1 -1171q0 -278 -138.5 -423.5t-404.5 -145.5h-46q-285 0 -433 150t-148 438v341v40h40h174h40v-40v-340z" />
    <glyph glyph-name="uni0645" unicode="&#x645;" horiz-adv-x="1305" 
d="M840 569h-119v-161q0 -103 35 -146t110 -43q65 0 95.5 42.5t30.5 146.5v42q0 63 -34 91t-118 28zM310 199v-655v-40h-40h-170h-40v40l1 655q0 304 131 463t388 159h275q188 0 289 -95t101 -275v-44q0 -207 -96.5 -317t-282.5 -110q-194 0 -296 109.5t-102 316.5v145
q-82 -16 -120 -103.5t-38 -248.5z" />
    <glyph glyph-name="uni0646" unicode="&#x646;" horiz-adv-x="1437" 
d="M536 696l172 172l172 -172l-172 -172zM1377 671v-579q-6 -267 -169 -404t-464 -137h-51q-309 0 -471 149.5t-162 440.5v341v40h40h174h40v-40v-340q0 -170 91.5 -251t287.5 -81h51q197 0 287 68.5t90 208.5v584v40h40h176h40v-40z" />
    <glyph glyph-name="uni0647" unicode="&#x647;" horiz-adv-x="924" 
d="M310 359q0 -54 35.5 -78t122.5 -24q86 0 118.5 24t32.5 82q0 31 -40.5 94t-122.5 140q-56 -66 -88.5 -113t-45 -75.5t-12.5 -49.5zM467 0q-181 0 -292.5 91t-111.5 267q0 87 50 177t170 236l-9 8l-27 26l24 29l109 130l27 31l30 -27q121 -106 197.5 -183t131.5 -151
t78 -140t23 -137q0 -175 -110 -266t-290 -91z" />
    <glyph glyph-name="uni0648" unicode="&#x648;" horiz-adv-x="880" 
d="M820 388v-348q0 -236 -163 -371.5t-455 -135.5h-74h-40v40v176v40h40h68q342 0 371 211h-119q-188 0 -288 97.5t-100 281.5q0 90 24.5 166.5t72 135t122 91.5t168.5 33q175 0 274 -114.5t99 -302.5zM307 383q0 -66 31.5 -94.5t108.5 -28.5h124v129q0 164 -128 164
q-136 0 -136 -170z" />
    <glyph glyph-name="uni0649" unicode="&#x649;" horiz-adv-x="1442" 
d="M686 332q0 234 114.5 364t309.5 130h231h40v-40l1 -175v-40h-40h-237q-81 0 -122 -55.5t-44 -183.5v-23h120q152 0 237 -66t85 -194v-29q0 -232 -155.5 -349.5t-450.5 -117.5h-84q-308 0 -469.5 150.5t-161.5 441.5v410v40h40h172h40v-40v-410q0 -170 91.5 -251.5
t287.5 -81.5h84q354 0 354 190v12q0 22 -12.5 31.5t-57.5 9.5h-158q-99 0 -157 54t-58 151v72z" />
    <glyph glyph-name="uni064A" unicode="&#x64a;" horiz-adv-x="1442" 
d="M766 -715l168 169l169 -169q-6 -6 -12 -13q-13 -13 -70 -69.5t-87 -86.5zM404 -715l169 169l168 -169l-168 -169zM686 332q0 234 114.5 364t309.5 130h231h40v-40l1 -175v-40h-40h-237q-81 0 -122 -55.5t-44 -183.5v-23h120q152 0 237 -66t85 -194v-29
q0 -232 -155.5 -349.5t-450.5 -117.5h-84q-308 0 -469.5 150.5t-161.5 441.5v410v40h40h172h40v-40v-410q0 -170 91.5 -251.5t287.5 -81.5h84q354 0 354 190v12q0 22 -12.5 31.5t-57.5 9.5h-158q-99 0 -157 54t-58 151v72z" />
    <glyph glyph-name="uni064B" unicode="&#x64b;" 
d="M317 1076v104v7l6 2l455 186l14 6v-15v-103v-7l-6 -2l-455 -187l-14 -6v15zM317 1288v104v7l6 2l455 186l14 6v-15v-103v-7l-6 -2l-455 -187l-14 -6v15z" />
    <glyph glyph-name="uni064C" unicode="&#x64c;" 
d="M479 1629q0 76 49 124t124 48q76 0 124 -47.5t48 -125.5q0 -18 -3 -37.5t-8 -38t-12 -37.5q16 -2 29 -2h10v-10v-76v-11l-10 1q-35 2 -70 8q-97 -224 -288 -224q-52 0 -92 18.5t-66.5 55t-40.5 90.5t-15 125v8l8 2l79 14l12 2v-12q4 -205 116 -205q101 0 185 144
q-85 31 -132 74t-47 112zM703 1535q23 56 23 92q0 32 -20.5 53t-49.5 21q-34 0 -55.5 -20.5t-21.5 -55.5q0 -56 124 -90z" />
    <glyph glyph-name="uni064D" unicode="&#x64d;" 
d="M322 -446v104v7l6 2l456 186l14 6v-15v-104v-7l-6 -2l-456 -186l-14 -6v15zM322 -234v104v7l6 2l456 186l14 6v-15v-104v-7l-6 -2l-456 -186l-14 -6v15z" />
    <glyph glyph-name="uni064E" unicode="&#x64e;" 
d="M286 1349v104v7l6 2l456 186l14 6v-15v-104v-7l-6 -2l-456 -186l-14 -6v15z" />
    <glyph glyph-name="uni064F" unicode="&#x64f;" 
d="M723 1417q-20 0 -38.5 1.5t-36.5 3.5q-102 -136 -347 -149l-11 -1v11v78v9l9 1q173 16 246 78q-27 7 -52 18t-47.5 27t-39 35.5t-26.5 44.5t-10 52q0 77 49 124.5t124 47.5t124 -48t49 -125q0 -53 -22 -111q17 -2 29 -2h10v-10v-75v-10h-10zM594 1532q23 56 23 92
q0 32 -20 52.5t-50 20.5q-35 0 -56 -20t-21 -55q0 -56 124 -90z" />
    <glyph glyph-name="uni0650" unicode="&#x650;" 
d="M333 -346v104v7l6 2l455 186l14 6v-15v-103v-7l-6 -2l-455 -187l-14 -6v15z" />
    <glyph glyph-name="uni0651" unicode="&#x651;" 
d="M618 1758q0 -8 0.5 -20.5t0.5 -21t0.5 -19.5t1.5 -20q7 -93 60 -93q30 0 43.5 21t13.5 70q0 12 -2 29t-5.5 39t-9.5 48l-2 10l10 2l88 14l9 1l3 -8q9 -32 13.5 -63t4.5 -62q0 -211 -157 -213q-15 0 -30 3t-28.5 8.5t-26 14t-21.5 18.5q-19 -47 -60.5 -67.5t-91.5 -20.5
q-74 0 -111 48.5t-37 139.5q0 27 3.5 53t9.5 50l3 8l9 -1l78 -13l10 -2l-2 -10q-5 -21 -7 -41.5t-2 -39.5q0 -74 58 -74q19 0 32 3.5t21.5 14t13.5 21.5t7 34.5t2.5 43t0.5 56.5v39v10h10h77h10v-10z" />
    <glyph glyph-name="uni0652" unicode="&#x652;" 
d="M411 1462q0 25 6.5 48.5t18.5 44t29 37t37 28.5t43.5 18.5t48.5 6.5q38 0 72 -14.5t58.5 -39t39 -58.5t14.5 -71q0 -38 -13.5 -71t-40 -59.5t-59 -40t-71.5 -13.5q-50 0 -92 24.5t-66.5 67t-24.5 92.5zM513 1461q-1 -17 6 -32.5t18 -27t27 -18t33 -6.5q35 0 59.5 24.5
t24.5 59.5t-24.5 59.5t-59.5 24.5t-60 -25t-24 -59z" />
    <glyph glyph-name="uni0653" unicode="&#x653;" horiz-adv-x="11" 
d="M323 1729h388l2 -188h-370q-57 0 -90 -32.5t-60 -94.5l-151 75q30 111 100 175.5t181 64.5z" />
    <glyph glyph-name="uni0654" unicode="&#x654;" 
d="M432 1831q-31 30 -45 68t-14 90q0 99 65.5 158.5t165.5 59.5q25 0 49.5 -5t47 -14.5t44.5 -22.5l5 -3v-6l1 -119v-18l-15 9q-20 13 -39.5 20.5t-39 11.5t-39.5 4q-110 0 -110 -88q0 -20 8 -35.5t26 -29t48 -24.5q10 -4 16 -4q2 0 6 1q25 5 71 14t62 13l12 2v-12v-116v-8
l-8 -2l-397 -95l-12 -3v12v113v8l8 2z" />
    <glyph glyph-name="uni0655" unicode="&#x655;" 
d="M432 -321q-31 30 -45 68t-14 90q0 99 65.5 158.5t165.5 59.5q25 0 49.5 -5t47 -14.5t44.5 -22.5l5 -3v-6l1 -119v-18l-15 9q-20 13 -39.5 20.5t-39 11.5t-39.5 4q-110 0 -110 -88q0 -20 8 -35.5t26 -29t48 -24.5q10 -4 16 -4q2 0 6 1q25 5 71 14t62 13l12 2v-12v-116v-8
l-8 -2l-397 -95l-12 -3v12v113v8l8 2z" />
    <glyph glyph-name="uni0657" unicode="&#x657;" 
d="M265 1815q57 -1 125 -8q153 213 394 236l11 1v-11v-78v-9l-8 -1q-87 -14 -158 -54.5t-126 -107.5q72 -24 118.5 -69.5t46.5 -114.5q0 -73 -47 -122t-120 -49q-75 0 -127 48.5t-52 126.5q0 44 20 110q-44 3 -77 3h-10v10v79v10h10zM501 1526q31 0 48.5 19t17.5 52
q0 18 -10 34t-28 28.5t-39.5 22t-46.5 15.5q-8 -19 -13 -35.5t-7.5 -30.5t-2.5 -26q0 -34 23.5 -56.5t57.5 -22.5z" />
    <glyph glyph-name="uni065A" unicode="&#x65a;" horiz-adv-x="1135" 
d="M493 1439l-193 324l-9 15h18h124h6l3 -5l131 -225l132 225l3 5h6h124h18l-9 -15l-194 -324l-3 -5h-6h-142h-6z" />
    <glyph glyph-name="uni0660" unicode="&#x660;" horiz-adv-x="890" 
d="M311 493q0 -56 39.5 -96t94.5 -40t94.5 40t39.5 96t-39.5 96t-94.5 40q-36 0 -67 -18.5t-49 -49.5t-18 -68zM100 493q0 143 101 244t244 101t244 -101t101 -244t-101 -244t-244 -101t-244 101t-101 244z" />
    <glyph glyph-name="uni0661" unicode="&#x661;" horiz-adv-x="682" 
d="M468 4h-171h-40v40v216q0 542 -120 945l-12 38l38 11l163 50l39 12l11 -39q132 -438 132 -1018v-215v-40h-40z" />
    <glyph glyph-name="uni0662" unicode="&#x662;" horiz-adv-x="1096" 
d="M629 896q93 0 122 47q23 39 25 162v68v95v40h40h165h40v-40v-91q0 -102 -9.5 -179.5t-35.5 -148t-69.5 -115.5t-114 -71t-166.5 -26q-63 0 -135 22q17 -166 17 -399v-216v-40h-40h-171h-40v40v216q0 539 -119 945l-12 38l38 11l164 50l42 13l9 -42l74 -332
q85 -47 176 -47z" />
    <glyph glyph-name="uni0663" unicode="&#x663;" horiz-adv-x="1395" 
d="M577 896q38 0 64.5 42t26.5 124l1 165v40h40h163h40v-40l-1 -165q0 -57 8.5 -93t28 -54.5t50.5 -18.5q19 0 31 4t26.5 18.5t22 52t7.5 96.5v199v40h40h162h40v-40v-199q0 -201 -84 -315.5t-235 -114.5q-131 0 -209 87q-78 -87 -201 -87q-52 0 -107 22q17 -164 17 -399
v-216v-40h-40h-171h-40v40v216q0 539 -119 945l-12 38l38 11l164 50l42 13l9 -42l75 -335q33 -24 59.5 -34t63.5 -10z" />
    <glyph glyph-name="uni0664" unicode="&#x664;" horiz-adv-x="966" 
d="M102 363q0 43 14.5 79.5t36.5 64.5t63.5 59t81 54.5t103.5 57.5q-69 40 -111 69.5t-79 65.5t-53 75t-16 87q0 107 56 179t158 106t248 35h137h40v-40l2 -174v-40h-40l-136 -1q-181 -1 -181 -71q0 -20 32.5 -43t97.5 -51.5t189 -75.5l28 -10l-2 -29l-10 -166l-2 -27
l-25 -9q-206 -68 -277.5 -104.5t-71.5 -82.5q0 -34 20 -57.5t73.5 -38.5t141.5 -15h236h40v-40l-1 -175v-40h-40h-235h-13q-244 2 -375.5 91.5t-129.5 266.5z" />
    <glyph glyph-name="uni0665" unicode="&#x665;" horiz-adv-x="1172" 
d="M576 885q-50 -57 -73.5 -85t-58.5 -72t-50.5 -68.5t-36 -59.5t-28.5 -62t-14 -60t-6 -68q0 -70 67 -108t223 -38q140 0 199 35.5t59 100.5q0 39 -6 74t-15.5 65t-29.5 65t-38.5 62t-53 67.5t-62 70.5t-76.5 81zM345 1118l96 148l23 35l34 -24q105 -75 185 -139
t151.5 -133t120.5 -135t85 -138t53 -150t17 -164q0 -207 -131 -313.5t-377 -105.5q-173 1 -292.5 45.5t-183.5 136.5t-64 228q0 68 14 132t37 119t66 121.5t86.5 123.5t113.5 142l-23 16l-32 22z" />
    <glyph glyph-name="uni0666" unicode="&#x666;" horiz-adv-x="1176" 
d="M114 1306l529 1q117 0 198 -45.5t122 -132t41 -210.5v-875v-40h-40h-168h-40v40v871q0 65 -26 91t-91 26h-525h-40v40v194v40h40z" />
    <glyph glyph-name="uni0667" unicode="&#x667;" horiz-adv-x="1201" 
d="M600 508q92 328 304 784l17 38l37 -19l158 -82l36 -19l-19 -36q-84 -158 -144 -284.5t-115.5 -267t-95 -284.5t-66.5 -301l-5 -33h-34h-145h-34l-5 33q-22 126 -53 246t-67 226t-85 220.5t-99.5 216.5t-116.5 228l-19 36l36 19l158 82l37 19l17 -38q210 -452 303 -784z
" />
    <glyph glyph-name="uni0668" unicode="&#x668;" horiz-adv-x="1201" 
d="M601 792q-92 -328 -304 -784l-17 -38l-37 19l-158 82l-36 19l19 36q84 158 144 284.5t115.5 267t95 284.5t66.5 301l5 33h34h145h34l5 -33q27 -157 66.5 -301t95 -284.5t115.5 -267t144 -284.5l19 -36l-36 -19l-158 -82l-37 -19l-17 38q-210 452 -303 784z" />
    <glyph glyph-name="uni0669" unicode="&#x669;" horiz-adv-x="1080" 
d="M90 887q0 105 50 202.5t142.5 160.5t202.5 63q87 0 154 -28t109.5 -74.5t70.5 -116t40.5 -142t17.5 -163.5q28 -574 33 -748l1 -41h-41h-168h-39l-1 39q-2 59 -8 248t-9 272q-74 -15 -149 -15q-195 0 -300.5 84t-105.5 259zM484 1062q-58 0 -103 -53.5t-45 -121.5
q0 -35 11.5 -53.5t47 -29t104.5 -10.5q51 0 129 16q-11 154 -48 207q-15 23 -37 34t-59 11z" />
    <glyph glyph-name="uni066A" unicode="&#x66a;" horiz-adv-x="1033" 
d="M758 1328l132 -60l37 -16l-615 -1279l-36 16l-133 60l-36 16l615 1280zM597 213q0 72 50.5 123t122.5 51t122.5 -51t50.5 -123q0 -71 -51 -122t-122 -51q-72 0 -122.5 50t-50.5 123zM90 1099q0 72 50.5 123t122.5 51t122.5 -51t50.5 -123q0 -71 -51 -122t-122 -51
q-72 0 -122.5 50t-50.5 123z" />
    <glyph glyph-name="uni066B" unicode="&#x66b;" horiz-adv-x="772" 
d="M550 790l127 -54l37 -16l-16 -37l-462 -1067l-16 -37l-37 16l-130 56l-37 16l16 37l465 1065l16 36z" />
    <glyph glyph-name="uni066C" unicode="&#x66c;" horiz-adv-x="560" 
d="M154 -332l-95 72l-31 24l23 31q44 62 69 129t27 129v166v40h40h171h40v-40v-145q0 -118 -57.5 -229t-137.5 -176l-24 -20z" />
    <glyph glyph-name="uni066D" unicode="&#x66d;" horiz-adv-x="1436" 
d="M151 1119h403l126 383l38 116l38 -116l126 -383h403h122l-98 -72l-326 -239l125 -383l38 -116l-99 72l-329 237l-329 -237l-99 -72l38 116l125 383l-326 239l-98 72h122z" />
    <glyph glyph-name="uni066E" unicode="&#x66e;" horiz-adv-x="1885" 
d="M535 260h825q110 0 160.5 52.5t50.5 170.5v197v40h40h174h40v-40v-194q0 -237 -119 -361.5t-349 -124.5h-819q-231 0 -354.5 123.5t-123.5 358.5v201v40h40h174h40v-40v-200q0 -117 52.5 -170t168.5 -53z" />
    <glyph glyph-name="uni066F" unicode="&#x66f;" horiz-adv-x="1431" 
d="M1371 388v-414q0 -95 -35 -169t-93.5 -121t-141 -77.5t-170 -43t-187.5 -12.5h-51q-309 0 -471 149.5t-162 440.5v341v40h40h174h40v-40v-340q0 -170 91.5 -251t287.5 -81h51q76 0 138 7.5t106 22t74 34.5t44.5 45t14.5 55v26h-122q-188 0 -288 97.5t-100 281.5
q0 90 24.5 166.5t72 135t122 91.5t168.5 33q175 0 274 -114t99 -303zM858 383q0 -66 31.5 -94.5t108.5 -28.5h124v129q0 164 -128 164q-136 0 -136 -170z" />
    <glyph glyph-name="uni0670" unicode="&#x670;" 
d="M593 1568v362v10h10h88h10v-10v-362v-10h-10h-88h-10v10z" />
    <glyph glyph-name="uni0674" unicode="&#x674;" horiz-adv-x="551" 
d="M165 1975q-31 30 -45 68t-14 90q0 99 65.5 158.5t165.5 59.5q25 0 49.5 -5t47 -14.5t44.5 -22.5l5 -3v-6l1 -119v-18l-15 9q-20 13 -39.5 20.5t-39 11.5t-39.5 4q-110 0 -110 -88q0 -20 8 -35.5t26 -29t48 -24.5q10 -4 16 -4q2 0 6 1q25 5 71 14t62 13l12 2v-12v-116v-8
l-8 -2l-397 -95l-12 -3v12v113v8l8 2z" />
    <glyph glyph-name="uni067E" unicode="&#x67e;" horiz-adv-x="1885" 
d="M535 260h825q110 0 160.5 52.5t50.5 170.5v197v40h40h174h40v-40v-194q0 -237 -119 -361.5t-349 -124.5h-819q-231 0 -354.5 123.5t-123.5 358.5v201v40h40h174h40v-40v-200q0 -117 52.5 -170t168.5 -53zM782 -541l161 161l160 -161l-160 -159zM964 -294l160 159
l161 -159l-161 -161zM600 -294l161 159l160 -159l-160 -161z" />
    <glyph glyph-name="uni0686" unicode="&#x686;" horiz-adv-x="1314" 
d="M645.019 -231.103l140.708 140.708l139.834 -140.708l-139.834 -138.96zM804.079 -15.2344l139.834 138.961l140.708 -138.961l-140.708 -140.707zM485.957 -15.2344l140.708 138.961l139.834 -138.961l-139.834 -140.707zM810 521l-34 19q-123 67 -222 67
q-56 0 -101 -19t-104 -65l-71 -57l-30 -24l-25 28l-115 129l-27 31l31 26l61 53q97 81 186 121t189 40q151 0 306 -89l189 -109q88 -51 178 -70l32 -7v-32v-182v-35l-35 -5q-92 -12 -173.5 -26t-176 -37t-171.5 -50t-150.5 -65.5t-123.5 -83t-80.5 -104t-30.5 -127.5
q0 -146 116 -216.5t374 -70.5h392h40v-40v-176v-40h-40h-404q-161 0 -292 32t-230 96t-153.5 169t-54.5 243q0 260 191.5 429t558.5 247z" />
    <glyph glyph-name="uni0695" unicode="&#x695;" horiz-adv-x="756" 
d="M244 -930l-193 324l-9 15h18h124h6l3 -5l131 -225l132 225l3 5h6h124h18l-9 -15l-194 -324l-3 -5h-6h-142h-6zM84 -214q358 0 358 325v534v40h40l174 1h40v-40v-535q0 -272 -159 -424.5t-451 -154.5l-71 -1l-41 -1v41v175v40h40h70z" />
    <glyph glyph-name="uni0698" unicode="&#x698;" horiz-adv-x="824" 
d="M311 1231l161 159l160 -159l-160 -161zM493 984l160 161l161 -161l-161 -159zM129 984l161 161l160 -161l-160 -159zM84 -214q358 0 358 325v534v40h40l174 1h40v-40v-535q0 -272 -159 -424.5t-451 -154.5l-71 -1l-41 -1v41v175v40h40h70z" />
    <glyph glyph-name="uni06A1" unicode="&#x6a1;" horiz-adv-x="1842" 
d="M1030 666q0 172 101.5 283t278.5 111t274.5 -99.5t97.5 -266.5v-319q0 -375 -476 -375h-770q-231 0 -353.5 123.5t-122.5 358.5v201v40h40h174h40v-40v-200q0 -117 52 -170t167 -53h776q59 0 101 5.5t66 14t38 22.5t18 26.5t6 30.5q-65 -5 -112 -5q-193 0 -294.5 74.5
t-101.5 237.5zM1412 809q-71 0 -104 -32t-33 -100q0 -49 29 -64t130 -15q49 0 105 6v93q0 55 -30 83.5t-97 28.5z" />
    <glyph glyph-name="uni06A4" unicode="&#x6a4;" horiz-adv-x="1842" 
d="M1245 1525l161 159l160 -159l-160 -161zM1427 1278l160 161l161 -161l-161 -159zM1063 1278l161 161l160 -161l-160 -159zM1030 666q0 172 101.5 283t278.5 111t274.5 -99.5t97.5 -266.5v-319q0 -375 -476 -375h-770q-231 0 -353.5 123.5t-122.5 358.5v201v40h40h174h40
v-40v-200q0 -117 52 -170t167 -53h776q59 0 101 5.5t66 14t38 22.5t18 26.5t6 30.5q-65 -5 -112 -5q-193 0 -294.5 74.5t-101.5 237.5zM1412 809q-71 0 -104 -32t-33 -100q0 -49 29 -64t130 -15q49 0 105 6v93q0 55 -30 83.5t-97 28.5z" />
    <glyph glyph-name="uni06A9" unicode="&#x6a9;" horiz-adv-x="1855" 
d="M1270 1016l268 -312q91 -106 134 -187.5t43 -162.5q0 -171 -120 -262.5t-338 -91.5h-725q-230 0 -351 123.5t-121 358.5v201v40h40h175h40v-40v-200q0 -117 52.5 -170t167.5 -53h724q210 0 210 94q0 14 -26 57t-76 100l-314 365q-66 76 -66 162q1 72 39.5 122.5
t107.5 73.5l636 208v-55v-179v-29z" />
    <glyph glyph-name="uni06AF" unicode="&#x6af;" horiz-adv-x="1855" 
d="M1764.32 1535.46l-629.128 -210.779v128.394l629.128 210.779v-128.394zM1270 1016l268 -312q91 -106 134 -187.5t43 -162.5q0 -171 -120 -262.5t-338 -91.5h-725q-230 0 -351 123.5t-121 358.5v201v40h40h175h40v-40v-200q0 -117 52.5 -170t167.5 -53h724q210 0 210 94
q0 14 -26 57t-76 100l-314 365q-66 76 -66 162q1 72 39.5 122.5t107.5 73.5l636 208v-55v-179v-29z" />
    <glyph glyph-name="uni06B5" unicode="&#x6b5;" horiz-adv-x="1334" 
d="M518 999l-193 324l-9 15h18h124h6l3 -5l131 -225l132 225l3 5h6h124h18l-9 -15l-194 -324l-3 -5h-6h-142h-6zM314 142q0 -170 79 -249t248 -79h53q151 0 221 74.5t70 237.5v1167v40h40h166h40v-40l-1 -1171q0 -278 -138.5 -423.5t-404.5 -145.5h-46q-285 0 -433 150
t-148 438v341v40h40h174h40v-40v-340z" />
    <glyph glyph-name="uni06BA" unicode="&#x6ba;" horiz-adv-x="1437" 
d="M1377 671v-579q-6 -267 -169 -404t-464 -137h-51q-309 0 -471 149.5t-162 440.5v341v40h40h174h40v-40v-340q0 -170 91.5 -251t287.5 -81h51q197 0 287 68.5t90 208.5v584v40h40h176h40v-40z" />
    <glyph glyph-name="uni06BE" unicode="&#x6be;" horiz-adv-x="1309" 
d="M-5 260h202q-61 87 -61 211q0 172 108.5 286t265.5 114q77 0 140 -25l69 102l24 35l34 -27q237 -190 354.5 -351t117.5 -305q0 -151 -95 -253.5t-238 -102.5q-206 0 -448 109q-198 -53 -378 -53h-95q-12 0 -18.5 42.5t-6.5 83.5v11q0 39 7 81t18 42zM489 310
q72 32 121 88t49 112q0 51 -35.5 90t-84.5 39q-70 0 -115.5 -48t-45.5 -122q0 -46 31.5 -92.5t79.5 -66.5zM855 535q2 -15 2 -30q0 -153 -141 -280q143 -35 192 -35q42 0 72.5 34.5t30.5 70.5q0 69 -156 240z" />
    <glyph glyph-name="uni06C6" unicode="&#x6c6;" horiz-adv-x="880" 
d="M343 974l-193 324l-9 15h18h124h6l3 -5l131 -225l132 225l3 5h6h124h18l-9 -15l-194 -324l-3 -5h-6h-142h-6zM820 388v-348q0 -236 -163 -371.5t-455 -135.5h-74h-40v40v176v40h40h68q342 0 371 211h-119q-188 0 -288 97.5t-100 281.5q0 90 24.5 166.5t72 135t122 91.5
t168.5 33q175 0 274 -114.5t99 -302.5zM307 383q0 -66 31.5 -94.5t108.5 -28.5h124v129q0 164 -128 164q-136 0 -136 -170z" />
    <glyph glyph-name="uni06CA" unicode="&#x6ca;" horiz-adv-x="880" 
d="M455 1078l168 169l169 -169q-6 -6 -12 -13q-13 -13 -70 -69.5t-87 -86.5zM93 1078l169 169l168 -169l-168 -169zM820 388v-348q0 -236 -163 -371.5t-455 -135.5h-74h-40v40v176v40h40h68q342 0 371 211h-119q-188 0 -288 97.5t-100 281.5q0 90 24.5 166.5t72 135
t122 91.5t168.5 33q175 0 274 -114.5t99 -302.5zM307 383q0 -66 31.5 -94.5t108.5 -28.5h124v129q0 164 -128 164q-136 0 -136 -170z" />
    <glyph glyph-name="uni06CC" unicode="&#x6cc;" horiz-adv-x="1442" 
d="M686 332q0 234 114.5 364t309.5 130h231h40v-40l1 -175v-40h-40h-237q-81 0 -122 -55.5t-44 -183.5v-23h120q152 0 237 -66t85 -194v-29q0 -232 -155.5 -349.5t-450.5 -117.5h-84q-308 0 -469.5 150.5t-161.5 441.5v410v40h40h172h40v-40v-410q0 -170 91.5 -251.5
t287.5 -81.5h84q354 0 354 190v12q0 22 -12.5 31.5t-57.5 9.5h-158q-99 0 -157 54t-58 151v72z" />
    <glyph glyph-name="uni06CE" unicode="&#x6ce;" horiz-adv-x="1442" 
d="M391 731l-193 324l-9 15h18h124h6l3 -5l131 -225l132 225l3 5h6h124h18l-9 -15l-194 -324l-3 -5h-6h-142h-6zM686 332q0 234 114.5 364t309.5 130h231h40v-40l1 -175v-40h-40h-237q-81 0 -122 -55.5t-44 -183.5v-23h120q152 0 237 -66t85 -194v-29q0 -232 -155.5 -349.5
t-450.5 -117.5h-84q-308 0 -469.5 150.5t-161.5 441.5v410v40h40h172h40v-40v-410q0 -170 91.5 -251.5t287.5 -81.5h84q354 0 354 190v12q0 22 -12.5 31.5t-57.5 9.5h-158q-99 0 -157 54t-58 151v72z" />
    <glyph glyph-name="uni06D5" unicode="&#x6d5;" horiz-adv-x="924" 
d="M310 359q0 -54 35.5 -78t122.5 -24q86 0 118.5 24t32.5 82q0 31 -40.5 94t-122.5 140q-56 -66 -88.5 -113t-45 -75.5t-12.5 -49.5zM467 0q-181 0 -292.5 91t-111.5 267q0 87 50 177t170 236l-9 8l-27 26l24 29l109 130l27 31l30 -27q121 -106 197.5 -183t131.5 -151
t78 -140t23 -137q0 -175 -110 -266t-290 -91z" />
    <glyph glyph-name="uni06F0" unicode="&#x6f0;" horiz-adv-x="890" 
d="M311 493q0 -56 39.5 -96t94.5 -40t94.5 40t39.5 96t-39.5 96t-94.5 40q-36 0 -67 -18.5t-49 -49.5t-18 -68zM100 493q0 143 101 244t244 101t244 -101t101 -244t-101 -244t-244 -101t-244 101t-101 244z" />
    <glyph glyph-name="uni06F1" unicode="&#x6f1;" horiz-adv-x="682" 
d="M468 4h-171h-40v40v216q0 542 -120 945l-12 38l38 11l163 50l39 12l11 -39q132 -438 132 -1018v-215v-40h-40z" />
    <glyph glyph-name="uni06F2" unicode="&#x6f2;" horiz-adv-x="1096" 
d="M629 896q93 0 122 47q23 39 25 162v68v95v40h40h165h40v-40v-91q0 -102 -9.5 -179.5t-35.5 -148t-69.5 -115.5t-114 -71t-166.5 -26q-63 0 -135 22q17 -166 17 -399v-216v-40h-40h-171h-40v40v216q0 539 -119 945l-12 38l38 11l164 50l42 13l9 -42l74 -332
q85 -47 176 -47z" />
    <glyph glyph-name="uni06F3" unicode="&#x6f3;" horiz-adv-x="1395" 
d="M577 896q38 0 64.5 42t26.5 124l1 165v40h40h163h40v-40l-1 -165q0 -57 8.5 -93t28 -54.5t50.5 -18.5q19 0 31 4t26.5 18.5t22 52t7.5 96.5v199v40h40h162h40v-40v-199q0 -201 -84 -315.5t-235 -114.5q-131 0 -209 87q-78 -87 -201 -87q-52 0 -107 22q17 -164 17 -399
v-216v-40h-40h-171h-40v40v216q0 539 -119 945l-12 38l38 11l164 50l42 13l9 -42l75 -335q33 -24 59.5 -34t63.5 -10z" />
    <glyph glyph-name="uni06F4" unicode="&#x6f4;" horiz-adv-x="1186" 
d="M689 837q79 -19 168 -19q100 0 208 45l54 23l1 -59l3 -172v-27l-24 -11q-123 -52 -262 -52q-167 0 -345 78q16 -187 16 -383v-216v-40h-40h-171h-40v40v216q0 537 -119 945l-11 38l37 11l163 50l42 13l9 -42l82 -362l3.5 -2t7 -3.5t3.5 -2.5q13 189 103.5 295.5
t251.5 106.5q128 0 235 -67l21 -13l-2 -25l-15 -147l-6 -60l-53 29q-77 41 -159 41q-80 0 -122 -51.5t-42 -174.5v-1q1 -1 3 -1z" />
    <glyph glyph-name="uni06F5" unicode="&#x6f5;" horiz-adv-x="1218" 
d="M611 888q-59 -73 -86.5 -107.5t-68.5 -87t-58.5 -79.5t-40.5 -65.5t-31.5 -65t-15 -57.5t-6.5 -62q0 -61 15.5 -82.5t55.5 -21.5q27 0 42.5 2.5t32.5 11t25.5 26.5t15.5 49t9 78l2 38h38h139h38l2 -38q2 -57 10.5 -91t25.5 -50.5t35.5 -21t51.5 -4.5q43 0 58.5 20
t15.5 82q0 26 -3 51t-13 52t-18 47.5t-28 52.5t-33 51.5t-43 59t-47 61.5t-57 72t-63 79zM610 121q-81 -121 -232 -121q-157 0 -237.5 96.5t-80.5 263.5q0 37 6 75t13.5 70t25 71.5t30 66t40.5 70t43 66.5t51.5 70.5t53 68.5t60 75.5t60.5 75.5l-27 29l-25 26l24 27l120 137
l29 33l30 -31q110 -114 191.5 -207t155 -191t119 -184t72 -175t26.5 -173q0 -168 -80.5 -264t-238.5 -96q-150 0 -229 121z" />
    <glyph glyph-name="uni06F6" unicode="&#x6f6;" horiz-adv-x="1000" 
d="M540 1063q-45 0 -81.5 -11.5t-61.5 -32.5t-39 -52.5t-14 -69.5q0 -152 233 -152q15 0 23 0.5t19.5 4t22.5 11.5q33 23 101 83t92 80l22 -38l82 -142l17 -30q-74 -59 -131.5 -115t-129.5 -143t-151 -212.5t-170 -294.5l-34 16l-154 73l-38 18q79 149 146 251.5t151 209.5
q-171 27 -260.5 122.5t-89.5 247.5q0 183 115 302.5t296 119.5q132 0 228 -53l21 -11v-24l-1 -160v-65l-58 29q-74 38 -156 38z" />
    <glyph glyph-name="uni06F7" unicode="&#x6f7;" horiz-adv-x="1201" 
d="M600 508q92 328 304 784l17 38l37 -19l158 -82l36 -19l-19 -36q-84 -158 -144 -284.5t-115.5 -267t-95 -284.5t-66.5 -301l-5 -33h-34h-145h-34l-5 33q-22 126 -53 246t-67 226t-85 220.5t-99.5 216.5t-116.5 228l-19 36l36 19l158 82l37 19l17 -38q210 -452 303 -784z
" />
    <glyph glyph-name="uni06F8" unicode="&#x6f8;" horiz-adv-x="1201" 
d="M601 792q-92 -328 -304 -784l-17 -38l-37 19l-158 82l-36 19l19 36q84 158 144 284.5t115.5 267t95 284.5t66.5 301l5 33h34h145h34l5 -33q27 -157 66.5 -301t95 -284.5t115.5 -267t144 -284.5l19 -36l-36 -19l-158 -82l-37 -19l-17 38q-210 452 -303 784z" />
    <glyph glyph-name="uni06F9" unicode="&#x6f9;" horiz-adv-x="1080" 
d="M90 887q0 105 50 202.5t142.5 160.5t202.5 63q87 0 154 -28t109.5 -74.5t70.5 -116t40.5 -142t17.5 -163.5q28 -574 33 -748l1 -41h-41h-168h-39l-1 39q-2 59 -8 248t-9 272q-74 -15 -149 -15q-195 0 -300.5 84t-105.5 259zM484 1062q-58 0 -103 -53.5t-45 -121.5
q0 -35 11.5 -53.5t47 -29t104.5 -10.5q51 0 129 16q-11 154 -48 207q-15 23 -37 34t-59 11z" />
    <glyph glyph-name="uni2000" unicode="&#x2000;" horiz-adv-x="1044" 
 />
    <glyph glyph-name="uni2001" unicode="&#x2001;" horiz-adv-x="2089" 
 />
    <glyph glyph-name="uni2002" unicode="&#x2002;" horiz-adv-x="1044" 
 />
    <glyph glyph-name="uni2003" unicode="&#x2003;" horiz-adv-x="2089" 
 />
    <glyph glyph-name="uni2004" unicode="&#x2004;" horiz-adv-x="697" 
 />
    <glyph glyph-name="uni2005" unicode="&#x2005;" horiz-adv-x="522" 
 />
    <glyph glyph-name="uni2006" unicode="&#x2006;" horiz-adv-x="348" 
 />
    <glyph glyph-name="uni2007" unicode="&#x2007;" horiz-adv-x="1151" 
 />
    <glyph glyph-name="uni2008" unicode="&#x2008;" horiz-adv-x="560" 
 />
    <glyph glyph-name="uni2009" unicode="&#x2009;" horiz-adv-x="418" 
 />
    <glyph glyph-name="uni200A" unicode="&#x200a;" horiz-adv-x="209" 
 />
    <glyph glyph-name="uni200B" unicode="&#x200b;" 
 />
    <glyph glyph-name="uni200C" unicode="&#x200c;" 
 />
    <glyph glyph-name="uni200D" unicode="&#x200d;" 
 />
    <glyph glyph-name="underscoredbl" unicode="&#x2017;" horiz-adv-x="913" 
d="M912 -416h-911v153h911v-153zM912 -153h-911v153h911v-153z" />
    <glyph glyph-name="quoteleft" unicode="&#x2018;" horiz-adv-x="479" 
d="M286 1570l136 -79q-86 -136 -89 -276v-167h-229v150q0 94 52.5 200.5t129.5 171.5z" />
    <glyph glyph-name="quoteright" unicode="&#x2019;" horiz-adv-x="470" 
d="M194 1009l-136 79q86 135 89 279v169h230v-155q0 -90 -50 -195t-133 -177z" />
    <glyph glyph-name="quotesinglbase" unicode="&#x201a;" horiz-adv-x="508" 
d="M202 -305l-136 79q78 126 81 274v181h238l-1 -166q-1 -89 -50.5 -192t-131.5 -176z" />
    <glyph glyph-name="quotereversed" unicode="&#x201b;" horiz-adv-x="428" 
d="M301 1536v-163q1 -71 19.5 -135.5t69.5 -149.5l-136 -79q-82 71 -132.5 176t-50.5 197v154h230z" />
    <glyph glyph-name="quotedblleft" unicode="&#x201c;" horiz-adv-x="831" 
d="M294 1570l136 -79q-86 -136 -89 -276v-167h-229v150q0 94 52.5 200.5t129.5 171.5zM637 1570l136 -79q-86 -136 -89 -276v-167h-229v150q0 94 52.5 200.5t129.5 171.5z" />
    <glyph glyph-name="quotedblright" unicode="&#x201d;" horiz-adv-x="837" 
d="M208 1009l-136 79q86 135 89 279v169h230v-155q0 -90 -50 -195t-133 -177zM555 1009l-136 79q86 135 89 279v169h230v-155q0 -90 -50 -195t-133 -177z" />
    <glyph glyph-name="quotedblbase" unicode="&#x201e;" horiz-adv-x="825" 
d="M209 -325l-143 79q78 134 81 293v216h238l-1 -199q-1 -97 -48 -206.5t-127 -182.5zM545 -325l-143 79q86 148 89 294v215h238l-1 -203q-2 -96 -52.5 -205t-130.5 -180z" />
    <glyph glyph-name="dagger" unicode="&#x2020;" horiz-adv-x="1102" 
d="M1047 841h-353v-841h-289v841h-348v241h348v374h289v-374h353v-241z" />
    <glyph glyph-name="daggerdbl" unicode="&#x2021;" horiz-adv-x="1185" 
d="M1087 0h-353v-416h-290v416h-346v233h346v615h-346v234h346v374h290v-374h353v-234h-353v-615h353v-233z" />
    <glyph glyph-name="bullet" unicode="&#x2022;" horiz-adv-x="736" 
d="M135 766q0 104 66 167t170 63q108 0 172.5 -62t66.5 -163v-43q0 -103 -65.5 -165.5t-171.5 -62.5q-105 0 -171.5 62t-66.5 169v35z" />
    <glyph glyph-name="twodotenleader" unicode="&#x2025;" horiz-adv-x="1068" 
d="M150 174q0 71 51 122.5t122 51.5t122 -51.5t51 -122.5t-51 -122t-122 -51q-72 0 -122.5 50t-50.5 123zM623 174q0 71 51 122.5t122 51.5t122 -51.5t51 -122.5t-51 -122t-122 -51q-72 0 -122.5 50t-50.5 123z" />
    <glyph glyph-name="ellipsis" unicode="&#x2026;" horiz-adv-x="1515" 
d="M150 174q0 71 51 122.5t122 51.5t122 -51.5t51 -122.5t-51 -122t-122 -51q-72 0 -122.5 50t-50.5 123zM623 174q0 71 51 122.5t122 51.5t122 -51.5t51 -122.5t-51 -122t-122 -51q-72 0 -122.5 50t-50.5 123zM1087 174q0 71 51 122.5t122 51.5t122 -51.5t51 -122.5
t-51 -122t-122 -51q-72 0 -122.5 50t-50.5 123z" />
    <glyph glyph-name="uni202F" unicode="&#x202f;" horiz-adv-x="126" 
 />
    <glyph glyph-name="perthousand" unicode="&#x2030;" horiz-adv-x="1965" 
d="M812 357q0 129 88 214.5t228 85.5q147 0 228 -105q81 105 227 105q138 0 227.5 -83.5t89.5 -223.5v-71q0 -128 -86.5 -213.5t-228.5 -85.5q-148 0 -229 105q-81 -105 -226 -105q-142 0 -230 85.5t-88 217.5v74zM87 1175q0 131 84 216t217 85q141 0 229 -84.5t88 -222.5
v-70q0 -130 -88 -214.5t-227 -84.5q-133 0 -218 84.5t-85 221.5v69zM470 109l-141 76l711 1138l141 -76zM1005 279q0 -57 36 -95t89 -38q122 0 122 135v76q0 60 -34 96.5t-90 36.5q-55 0 -89 -36.5t-34 -99.5v-75zM1460 279q0 -54 35 -93.5t90 -39.5q122 0 122 135v76
q0 60 -34 96.5t-90 36.5q-55 0 -89 -36.5t-34 -99.5v-75zM265 1099q0 -59 33.5 -96t91.5 -37q56 0 89 37t33 99v73q0 60 -34 97t-90 37q-57 0 -90 -37t-33 -101v-72z" />
    <glyph glyph-name="minute" unicode="&#x2032;" horiz-adv-x="331" 
d="M275 1389l-29 -404h-183v551h212v-147z" />
    <glyph glyph-name="second" unicode="&#x2033;" horiz-adv-x="657" 
d="M266 1398l-40 -411h-162v549h202v-138zM591 1398l-39 -411h-162v549h201v-138z" />
    <glyph glyph-name="guilsinglleft" unicode="&#x2039;" horiz-adv-x="638" 
d="M334 524l240 -399h-186l-280 390v19l280 390h186z" />
    <glyph glyph-name="guilsinglright" unicode="&#x203a;" horiz-adv-x="618" 
d="M267 923l280 -390v-19l-280 -390h-187l240 399l-240 400h187z" />
    <glyph glyph-name="exclamdbl" unicode="&#x203c;" horiz-adv-x="1114" 
d="M143 174q0 71 51 122.5t122 51.5t122 -51.5t51 -122.5t-51 -122t-122 -51q-72 0 -122.5 50t-50.5 123zM180 1326h276l-17 -851h-241zM700 174q0 71 51 122.5t122 51.5t122 -51.5t51 -122.5t-51 -122t-122 -51q-72 0 -122.5 50t-50.5 123zM737 1326h276l-17 -851h-241z
" />
    <glyph glyph-name="fraction" unicode="&#x2044;" horiz-adv-x="913" 
d="M171 109l-141 76l711 1138l141 -76z" />
    <glyph glyph-name="uni2074" unicode="&#x2074;" horiz-adv-x="763" 
d="M616 993h88v-167h-88v-159h-205v159h-346l-12 135l357 495h206v-463zM249 993h162v212l-14 -22z" />
    <glyph glyph-name="uni207F" unicode="&#x207f;" horiz-adv-x="856" 
d="M255 1454l32 -123q75 135 222 135q259 0 264 -296v-517h-212v456q-4 174 -128 174q-96 0 -133 -79v-551h-213v801h168z" />
    <glyph glyph-name="franc" unicode="&#x20a3;" horiz-adv-x="1122" 
d="M686 217h-699v183h699v-183zM1006 595h-576v-595h-300v1456h948v-243h-648v-376h576v-242z" />
    <glyph glyph-name="lira" unicode="&#x20a4;" horiz-adv-x="1217" 
d="M841 468h-272l1 -31q0 -123 -62 -196h653v-241h-1059v241h92q72 18 72 179l-2 48h-162v159h157l-4 110h-153v159h148l-4 143q0 202 123.5 319t330.5 117q212 0 333 -112.5t121 -304.5h-287q0 85 -43.5 130t-124.5 45q-67 0 -110 -49t-43 -145l5 -143h290v-159h-283
l4 -110h279v-159z" />
    <glyph glyph-name="peseta" unicode="&#x20a7;" horiz-adv-x="1761" 
d="M1638 870h-184v-540q0 -59 22.5 -85.5t88.5 -26.5q49 0 84 7v-219q-85 -26 -174 -26q-304 0 -310 307v583h-101q-39 -170 -172 -261.5t-338 -92.5h-109v-516h-304v1456h408q217 0 353 -97.5t167 -276.5h96v266h289v-266h184v-212zM445 767h104q108 0 166 58.5t58 165.5
q0 103 -58.5 158t-163.5 55h-106v-437z" />
    <glyph glyph-name="dong" unicode="&#x20ab;" horiz-adv-x="1184" 
d="M1198 1219h-699v183h699v-183zM66 549q0 253 113.5 403t310.5 150q158 0 261 -118v552h290v-1536h-261l-14 115q-108 -135 -278 -135q-191 0 -306.5 150.5t-115.5 418.5zM355 528q0 -152 53 -233t154 -81q134 0 189 113v427q-54 113 -187 113q-209 0 -209 -339z
M1059 -363h-911v226h911v-226z" />
    <glyph glyph-name="Euro" unicode="&#x20ac;" horiz-adv-x="1175" 
d="M894 516h-335q5 -147 78.5 -221t228.5 -74q105 0 190 31l36 -242q-124 -29 -256 -29q-263 0 -416.5 141.5t-161.5 393.5h-169v152h169v124h-169v152h171q17 252 175.5 391.5t420.5 139.5q105 0 236 -31l-36 -243q-94 32 -185 32q-283 0 -310 -289h333v-152h-335v-124h335
v-152z" />
    <glyph glyph-name="uni2105" unicode="&#x2105;" horiz-adv-x="1504" 
d="M692 1065q0 -115 -79.5 -190t-214.5 -75q-134 0 -216 83t-82 222v71q0 134 81 217.5t215 83.5t215 -75.5t81 -192.5h-192q0 44 -29.5 72.5t-74.5 28.5q-47 0 -75 -36.5t-28 -99.5v-75q0 -57 27.5 -95t77.5 -38q44 0 73 28t29 71h192zM791 357q0 135 88 217.5t228 82.5
q142 0 229.5 -81.5t87.5 -224.5v-72q0 -134 -86 -216.5t-229 -82.5q-144 0 -231 83t-87 220v74zM983 279q0 -55 36 -94t90 -39q122 0 122 135v76q0 60 -34 96.5t-90 36.5t-90 -36.5t-34 -99.5v-75zM455 109l-141 76l711 1138l141 -76z" />
    <glyph glyph-name="uni2113" unicode="&#x2113;" horiz-adv-x="1011" 
d="M744 -21q-249 0 -382 116.5t-134 334.5v17q-89 -15 -186 -15v187q97 0 186 17v422q4 206 102.5 323t271.5 117q152 0 245.5 -95.5t93.5 -254.5v-39q0 -154 -112 -310t-297 -253v-55q0 -126 50.5 -183t161.5 -57v-272zM532 784q149 137 149 336v31q0 48 -21 76t-51 28
q-77 0 -77 -175v-296z" />
    <glyph glyph-name="uni2116" unicode="&#x2116;" horiz-adv-x="2077" 
d="M1923 417h-597v147h597v-147zM1281 1112q0 160 96 260t250 100t250.5 -99.5t96.5 -266.5v-62q0 -158 -94.5 -258t-250.5 -100q-157 0 -252.5 100.5t-95.5 263.5v62zM1456 1044q0 -99 46.5 -155.5t126.5 -56.5q79 0 124.5 57t45.5 160v63q0 98 -47 155t-125 57
q-77 0 -124 -57t-47 -159v-64zM1159 0h-318l-422 947v-947h-291v1456h318l423 -949v949h290v-1456z" />
    <glyph glyph-name="trademark" unicode="&#x2122;" horiz-adv-x="1293" 
d="M1016 1266l-111 -352h-72l-111 353v-353h-128v542h158l117 -368l126 368h149v-542h-128v352zM523 1348h-129v-431h-142v431h-136v108h407v-108z" />
    <glyph glyph-name="Omega" unicode="&#x2126;" horiz-adv-x="1376" 
d="M735 248q174 75 186 468l1 146q0 183 -64 275.5t-179 92.5q-113 0 -177.5 -92.5t-64.5 -275.5v-87q0 -225 49 -357.5t145 -169.5v-248h-512v244h217q-109 98 -171 237.5t-63 289.5v89q0 177 73 318t205 219t299 78q165 0 296.5 -76.5t205 -214t76.5 -309.5v-100
q0 -155 -63 -294.5t-171 -236.5h216v-244h-504v248z" />
    <glyph glyph-name="estimated" unicode="&#x212e;" horiz-adv-x="1296" 
d="M1042 94q-183 -114 -370 -114q-145 0 -267 78.5t-189.5 207t-67.5 275.5q0 143 72 272.5t196 209t256 79.5q133 0 246.5 -69.5t179.5 -191t69 -265.5v-62h-768v-328q119 -110 273 -110q196 0 368 122zM672 1008q-151 0 -273 -122v-277h540v286q-115 113 -267 113z" />
    <glyph glyph-name="oneeighth" unicode="&#x215b;" horiz-adv-x="1604" 
d="M1485 576q0 -114 -111 -170q129 -60 129 -188q0 -108 -81.5 -168.5t-226.5 -60.5q-144 0 -227.5 60.5t-83.5 168.5q0 129 131 188q-113 58 -113 170q0 104 79 164t212 60t212.5 -59t79.5 -165zM1299 238q0 81 -106 81q-103 0 -103 -81q0 -40 28.5 -62.5t76.5 -22.5
q47 0 75.5 22.5t28.5 62.5zM1280 562q0 73 -87 73q-85 0 -85 -73q0 -77 87 -77q85 0 85 77zM490 646h-204v548l-189 -41v158l374 121h19v-786zM445 109l-141 76l711 1138l141 -76z" />
    <glyph glyph-name="threeeighths" unicode="&#x215c;" horiz-adv-x="1764" 
d="M1641 576q0 -114 -111 -170q129 -60 129 -188q0 -108 -81.5 -168.5t-226.5 -60.5q-144 0 -227.5 60.5t-83.5 168.5q0 129 131 188q-113 58 -113 170q0 104 79 164t212 60t212.5 -59t79.5 -165zM1455 238q0 81 -106 81q-103 0 -103 -81q0 -40 28.5 -62.5t76.5 -22.5
q47 0 75.5 22.5t28.5 62.5zM1436 562q0 73 -87 73q-85 0 -85 -73q0 -77 87 -77q85 0 85 77zM297 1130h82q119 0 119 88q0 35 -28.5 56t-77.5 21q-42 0 -71.5 -15.5t-29.5 -44.5h-205q0 102 84.5 163.5t215.5 61.5q145 0 230.5 -59.5t85.5 -166.5q0 -119 -135 -169
q150 -41 150 -184q0 -105 -91.5 -168.5t-239.5 -63.5q-142 0 -228 66.5t-86 180.5h206q0 -34 34 -58.5t86 -24.5q60 0 86.5 26.5t26.5 61.5q0 92 -122 93h-92v136zM598 109l-141 76l711 1138l141 -76z" />
    <glyph glyph-name="fiveeighths" unicode="&#x215d;" horiz-adv-x="1745" 
d="M1622 576q0 -114 -111 -170q129 -60 129 -188q0 -108 -81.5 -168.5t-226.5 -60.5q-144 0 -227.5 60.5t-83.5 168.5q0 129 131 188q-113 58 -113 170q0 104 79 164t212 60t212.5 -59t79.5 -165zM1436 238q0 81 -106 81q-103 0 -103 -81q0 -40 28.5 -62.5t76.5 -22.5
q47 0 75.5 22.5t28.5 62.5zM1417 562q0 73 -87 73q-85 0 -85 -73q0 -77 87 -77q85 0 85 77zM105 1044l54 408h503v-162h-336l-21 -135q63 27 132 27q132 0 201 -66t69 -188q0 -123 -85 -199.5t-224 -76.5q-129 0 -219 66.5t-92 167.5h206q4 -70 105 -70q104 0 104 113
q0 51 -29.5 81.5t-90.5 30.5q-50 0 -75.5 -13.5t-38.5 -23.5zM578 109l-141 76l711 1138l141 -76z" />
    <glyph glyph-name="seveneighths" unicode="&#x215e;" horiz-adv-x="1760" 
d="M1568 576q0 -114 -111 -170q129 -60 129 -188q0 -108 -81.5 -168.5t-226.5 -60.5q-144 0 -227.5 60.5t-83.5 168.5q0 129 131 188q-113 58 -113 170q0 104 79 164t212 60t212.5 -59t79.5 -165zM1382 238q0 81 -106 81q-103 0 -103 -81q0 -40 28.5 -62.5t76.5 -22.5
q47 0 75.5 22.5t28.5 62.5zM1363 562q0 73 -87 73q-85 0 -85 -73q0 -77 87 -77q85 0 85 77zM730 1328l-331 -674h-216l332 623h-424v166h639v-115zM499 109l-141 76l711 1138l141 -76z" />
    <glyph glyph-name="partialdiff" unicode="&#x2202;" horiz-adv-x="1172" 
d="M565 1036q165 0 280 -115q-31 180 -119.5 282t-214.5 102q-104 0 -177 -26l-66 -25l-45 207l58 26q115 50 254 50q271 0 421 -213.5t153 -610.5v-62q0 -197 -62.5 -350t-179 -237.5t-269.5 -84.5q-232 0 -370.5 144.5t-138.5 394.5v13q0 228 128.5 366.5t347.5 138.5z
M600 803q-107 0 -164 -74t-57 -234q0 -137 56 -210t163 -73q105 0 163.5 87t58.5 260v110q-31 64 -88 99t-132 35z" />
    <glyph glyph-name="Delta" unicode="&#x2206;" horiz-adv-x="1497" 
d="M601 1456h311l573 -1456h-1465zM427 241h653l-325 868z" />
    <glyph glyph-name="product" unicode="&#x220f;" horiz-adv-x="1419" 
d="M1263 -253h-290v1481h-519v-1481h-290v1709h1099v-1709z" />
    <glyph glyph-name="summation" unicode="&#x2211;" horiz-adv-x="1284" 
d="M931 582l-477 -618h782v-233h-1179v151l570 717l-570 706v151h1144v-234h-744l474 -607v-33z" />
    <glyph glyph-name="minus" unicode="&#x2212;" horiz-adv-x="1138" 
d="M1010 596h-863v236h863v-236z" />
    <glyph glyph-name="radical" unicode="&#x221a;" horiz-adv-x="1157" 
d="M582 294l322 1162h231l-422 -1456h-246l-186 523h-226v236h388z" />
    <glyph glyph-name="infinity" unicode="&#x221e;" horiz-adv-x="2143" 
d="M2045 530q0 -157 -65.5 -283.5t-183 -196.5t-266.5 -70q-289 0 -461 312q-172 -312 -461 -312q-229 0 -371.5 155.5t-142.5 403.5v11q0 154 64 281.5t181.5 199t266.5 71.5q141 0 259.5 -75.5t203.5 -227.5q86 154 203.5 228.5t259.5 74.5q225 0 369 -155t144 -417z
M1763 550q0 140 -68 225.5t-178 85.5q-139 0 -236 -149q-50 -78 -67 -150v-29q5 -33 35 -98.5t71.5 -113.5t90 -74.5t104.5 -26.5q114 0 181 86t67 244zM375 530q0 -139 66.5 -224.5t181.5 -85.5q146 0 247 179q45 81 53 134v29q-18 76 -65.5 150t-108 111.5t-128.5 37.5
q-110 0 -178 -85t-68 -246z" />
    <glyph glyph-name="integral" unicode="&#x222b;" horiz-adv-x="591" 
d="M433 -47q0 -192 -100 -291t-280 -99q-76 0 -144 18l16 228q48 -12 85 -12q129 0 133 144v1235q0 184 104 282.5t295 98.5q63 0 159 -21l-24 -222q-42 10 -97 10q-147 0 -147 -153v-1218z" />
    <glyph glyph-name="approxequal" unicode="&#x2248;" horiz-adv-x="1181" 
d="M101 914q48 50 114 78t132 28q88 2 173 -36l138 -68q82 -38 170 -38q127 0 228 126v-237q-102 -106 -221 -106q-88 0 -170 38l-138 68q-85 38 -173 36q-69 0 -138.5 -35t-114.5 -91v237zM101 494q102 106 238 106q90 2 176 -37l140 -69q79 -36 165 -36q135 0 236 126
v-237q-102 -106 -228 -106q-88 0 -170 38l-138 68q-85 38 -173 36q-66 0 -132 -33t-114 -93v237z" />
    <glyph glyph-name="notequal" unicode="&#x2260;" horiz-adv-x="1172" 
d="M1030 313h-554l-116 -216l-119 62l83 154h-188v236h315l106 197h-421v236h548l115 213l119 -63l-81 -150h193v-236h-320l-107 -197h427v-236z" />
    <glyph glyph-name="lessequal" unicode="&#x2264;" horiz-adv-x="1043" 
d="M345 739.178l570 -180.893v-251.99l-861 328.486v212.392l861 328.486v-251.989zM924 40h-863v236h863v-236z" />
    <glyph glyph-name="greaterequal" unicode="&#x2265;" horiz-adv-x="1058" 
d="M701 747.877l-581 182.693v250.189l871 -328.486v-211.492l-871 -329.387v251.09zM984 40h-863v236h863v-236z" />
    <glyph glyph-name="lozenge" unicode="&#x25ca;" horiz-adv-x="1042" 
d="M399 1456h247l369 -729l-368 -727h-247l-369 727zM522 1152l-204 -425l206 -424l203 424z" />
    <glyph glyph-name="uniEE01" unicode="&#xee01;" horiz-adv-x="602" 
d="M155 360q0 71 51 122.5t122 51.5t122 -51.5t51 -122.5t-51 -122t-122 -51q-72 0 -122.5 50t-50.5 123zM155 1179q0 71 51 122.5t122 51.5t122 -51.5t51 -122.5t-51 -122t-122 -51q-72 0 -122.5 50t-50.5 123z" />
    <glyph glyph-name="uniEE02" unicode="&#xee02;" horiz-adv-x="657" 
d="M253 653h-163v428h163v-428zM567 653h-163v428h163v-428z" />
    <glyph glyph-name="uniF6C3" unicode="&#xf6c3;" horiz-adv-x="470" 
d="M195 -149l-143 79q73 115 76 242v103h212v-71q0 -93 -41.5 -192t-103.5 -161z" />
    <glyph glyph-name="uniFE73" unicode="&#xfe73;" horiz-adv-x="660" 
d="M326 464q0 -103 65.5 -152.5t214.5 -49.5h67h2h40v-40v-2v-178v-2v-40h-40h-2h-77q-261 0 -398.5 119t-137.5 348v20v2v40h40h2h182h2h40v-40v-2v-23z" />
    <glyph glyph-name="uniFEFF" unicode="&#xfeff;" 
 />
    <glyph glyph-name="uniFFFC" unicode="&#xfffc;" horiz-adv-x="2092" 
d="M821 468q0 -98 -64.5 -158.5t-164.5 -60.5q-102 0 -166 60t-66 154v117q0 95 63 157t167 62q101 0 165 -60t66 -154v-117zM888 252v549h188q98 0 155 -36.5t57 -113.5q0 -84 -84 -116q50 -13 76 -48t26 -80q0 -155 -208 -155h-210zM729 580q0 69 -37 108t-102 39
q-64 0 -101 -39t-37 -108v-112q0 -69 37 -108t103 -39q64 0 100.5 39t36.5 108v112zM1683 803h92v-378q0 -78 -52.5 -124.5t-134.5 -46.5q-88 0 -142.5 40.5t-54.5 123.5h93q0 -91 104 -91q41 0 68 27t27 71v378zM87 -398v315h113v-202h196v-113h-309zM1716 -398v113h199
v202h111v-315h-310zM87 1169v285h309v-116h-196v-169h-113zM1716 1338v116h310v-285h-111v169h-199zM983 496v-169h126q103 0 103 83q0 82 -98 86h-131zM1317 1338v116h278v-116h-278zM918 1338v116h277v-116h-277zM519 1338v116h276v-116h-276zM1317 -398v113h278v-113
h-278zM918 -398v113h277v-113h-277zM519 -398v113h276v-113h-276zM983 566h93q118 0 118 80q0 41 -29 56t-89 15h-93v-151zM200 416h-113v252h113v-252zM200 794h-113v250h113v-250zM200 41h-113v249h113v-249zM2026 416h-111v252h111v-252zM2026 794h-111v250h111v-250z
M2026 41h-111v249h111v-249z" />
    <glyph glyph-name="uniFFFD" unicode="&#xfffd;" horiz-adv-x="2101" 
d="M1048 1618l959 -975l-959 -975l-956 975zM1131 402q0 58 15 87t51 53q74 39 120 106.5t46 141.5q0 128 -83.5 203.5t-232.5 75.5q-144 0 -224 -69.5t-82 -196.5h203q2 51 31 77t72 26q57 0 85 -32t28 -84q0 -95 -93 -155q-91 -65 -114.5 -111t-23.5 -122h202zM1131 311
h-202v-170h202v170zM1056 -551h4v-4h-4v4zM1054 2163h4v-4h-4v4z" />
    <glyph glyph-name="arabic_dot" horiz-adv-x="204" 
d="M-70 89l172 172l172 -172l-172 -172z" />
    <glyph glyph-name="arabic_2dots" horiz-adv-x="527" 
d="M276 89l168 169l169 -169q-6 -6 -12 -13q-13 -13 -70 -69.5t-87 -86.5zM-86 89l169 169l168 -169l-168 -169z" />
    <glyph glyph-name="arabic_3dots" horiz-adv-x="527" 
d="M103 345l161 159l160 -159l-160 -161zM285 98l160 161l161 -161l-161 -159zM-79 98l161 161l160 -161l-160 -159z" />
    <glyph glyph-name="arabic_3dots_a" horiz-adv-x="527" 
d="M103 -142l161 161l160 -161l-160 -159zM285 105l160 159l161 -159l-161 -161zM-79 105l161 159l160 -159l-160 -161z" />
    <glyph glyph-name="arabic_gaf_bar" horiz-adv-x="657" 
d="M605 1808l-588 -197v120l588 197v-120z" />
    <glyph glyph-name="NameMe.302" horiz-adv-x="599" 
d="M-5 260h33q84 0 123.5 50t39.5 167v607v40h40h166h40v-40v-608q0 -216 142 -216h25q11 0 18 -42t7 -81v-11q0 -41 -6.5 -83.5t-18.5 -42.5h-35q-79 0 -139.5 30t-117.5 90q-115 -120 -282 -120h-35q-12 0 -18.5 42.5t-6.5 83.5v11q0 39 7 81t18 42z" />
    <glyph glyph-name="NameMe.303" horiz-adv-x="570" 
d="M-5 260h72q83 0 118.5 35t35.5 116v863v40h40h167h40v-40v-867q0 -197 -103.5 -302t-298.5 -105h-71q-12 0 -18.5 42.5t-6.5 83.5v11q0 39 7 81t18 42z" />
    <glyph glyph-name="NameMe.65564" horiz-adv-x="516" 
d="M522 0h-45q-179 0 -272.5 107.5t-93.5 307.5v678v40h40h169h40v-40v-679q0 -85 28.5 -119.5t91.5 -34.5h42q11 0 18 -42t7 -81v-11q0 -41 -6.5 -83.5t-18.5 -42.5z" />
    <glyph glyph-name="NameMe.65565" horiz-adv-x="867" 
d="M289 -123q32 -15 106 -15h52q205 0 205 78v6q0 31 -48 31h-92q-54 0 -83 28t-29 81v38q0 139 140 188q24 9 53 13.5t62 4.5h115h10v-10l1 -116v-10h-10h-5h-135q-101 0 -102 -67v-15v-5h5h71q176 0 176 -141v-16q0 -221 -339 -221h-48q-87 0 -139 18l-9 2l2 9l27 112
l3 12z" />
    <glyph glyph-name="NameMe.65541" horiz-adv-x="677" 
d="M-5 260h203q94 0 128 30t34 123v294v40h40h174h40v-40v-295q0 -200 -107 -306t-310 -106h-202q-12 0 -18.5 42.5t-6.5 83.5v11q0 39 7 81t18 42z" />
    <glyph glyph-name="NameMe.65542" horiz-adv-x="807" 
d="M811 0h-20q-192 0 -290 113q-114 -113 -335 -113h-171q-12 0 -18.5 42.5t-6.5 83.5v11q0 39 7 81t18 42h176q114 0 157.5 36t43.5 119v258v40h40h171h40v-40v-258q0 -87 34.5 -121t132.5 -34h21q11 0 18 -42t7 -81v-11q0 -41 -6.5 -83.5t-18.5 -42.5z" />
    <glyph glyph-name="lamVabove_alef.isol" horiz-adv-x="1145" 
d="M836 1440l-193 324l-9 15h18h124h6l3 -5l131 -225l132 225l3 5h6h124h18l-9 -15l-194 -324l-3 -5h-6h-142h-6zM159 1285h166h40v-40v-884v-40h-40h-166h-40v40v884v40h40zM1042 432q0 -209 -108.5 -320.5t-313.5 -111.5h-462h-40v40v180v40h40h469q88 0 128 44t40 146
v844v40h40h167h40v-40v-862z" />
    <glyph glyph-name="NameMe.65574" horiz-adv-x="1203" 
d="M836 1440l-193 324l-9 15h18h124h6l3 -5l131 -225l132 225l3 5h6h124h18l-9 -15l-194 -324l-3 -5h-6h-142h-6zM1208 0h-25q-89 0 -152 30t-116 90q-114 -120 -278 -120h-479h-40v40v180v40h40h462q89 0 132 56t43 188v791v40h40h166h40v-40v-792q0 -143 28.5 -193
t115.5 -50h23q11 0 18 -42t7 -81v-11q0 -41 -6.5 -83.5t-18.5 -42.5zM159 1285h166h40v-40v-884v-40h-40h-166h-40v40v884v40h40z" />
    <glyph glyph-name="uniFBFD.compact" horiz-adv-x="1381" 
d="M1386 0h-14v-39q0 -200 -153.5 -306t-435.5 -106h-96q-308 0 -467.5 150t-159.5 440v341v40h40l175 -1h40v-40v-339q0 -170 89.5 -250.5t282.5 -80.5h96q76 0 134 7.5t105 25t72 49.5t25 77v32h-213q-46 0 -71 27t-42 91q-23 82 -15 112t59 30h549q11 0 18 -42t7 -81v-11
q0 -41 -6.5 -83.5t-18.5 -42.5z" />
    <glyph glyph-name="uniFE8A.compact" horiz-adv-x="1381" 
d="M1386 0h-14v-39q0 -200 -153.5 -306t-435.5 -106h-96q-308 0 -467.5 150t-159.5 440v341v40h40l175 -1h40v-40v-339q0 -170 89.5 -250.5t282.5 -80.5h96q76 0 134 7.5t105 25t72 49.5t25 77v32h-213q-46 0 -71 27t-42 91q-23 82 -15 112t59 30h549q11 0 18 -42t7 -81v-11
q0 -41 -6.5 -83.5t-18.5 -42.5zM495 640q-31 30 -45 68t-14 90q0 99 65.5 158.5t165.5 59.5q25 0 49.5 -5t47 -14.5t44.5 -22.5l5 -3v-6l1 -119v-18l-15 9q-20 13 -39.5 20.5t-39 11.5t-39.5 4q-110 0 -110 -88q0 -20 8 -35.5t26 -29t48 -24.5q10 -4 16 -4q2 0 6 1
q25 5 71 14t62 13l12 2v-12v-116v-8l-8 -2l-397 -95l-12 -3v12v113v8l8 2z" />
    <glyph glyph-name="uniFEF2.compact" horiz-adv-x="1381" 
d="M1386 0h-14v-39q0 -200 -153.5 -306t-435.5 -106h-96q-308 0 -467.5 150t-159.5 440v341v40h40l175 -1h40v-40v-339q0 -170 89.5 -250.5t282.5 -80.5h96q76 0 134 7.5t105 25t72 49.5t25 77v32h-213q-46 0 -71 27t-42 91q-23 82 -15 112t59 30h549q11 0 18 -42t7 -81v-11
q0 -41 -6.5 -83.5t-18.5 -42.5zM732 -724l168 169l169 -169q-6 -6 -12 -13q-13 -13 -70 -69.5t-87 -86.5zM370 -724l169 169l168 -169l-168 -169z" />
    <glyph glyph-name="uniFECC.compact" horiz-adv-x="1113" 
d="M1118 0h-109q-213 0 -392 95q-110 -57 -216.5 -76t-254.5 -19h-151q-12 0 -18.5 42.5t-6.5 83.5v11q0 39 7 81t18 42h150q136 0 213 6q-32 22 -51 35.5t-52.5 39.5t-54 47t-42.5 48t-33 54t-11 53q0 65 28 115.5t74.5 83t113 53t137 29t152.5 8.5t152.5 -8.5t136.5 -29.5
t112.5 -53t74.5 -82.5t28 -115.5q0 -26 -11 -53.5t-33.5 -54.5t-43.5 -48.5t-55 -47.5t-52.5 -39t-50.5 -35q57 -5 138 -5h103q11 0 18 -42t7 -81v-11q0 -41 -6.5 -83.5t-18.5 -42.5zM618 373q46 27 128 84.5t111 85.5q-24 16 -90.5 27.5t-149.5 11.5q-82 0 -148 -11.5
t-90 -27.5q30 -29 112 -86t127 -84z" />
    <glyph glyph-name="uniFED0.compact" horiz-adv-x="1113" 
d="M432 1136l172 172l172 -172l-172 -172zM1118 0h-109q-213 0 -392 95q-110 -57 -216.5 -76t-254.5 -19h-151q-12 0 -18.5 42.5t-6.5 83.5v11q0 39 7 81t18 42h150q136 0 213 6q-32 22 -51 35.5t-52.5 39.5t-54 47t-42.5 48t-33 54t-11 53q0 65 28 115.5t74.5 83t113 53
t137 29t152.5 8.5t152.5 -8.5t136.5 -29.5t112.5 -53t74.5 -82.5t28 -115.5q0 -26 -11 -53.5t-33.5 -54.5t-43.5 -48.5t-55 -47.5t-52.5 -39t-50.5 -35q57 -5 138 -5h103q11 0 18 -42t7 -81v-11q0 -41 -6.5 -83.5t-18.5 -42.5zM618 373q46 27 128 84.5t111 85.5
q-24 16 -90.5 27.5t-149.5 11.5q-82 0 -148 -11.5t-90 -27.5q30 -29 112 -86t127 -84z" />
    <glyph glyph-name="uni06CE.fina.compact" horiz-adv-x="1381" 
d="M544 513l-193 324l-9 15h18h124h6l3 -5l131 -225l132 225l3 5h6h124h18l-9 -15l-194 -324l-3 -5h-6h-142h-6zM1386 0h-14v-39q0 -200 -153.5 -306t-435.5 -106h-96q-308 0 -467.5 150t-159.5 440v341v40h40l175 -1h40v-40v-339q0 -170 89.5 -250.5t282.5 -80.5h96
q76 0 134 7.5t105 25t72 49.5t25 77v32h-213q-46 0 -71 27t-42 91q-23 82 -15 112t59 30h549q11 0 18 -42t7 -81v-11q0 -41 -6.5 -83.5t-18.5 -42.5z" />
    <glyph glyph-name="onequarter.ref1" horiz-adv-x="2048" 
d="M1302 326h88v-167h-88v-159h-205v159h-346l-12 135l357 495h206v-463zM935 326h162v212l-14 -22zM494 664h-204v548l-189 -41v158l374 121h19v-786z" />
    <glyph glyph-name="onehalf.ref1" horiz-adv-x="2048" 
d="M477 670h-204v548l-189 -41v158l374 121h19v-786zM1477 0h-620v138l287 257q56 49 80.5 91t24.5 65q0 84 -95 84q-50 0 -79.5 -31t-29.5 -78h-206q0 116 85.5 195t220.5 79q148 0 228.5 -64.5t80.5 -183.5q0 -70 -36 -128t-144 -145l-148 -115h351v-164z" />
    <glyph glyph-name="threequarters.ref1" horiz-adv-x="2048" 
d="M1460 326h88v-167h-88v-159h-205v159h-346l-12 135l357 495h206v-463zM1093 326h162v212l-14 -22zM319 1137h82q119 0 119 88q0 35 -28.5 56t-77.5 21q-42 0 -71.5 -15.5t-29.5 -44.5h-205q0 102 84.5 163.5t215.5 61.5q145 0 230.5 -59.5t85.5 -166.5q0 -119 -135 -169
q150 -41 150 -184q0 -105 -91.5 -168.5t-239.5 -63.5q-142 0 -228 66.5t-86 180.5h206q0 -34 34 -58.5t86 -24.5q60 0 86.5 26.5t26.5 61.5q0 92 -122 93h-92v136z" />
    <glyph glyph-name="franc.ref1" horiz-adv-x="2048" 
d="M686 217h-699v183h699v-183z" />
    <glyph glyph-name="dong.ref1" horiz-adv-x="2048" 
d="M1198 1219h-699v183h699v-183z" />
    <glyph glyph-name="oneeighth.ref1" horiz-adv-x="2048" 
d="M1485 576q0 -114 -111 -170q129 -60 129 -188q0 -108 -81.5 -168.5t-226.5 -60.5q-144 0 -227.5 60.5t-83.5 168.5q0 129 131 188q-113 58 -113 170q0 104 79 164t212 60t212.5 -59t79.5 -165zM1299 238q0 81 -106 81q-103 0 -103 -81q0 -40 28.5 -62.5t76.5 -22.5
q47 0 75.5 22.5t28.5 62.5zM1280 562q0 73 -87 73q-85 0 -85 -73q0 -77 87 -77q85 0 85 77zM490 646h-204v548l-189 -41v158l374 121h19v-786z" />
    <glyph glyph-name="threeeighths.ref1" horiz-adv-x="2048" 
d="M1641 576q0 -114 -111 -170q129 -60 129 -188q0 -108 -81.5 -168.5t-226.5 -60.5q-144 0 -227.5 60.5t-83.5 168.5q0 129 131 188q-113 58 -113 170q0 104 79 164t212 60t212.5 -59t79.5 -165zM1455 238q0 81 -106 81q-103 0 -103 -81q0 -40 28.5 -62.5t76.5 -22.5
q47 0 75.5 22.5t28.5 62.5zM1436 562q0 73 -87 73q-85 0 -85 -73q0 -77 87 -77q85 0 85 77zM297 1130h82q119 0 119 88q0 35 -28.5 56t-77.5 21q-42 0 -71.5 -15.5t-29.5 -44.5h-205q0 102 84.5 163.5t215.5 61.5q145 0 230.5 -59.5t85.5 -166.5q0 -119 -135 -169
q150 -41 150 -184q0 -105 -91.5 -168.5t-239.5 -63.5q-142 0 -228 66.5t-86 180.5h206q0 -34 34 -58.5t86 -24.5q60 0 86.5 26.5t26.5 61.5q0 92 -122 93h-92v136z" />
    <glyph glyph-name="fiveeighths.ref1" horiz-adv-x="2048" 
d="M1622 576q0 -114 -111 -170q129 -60 129 -188q0 -108 -81.5 -168.5t-226.5 -60.5q-144 0 -227.5 60.5t-83.5 168.5q0 129 131 188q-113 58 -113 170q0 104 79 164t212 60t212.5 -59t79.5 -165zM1436 238q0 81 -106 81q-103 0 -103 -81q0 -40 28.5 -62.5t76.5 -22.5
q47 0 75.5 22.5t28.5 62.5zM1417 562q0 73 -87 73q-85 0 -85 -73q0 -77 87 -77q85 0 85 77zM105 1044l54 408h503v-162h-336l-21 -135q63 27 132 27q132 0 201 -66t69 -188q0 -123 -85 -199.5t-224 -76.5q-129 0 -219 66.5t-92 167.5h206q4 -70 105 -70q104 0 104 113
q0 51 -29.5 81.5t-90.5 30.5q-50 0 -75.5 -13.5t-38.5 -23.5z" />
    <glyph glyph-name="seveneighths.ref1" horiz-adv-x="2048" 
d="M1568 576q0 -114 -111 -170q129 -60 129 -188q0 -108 -81.5 -168.5t-226.5 -60.5q-144 0 -227.5 60.5t-83.5 168.5q0 129 131 188q-113 58 -113 170q0 104 79 164t212 60t212.5 -59t79.5 -165zM1382 238q0 81 -106 81q-103 0 -103 -81q0 -40 28.5 -62.5t76.5 -22.5
q47 0 75.5 22.5t28.5 62.5zM1363 562q0 73 -87 73q-85 0 -85 -73q0 -77 87 -77q85 0 85 77zM730 1328l-331 -674h-216l332 623h-424v166h639v-115z" />
    <glyph glyph-name="uniFEA9.ref1" horiz-adv-x="2048" 
d="M352 809l121 136zM464 0h-364v180h365z" />
    </font>
</defs>
</svg>
